<svg width="24" height="27" viewBox="0 0 24 27" fill="none" xmlns="http://www.w3.org/2000/svg">
<path fill-rule="evenodd" clip-rule="evenodd" d="M11.9141 25.1721C11.9413 25.1739 11.9685 25.1752 11.9961 25.1757C13.0088 25.1935 13.8557 24.2111 13.295 23.0241C13.2335 23.9427 12.8292 24.4393 11.9734 24.4393C11.9533 24.4393 11.9337 24.4393 11.9141 24.4388C11.8945 24.4393 11.8749 24.4393 11.8548 24.4393C10.999 24.4393 10.5947 23.9427 10.5328 23.0241C9.97202 24.2111 10.8194 25.1935 11.8321 25.1757C11.8597 25.1752 11.8869 25.1739 11.9141 25.1721ZM11.9141 23.711C11.9355 23.7127 11.9573 23.7141 11.9801 23.7141C12.732 23.7337 12.8911 22.9719 12.7053 22.5124C12.5858 22.9719 12.2381 23.2055 11.9141 23.1319C11.59 23.2055 11.2419 22.9719 11.1229 22.5124C10.937 22.9719 11.0962 23.7337 11.8481 23.7141C11.8709 23.7141 11.8927 23.7127 11.9141 23.711ZM11.9141 21.4381C11.9966 21.435 12.0755 21.4346 12.1486 21.4377C14.5159 21.5416 17.5317 22.3541 18.7753 21.8719C19.6298 21.5407 21.0094 20.5052 21.653 21.415C21.8482 21.6909 21.0637 22.3764 21.0477 21.5652C20.7303 20.9122 20.0515 21.8883 20.5444 22.4067C18.7481 24.1834 13.8646 22.1576 13.398 22.0261C13.2647 21.9882 13.1907 22.1304 13.2963 22.3189C13.4666 22.6229 13.9894 23.0673 14.116 23.5353C14.3714 24.4785 13.6124 25.9913 12.0991 26.0337C12.0362 26.0355 11.9743 26.0341 11.9141 26.031C11.8539 26.0341 11.792 26.0355 11.7287 26.0337C10.2158 25.9913 9.45675 24.4785 9.71216 23.5353C9.83874 23.0673 10.3616 22.6229 10.5319 22.3189C10.6375 22.1304 10.5635 21.9882 10.4302 22.0261C9.96355 22.1576 5.08006 24.1834 3.28374 22.4067C3.77673 21.8883 3.09787 20.9122 2.78051 21.5652C2.76446 22.3764 1.97996 21.6909 2.17475 21.415C2.81884 20.5052 4.19839 21.5407 5.05287 21.8719C6.29648 22.3541 9.31233 21.5416 11.6796 21.4377C11.7527 21.4346 11.8316 21.435 11.9141 21.4381ZM11.9141 18.6327C11.7813 18.6135 11.6302 18.6701 11.6195 18.7994C11.4666 20.0871 11.6034 19.8977 11.1581 20.4379C10.5265 21.2041 9.90873 21.1368 8.91518 21.1921C7.97646 21.2443 7.23029 21.3075 7.07072 20.9033C6.98648 20.6893 7.51155 19.0905 8.96421 18.7967C9.48082 18.692 10.4347 18.9492 10.4342 18.6425C10.4329 18.121 9.0021 18.2765 8.55235 18.392C6.97712 18.7981 5.64793 19.4404 4.4226 21.2162C6.74043 22.4214 9.23076 21.2389 11.8521 21.103C11.8726 21.1047 11.8931 21.107 11.9141 21.1092C11.9346 21.107 11.9555 21.1047 11.9761 21.103C14.5974 21.2389 17.0878 22.4214 19.4056 21.2162C18.1803 19.4404 16.8511 18.7981 15.2758 18.392C14.8256 18.2765 13.3953 18.121 13.3939 18.6425C13.3935 18.9492 14.3474 18.692 14.8635 18.7967C16.3166 19.0905 16.8417 20.6893 16.7575 20.9033C16.5979 21.3075 15.8517 21.2443 14.913 21.1921C13.9195 21.1368 13.3012 21.2041 12.6701 20.4379C12.2248 19.8977 12.3616 20.0871 12.2083 18.7994C12.198 18.6701 12.0469 18.6135 11.9141 18.6327ZM11.9141 10.9348C11.8455 10.8956 11.7844 10.7574 11.7799 10.5345C11.7576 9.47993 11.4826 8.35801 11.5887 7.12911C11.6319 6.69586 11.7674 6.45427 11.9141 6.39766C12.0603 6.45427 12.1962 6.69586 12.2395 7.12911C12.3456 8.35801 12.0705 9.47993 12.0483 10.5345C12.0434 10.7574 11.9827 10.8956 11.9141 10.9348ZM11.9141 -4.67404e-07C10.3362 1.18521 7.83605 1.44463 7.87929 4.5006C7.85477 5.71211 8.41729 6.39008 10.5283 6.37002C11.1599 6.36378 11.1612 8.52872 11.1425 9.47903C10.7472 8.80419 10.375 8.34508 9.66313 7.80663C8.03752 6.38651 7.26685 6.0852 7.26685 4.34905C7.26685 3.02878 7.59312 2.6089 8.28491 1.72411C5.85252 2.11992 2.35215 4.20552 4.92584 6.72438C6.06603 7.83248 7.89355 6.93744 9.1434 7.98403C9.85702 8.50198 11.2089 10.0643 11.2089 11.1372L11.2446 11.7697L11.1345 14.6041C11.1234 14.7704 10.9121 14.7369 10.9094 14.5876C10.9094 11.5254 9.27667 9.35467 6.42262 9.35467C5.36801 9.35467 4.76225 9.57398 3.65103 9.52985C2.60176 9.54322 1.36574 8.70657 1.32428 7.82179C0.157345 8.94326 0.331183 11.6729 2.4774 11.4483C3.85785 11.1568 4.01074 9.82448 5.9965 9.82448C7.24456 9.81646 8.25861 9.84632 9.24235 10.8737C9.67338 11.3235 10.0429 11.7487 10.2836 13.303C10.3063 13.6592 10.1592 13.6436 10.0736 13.4492C9.33685 11.7795 8.57062 11.373 7.21291 11.3155C5.02969 11.3025 3.14913 14.5087 1.5632 14.5087C0.838876 14.5087 0.419438 14.2226 0 13.6534C0.0378876 14.9825 0.22064 16.219 1.65368 16.2315C2.53268 16.2449 3.24675 15.164 3.72146 14.3861C4.54562 13.036 6.12086 11.4594 7.84452 11.8169C9.35735 12.2136 10.2341 13.8045 10.2341 16.1522C10.2341 16.6206 10.0438 17.447 9.47904 17.447C8.93836 17.447 8.74446 17.3169 8.74446 16.7887C8.74446 15.817 9.08188 13.5183 7.97601 13.5183C7.37338 13.4947 7.10995 13.8486 7.089 14.3086C7.09078 14.8181 8.09993 15.2487 7.91717 14.4539C7.86057 14.2092 8.25905 14.1102 8.28179 14.4802C8.26173 15.2776 7.56192 15.1849 7.63413 16.9028C7.63413 18.2239 8.68295 17.9512 10.054 17.9587C11.1795 18.0938 10.7806 19.2995 9.99074 19.3035C9.60072 19.3191 9.47413 19.0838 9.21471 19.0472C8.99809 19.0174 8.78502 19.0784 8.73644 19.2344C8.61564 19.8861 9.54857 20.0675 10.2885 20.0675C10.8158 20.0951 10.0848 20.5164 9.72241 20.5271C9.4719 20.5351 9.4826 20.7896 9.70948 20.7954C10.9981 20.7588 11.085 19.8754 11.3378 18.6871C11.3609 18.3795 11.5566 18.2458 11.9141 18.2275C12.2716 18.2458 12.4673 18.3795 12.4904 18.6871C12.7427 19.8754 12.8301 20.7588 14.1187 20.7954C14.3456 20.7896 14.3563 20.5351 14.1058 20.5271C13.7434 20.5164 13.0124 20.0951 13.5397 20.0675C14.2796 20.0675 15.2125 19.8861 15.0918 19.2344C15.0432 19.0784 14.8301 19.0174 14.6135 19.0472C14.3541 19.0838 14.2275 19.3191 13.8374 19.3035C13.0476 19.2995 12.6487 18.0938 13.7742 17.9587C15.1452 17.9512 16.1941 18.2239 16.1941 16.9028C16.2663 15.1849 15.566 15.2776 15.5464 14.4802C15.5691 14.1102 15.9676 14.2092 15.911 14.4539C15.7283 15.2487 16.7374 14.8181 16.7392 14.3086C16.7182 13.8486 16.4544 13.4947 15.8517 13.5183C14.7463 13.5183 15.0837 15.817 15.0837 16.7887C15.0837 17.3169 14.8894 17.447 14.3492 17.447C13.784 17.447 13.5941 16.6206 13.5941 16.1522C13.5941 13.8045 14.4708 12.2136 15.9837 11.8169C17.7073 11.4594 19.2826 13.036 20.1067 14.3861C20.5814 15.164 21.2955 16.2449 22.1745 16.2315C23.6076 16.219 23.7903 14.9825 23.8282 13.6534C23.4088 14.2226 22.9889 14.5087 22.265 14.5087C20.6791 14.5087 18.7985 11.3025 16.6148 11.3155C15.2571 11.373 14.4913 11.7795 13.7545 13.4492C13.669 13.6436 13.5219 13.6592 13.5446 13.303C13.7853 11.7487 14.1548 11.3235 14.5854 10.8737C15.5696 9.84632 16.5832 9.81646 17.8317 9.82448C19.8175 9.82448 19.9703 11.1568 21.3508 11.4483C23.497 11.6729 23.6708 8.94326 22.5035 7.82179C22.4625 8.70657 21.2264 9.54322 20.1772 9.52985C19.0659 9.57398 18.4602 9.35467 17.4056 9.35467C14.5515 9.35467 12.9188 11.5254 12.9188 14.5876C12.9161 14.7369 12.7048 14.7704 12.6937 14.6041L12.5836 11.7697L12.6193 11.1372C12.6193 10.0643 13.9712 8.50198 14.6848 7.98403C15.9346 6.93744 17.7622 7.83248 18.9024 6.72438C21.4756 4.20552 17.9757 2.11992 15.5433 1.72411C16.2351 2.6089 16.5609 3.02878 16.5609 4.34905C16.5609 6.0852 15.7907 6.38651 14.1651 7.80663C13.4532 8.34508 13.081 8.80419 12.6857 9.47903C12.6669 8.52872 12.6683 6.36378 13.2999 6.37002C15.4109 6.39008 15.9734 5.71211 15.9489 4.5006C15.9921 1.44463 13.492 1.18521 11.9141 -4.67404e-07ZM10.9727 1.91756C10.4017 2.07624 10.1026 2.99981 10.1485 3.96037C10.1485 4.46895 10.5778 5.1438 10.88 5.35419C10.6736 4.79746 10.3656 3.47808 10.9727 1.91756ZM11.5967 14.9184C11.5967 14.6184 11.2883 14.576 11.2767 15.0271C11.3199 16.3982 10.6923 16.3465 10.654 16.8765C10.654 17.2683 10.7302 17.5464 11.2343 17.4934C11.6801 17.4934 11.6034 16.6492 11.6034 16.2582L11.5967 14.9184ZM6.25903 7.85834C5.89264 8.45518 4.72748 8.98605 3.97998 8.98605C1.25609 8.98605 1.36262 6.03661 3.46471 4.64547C3.40989 6.65485 4.42795 7.85299 6.25903 7.85834ZM3.31717 11.7955C2.98599 13.1055 2.44397 13.9235 1.32963 13.9235C-0.157791 13.7777 -0.0811242 11.6297 0.237132 10.8033C0.982403 12.1472 2.20461 12.2355 3.31717 11.7955ZM9.47235 16.4945C9.74425 16.4677 9.84766 16.7548 9.74603 16.9527C9.6444 17.1506 9.36181 17.127 9.24012 16.934C9.14696 16.7869 9.20446 16.5025 9.47235 16.4945ZM2.13018 18.1446C1.51194 18.1446 0.752403 17.1626 0.66593 16.5489C1.04748 16.7156 1.51729 16.8965 1.9862 16.8234C2.52019 16.7174 2.54872 16.6648 2.82954 16.2828C3.32787 17.0722 3.21198 18.1446 2.13018 18.1446ZM3.20574 19.48C2.39182 19.7292 1.79142 18.7258 1.63942 18.4272C2.17297 18.7557 3.2044 18.7397 3.4139 18.1535C3.6225 18.7125 3.7375 19.2295 3.20574 19.48ZM3.4968 20.519C3.15047 20.4593 2.93963 20.3011 2.87322 20.043C3.29845 20.1099 3.74553 19.9842 3.91045 19.6276C4.13064 20.0131 4.07403 20.6189 3.4968 20.519ZM7.44737 19.4043C7.07964 19.7604 6.72572 20.4277 6.43777 20.8533C6.2519 21.1288 5.96128 21.0325 6.0375 20.8725C6.26884 20.388 6.9312 19.5634 7.44737 19.4043ZM7.15407 19.1725C6.79615 19.5344 6.362 19.9596 6.26973 20.0693C5.68626 20.7637 5.39743 21.1694 5.23339 20.7642C5.19996 20.6826 5.52179 20.2008 5.99739 19.8513C6.37136 19.5772 6.69184 19.3066 7.15407 19.1725ZM9.66268 25.5563C9.11398 25.8483 7.72016 25.514 7.51423 24.8356C8.32413 24.4393 8.72217 24.1286 9.33016 23.649C9.30787 24.5525 9.40192 24.8449 9.66268 25.5563ZM5.21646 23.6686C5.62341 23.6125 6.56704 23.6735 7.16566 23.4823C8.1396 23.1716 8.67359 23.0923 9.58289 22.7103C9.2321 23.3673 8.23632 23.9592 7.91138 24.1803C7.07072 24.9024 5.38361 24.8463 5.21646 23.6686ZM12.855 1.91756C13.4265 2.07624 13.7251 2.99981 13.6797 3.96037C13.6797 4.46895 13.2504 5.1438 12.9482 5.35419C13.1546 4.79746 13.4626 3.47808 12.855 1.91756ZM12.2315 14.9184C12.2315 14.6184 12.5395 14.576 12.5515 15.0271C12.5083 16.3982 13.1359 16.3465 13.1742 16.8765C13.1742 17.2683 13.098 17.5464 12.5938 17.4934C12.1481 17.4934 12.2248 16.6492 12.2248 16.2582L12.2315 14.9184ZM17.5692 7.85834C17.9356 8.45518 19.1007 8.98605 19.8478 8.98605C22.5721 8.98605 22.4656 6.03661 20.3635 4.64547C20.4179 6.65485 19.4002 7.85299 17.5692 7.85834ZM20.511 11.7955C20.8422 13.1055 21.3842 13.9235 22.4986 13.9235C23.986 13.7777 23.9093 11.6297 23.5911 10.8033C22.8458 12.1472 21.6236 12.2355 20.511 11.7955ZM14.3558 16.4945C14.0839 16.4677 13.9805 16.7548 14.0822 16.9527C14.1838 17.1506 14.4659 17.127 14.5881 16.934C14.6812 16.7869 14.6237 16.5025 14.3558 16.4945ZM21.6976 18.1446C22.3163 18.1446 23.0758 17.1626 23.1623 16.5489C22.7803 16.7156 22.3109 16.8965 21.842 16.8234C21.308 16.7174 21.2795 16.6648 20.9987 16.2828C20.5003 17.0722 20.6162 18.1446 21.6976 18.1446ZM20.6225 19.48C21.4364 19.7292 22.0368 18.7258 22.1888 18.4272C21.6548 18.7557 20.6238 18.7397 20.4143 18.1535C20.2057 18.7125 20.0902 19.2295 20.6225 19.48ZM20.3314 20.519C20.6773 20.4593 20.8886 20.3011 20.955 20.043C20.5297 20.1099 20.0827 19.9842 19.9177 19.6276C19.6971 20.0131 19.7542 20.6189 20.3314 20.519ZM16.3808 19.4043C16.7486 19.7604 17.1025 20.4277 17.3904 20.8533C17.5763 21.1288 17.8669 21.0325 17.7907 20.8725C17.5594 20.388 16.897 19.5634 16.3808 19.4043ZM16.6741 19.1725C17.032 19.5344 17.4662 19.9596 17.5585 20.0693C18.1419 20.7637 18.4303 21.1694 18.5948 20.7642C18.6278 20.6826 18.3064 20.2008 17.8308 19.8513C17.4564 19.5772 17.1363 19.3066 16.6741 19.1725ZM14.1655 25.5563C14.7142 25.8483 16.108 25.514 16.314 24.8356C15.5041 24.4393 15.106 24.1286 14.4976 23.649C14.5203 24.5525 14.4258 24.8449 14.1655 25.5563ZM18.6117 23.6686C18.2048 23.6125 17.2612 23.6735 16.6625 23.4823C15.6886 23.1716 15.1546 23.0923 14.2453 22.7103C14.5961 23.3673 15.5919 23.9592 15.9168 24.1803C16.7575 24.9024 18.4446 24.8463 18.6117 23.6686Z" fill="#FFD900"/>
</svg>
