<svg width="321" height="129" viewBox="0 0 321 129" fill="none" xmlns="http://www.w3.org/2000/svg">
<g filter="url(#filter0_din_3097_2908)">
<path fill-rule="evenodd" clip-rule="evenodd" d="M159.895 71.4567C159.968 71.4615 160.041 71.4651 160.115 71.4663C162.838 71.5142 165.115 68.8729 163.607 65.6815C163.442 68.1515 162.355 69.4865 160.054 69.4865C160 69.4865 159.948 69.4865 159.895 69.4853C159.842 69.4865 159.789 69.4865 159.735 69.4865C157.434 69.4865 156.347 68.1515 156.181 65.6815C154.673 68.8729 156.951 71.5142 159.674 71.4663C159.749 71.4651 159.822 71.4615 159.895 71.4567ZM159.895 67.5283C159.952 67.5331 160.011 67.5367 160.072 67.5367C162.094 67.5894 162.522 65.5413 162.022 64.3057C161.701 65.5413 160.766 66.1693 159.895 65.9715C159.024 66.1693 158.088 65.5413 157.768 64.3057C157.268 65.5413 157.696 67.5894 159.717 67.5367C159.779 67.5367 159.837 67.5331 159.895 67.5283ZM159.895 61.4175C160.116 61.4092 160.329 61.408 160.525 61.4163C166.89 61.6956 174.998 63.8803 178.342 62.5836C180.639 61.6932 184.348 58.9093 186.079 61.3552C186.604 62.097 184.495 63.9402 184.452 61.7591C183.598 60.0034 181.773 62.6279 183.099 64.0217C178.269 68.7986 165.139 63.3518 163.884 62.9983C163.526 62.8964 163.327 63.2787 163.611 63.7856C164.069 64.6029 165.475 65.7978 165.815 67.0561C166.502 69.592 164.461 73.6594 160.392 73.7732C160.223 73.778 160.057 73.7744 159.895 73.766C159.733 73.7744 159.566 73.778 159.396 73.7732C155.329 73.6594 153.288 69.592 153.975 67.0561C154.315 65.7978 155.721 64.6029 156.178 63.7856C156.463 63.2787 156.264 62.8964 155.905 62.9983C154.65 63.3518 141.521 68.7986 136.691 64.0217C138.016 62.6279 136.191 60.0034 135.338 61.7591C135.295 63.9402 133.186 62.097 133.709 61.3552C135.441 58.9093 139.15 61.6932 141.448 62.5836C144.791 63.8803 152.9 61.6956 159.264 61.4163C159.461 61.408 159.673 61.4092 159.895 61.4175ZM159.895 53.8747C159.538 53.8232 159.131 53.9754 159.103 54.3229C158.692 57.7851 159.059 57.2758 157.862 58.7283C156.164 60.7884 154.503 60.6074 151.832 60.756C149.308 60.8962 147.302 61.0664 146.873 59.9794C146.646 59.4042 148.058 55.1055 151.964 54.3157C153.353 54.0341 155.917 54.7256 155.916 53.9011C155.912 52.4989 152.066 52.9172 150.856 53.2276C146.621 54.3193 143.047 56.0462 139.753 60.8207C145.985 64.0613 152.68 60.8819 159.728 60.5163C159.783 60.5211 159.838 60.5271 159.895 60.5331C159.95 60.5271 160.006 60.5211 160.061 60.5163C167.109 60.8819 173.805 64.0613 180.037 60.8207C176.742 56.0462 173.168 54.3193 168.933 53.2276C167.723 52.9172 163.877 52.4989 163.874 53.9011C163.872 54.7256 166.437 54.0341 167.825 54.3157C171.732 55.1055 173.143 59.4042 172.917 59.9794C172.488 61.0664 170.482 60.8962 167.958 60.756C165.286 60.6074 163.624 60.7884 161.927 58.7283C160.73 57.2758 161.098 57.7851 160.686 54.3229C160.658 53.9754 160.252 53.8232 159.895 53.8747ZM159.895 33.178C159.71 33.0726 159.546 32.7011 159.534 32.1019C159.474 29.2664 158.735 26.25 159.02 22.9459C159.136 21.7811 159.5 21.1315 159.895 20.9793C160.288 21.1315 160.653 21.7811 160.77 22.9459C161.055 26.25 160.315 29.2664 160.255 32.1019C160.242 32.7011 160.079 33.0726 159.895 33.178ZM159.895 3.77845C155.652 6.96504 148.93 7.66252 149.047 15.8789C148.981 19.1362 150.493 20.959 156.169 20.905C157.867 20.8883 157.871 26.709 157.82 29.264C156.757 27.4496 155.757 26.2152 153.843 24.7675C149.472 20.9494 147.4 20.1392 147.4 15.4714C147.4 11.9217 148.277 10.7928 150.137 8.41393C143.597 9.47812 134.186 15.0855 141.106 21.8578C144.172 24.837 149.085 22.4306 152.445 25.2445C154.364 26.6371 157.999 30.8375 157.999 33.7221L158.095 35.4227L157.799 43.0434C157.769 43.4904 157.201 43.4005 157.194 42.9991C157.194 34.7659 152.804 28.9296 145.13 28.9296C142.295 28.9296 140.666 29.5193 137.678 29.4006C134.857 29.4366 131.534 27.1871 131.423 24.8083C128.285 27.8235 128.753 35.1626 134.523 34.5586C138.235 33.7748 138.646 30.1928 143.985 30.1928C147.34 30.1712 150.067 30.2515 152.711 33.0138C153.87 34.2231 154.864 35.3663 155.511 39.5452C155.572 40.5028 155.177 40.4608 154.947 39.9383C152.966 35.449 150.905 34.3561 147.255 34.2015C141.385 34.1667 136.329 42.7869 132.065 42.7869C130.118 42.7869 128.99 42.0176 127.862 40.4872C127.964 44.0609 128.455 47.3853 132.308 47.4188C134.672 47.4548 136.592 44.5486 137.868 42.4574C140.084 38.8274 144.319 34.5886 148.953 35.5497C153.021 36.6163 155.378 40.8934 155.378 47.2055C155.378 48.465 154.866 50.6869 153.348 50.6869C151.894 50.6869 151.373 50.337 151.373 48.9169C151.373 46.3043 152.28 40.1241 149.307 40.1241C147.686 40.0605 146.978 41.0121 146.922 42.2489C146.927 43.6186 149.64 44.7763 149.149 42.6395C148.996 41.9816 150.068 41.7156 150.129 42.7102C150.075 44.8542 148.193 44.6049 148.388 49.2236C148.388 52.7758 151.207 52.0423 154.894 52.0627C157.92 52.4258 156.847 55.6675 154.724 55.6783C153.675 55.7203 153.335 55.0875 152.637 54.9892C152.055 54.9089 151.482 55.0731 151.351 55.4926C151.026 57.2447 153.535 57.7324 155.524 57.7324C156.942 57.8067 154.976 58.9392 154.002 58.968C153.329 58.9896 153.357 59.6738 153.967 59.6894C157.432 59.5912 157.666 57.2159 158.345 54.0209C158.408 53.194 158.934 52.8345 159.895 52.7853C160.856 52.8345 161.382 53.194 161.444 54.0209C162.123 57.2159 162.358 59.5912 165.822 59.6894C166.432 59.6738 166.461 58.9896 165.787 58.968C164.813 58.9392 162.848 57.8067 164.265 57.7324C166.255 57.7324 168.763 57.2447 168.438 55.4926C168.308 55.0731 167.735 54.9089 167.152 54.9892C166.455 55.0875 166.115 55.7203 165.066 55.6783C162.942 55.6675 161.87 52.4258 164.896 52.0627C168.582 52.0423 171.402 52.7758 171.402 49.2236C171.596 44.6049 169.713 44.8542 169.661 42.7102C169.722 41.7156 170.793 41.9816 170.641 42.6395C170.15 44.7763 172.863 43.6186 172.868 42.2489C172.811 41.0121 172.102 40.0605 170.482 40.1241C167.51 40.1241 168.417 46.3043 168.417 48.9169C168.417 50.337 167.894 50.6869 166.442 50.6869C164.922 50.6869 164.412 48.465 164.412 47.2055C164.412 40.8934 166.769 36.6163 170.836 35.5497C175.471 34.5886 179.706 38.8274 181.922 42.4574C183.198 44.5486 185.118 47.4548 187.481 47.4188C191.334 47.3853 191.825 44.0609 191.927 40.4872C190.8 42.0176 189.671 42.7869 187.724 42.7869C183.46 42.7869 178.404 34.1667 172.533 34.2015C168.883 34.3561 166.824 35.449 164.843 39.9383C164.613 40.4608 164.217 40.5028 164.279 39.5452C164.926 35.3663 165.919 34.2231 167.077 33.0138C169.723 30.2515 172.448 30.1712 175.805 30.1928C181.144 30.1928 181.555 33.7748 185.266 34.5586C191.037 35.1626 191.504 27.8235 188.366 24.8083C188.255 27.1871 184.932 29.4366 182.111 29.4006C179.123 29.5193 177.495 28.9296 174.659 28.9296C166.986 28.9296 162.596 34.7659 162.596 42.9991C162.589 43.4005 162.021 43.4904 161.991 43.0434L161.695 35.4227L161.791 33.7221C161.791 30.8375 165.425 26.6371 167.344 25.2445C170.704 22.4306 175.618 24.837 178.684 21.8578C185.602 15.0855 176.192 9.47812 169.652 8.41393C171.512 10.7928 172.388 11.9217 172.388 15.4714C172.388 20.1392 170.317 20.9494 165.947 24.7675C164.033 26.2152 163.032 27.4496 161.969 29.264C161.919 26.709 161.922 20.8883 163.621 20.905C169.296 20.959 170.809 19.1362 170.743 15.8789C170.859 7.66252 164.137 6.96504 159.895 3.77845ZM157.364 8.93404C155.829 9.36068 155.024 11.8438 155.148 14.4264C155.148 15.7938 156.302 17.6082 157.114 18.1738C156.56 16.677 155.731 13.1297 157.364 8.93404ZM159.042 43.8883C159.042 43.0818 158.212 42.9679 158.181 44.1807C158.297 47.867 156.61 47.728 156.507 49.1529C156.507 50.2063 156.712 50.9542 158.067 50.8116C159.266 50.8116 159.059 48.5417 159.059 47.4907L159.042 43.8883ZM144.69 24.9066C143.705 26.5112 140.573 27.9385 138.563 27.9385C131.239 27.9385 131.526 20.0086 137.178 16.2684C137.03 21.6708 139.767 24.8922 144.69 24.9066ZM136.781 35.4922C135.89 39.0143 134.433 41.2134 131.437 41.2134C127.438 40.8215 127.644 35.0464 128.5 32.8245C130.504 36.4377 133.79 36.675 136.781 35.4922ZM153.33 48.1259C154.061 48.054 154.339 48.8258 154.066 49.3579C153.792 49.89 153.033 49.8264 152.705 49.3075C152.455 48.9121 152.61 48.1475 153.33 48.1259ZM133.59 52.5624C131.927 52.5624 129.885 49.9223 129.653 48.2721C130.679 48.7203 131.942 49.2069 133.202 49.0103C134.638 48.7251 134.715 48.5837 135.47 47.5566C136.81 49.679 136.498 52.5624 133.59 52.5624ZM136.481 56.1529C134.293 56.8228 132.679 54.1252 132.27 53.3222C133.705 54.2055 136.478 54.1623 137.041 52.5864C137.602 54.0892 137.911 55.4794 136.481 56.1529ZM137.264 58.9464C136.333 58.7858 135.766 58.3604 135.587 57.6665C136.731 57.8463 137.933 57.5083 138.376 56.5496C138.968 57.5862 138.816 59.2149 137.264 58.9464ZM147.885 55.9492C146.897 56.9067 145.945 58.7007 145.171 59.8452C144.671 60.5858 143.89 60.327 144.095 59.8968C144.717 58.5941 146.498 56.377 147.885 55.9492ZM147.097 55.326C146.135 56.2991 144.967 57.4424 144.719 57.7372C143.15 59.6043 142.374 60.6949 141.933 59.6055C141.843 59.3862 142.708 58.0907 143.987 57.1512C144.992 56.4141 145.854 55.6867 147.097 55.326ZM153.842 72.4897C152.366 73.2747 148.619 72.3759 148.065 70.5519C150.243 69.4865 151.313 68.6512 152.948 67.3617C152.888 69.7909 153.14 70.577 153.842 72.4897ZM141.887 67.4144C142.981 67.2634 145.519 67.4276 147.128 66.9135C149.747 66.0782 151.182 65.8649 153.627 64.8378C152.684 66.6043 150.007 68.1958 149.133 68.7902C146.873 70.7317 142.337 70.5806 141.887 67.4144ZM162.425 8.93404C163.961 9.36068 164.764 11.8438 164.642 14.4264C164.642 15.7938 163.488 17.6082 162.675 18.1738C163.23 16.677 164.058 13.1297 162.425 8.93404ZM160.748 43.8883C160.748 43.0818 161.576 42.9679 161.609 44.1807C161.492 47.867 163.18 47.728 163.283 49.1529C163.283 50.2063 163.078 50.9542 161.722 50.8116C160.524 50.8116 160.73 48.5417 160.73 47.4907L160.748 43.8883ZM175.099 24.9066C176.084 26.5112 179.217 27.9385 181.225 27.9385C188.55 27.9385 188.264 20.0086 182.612 16.2684C182.758 21.6708 180.022 24.8922 175.099 24.9066ZM183.009 35.4922C183.899 39.0143 185.356 41.2134 188.352 41.2134C192.352 40.8215 192.145 35.0464 191.29 32.8245C189.286 36.4377 186 36.675 183.009 35.4922ZM166.46 48.1259C165.729 48.054 165.451 48.8258 165.724 49.3579C165.997 49.89 166.756 49.8264 167.084 49.3075C167.335 48.9121 167.18 48.1475 166.46 48.1259ZM186.199 52.5624C187.862 52.5624 189.904 49.9223 190.137 48.2721C189.11 48.7203 187.848 49.2069 186.587 49.0103C185.151 48.7251 185.075 48.5837 184.32 47.5566C182.98 49.679 183.291 52.5624 186.199 52.5624ZM183.308 56.1529C185.497 56.8228 187.111 54.1252 187.52 53.3222C186.084 54.2055 183.312 54.1623 182.749 52.5864C182.188 54.0892 181.877 55.4794 183.308 56.1529ZM182.526 58.9464C183.456 58.7858 184.024 58.3604 184.202 57.6665C183.059 57.8463 181.857 57.5083 181.414 56.5496C180.82 57.5862 180.974 59.2149 182.526 58.9464ZM171.904 55.9492C172.893 56.9067 173.844 58.7007 174.619 59.8452C175.118 60.5858 175.9 60.327 175.695 59.8968C175.073 58.5941 173.292 56.377 171.904 55.9492ZM172.693 55.326C173.655 56.2991 174.822 57.4424 175.07 57.7372C176.639 59.6043 177.414 60.6949 177.857 59.6055C177.945 59.3862 177.081 58.0907 175.803 57.1512C174.796 56.4141 173.935 55.6867 172.693 55.326ZM165.948 72.4897C167.423 73.2747 171.171 72.3759 171.724 70.5519C169.547 69.4865 168.477 68.6512 166.841 67.3617C166.902 69.7909 166.648 70.577 165.948 72.4897ZM177.902 67.4144C176.808 67.2634 174.271 67.4276 172.662 66.9135C170.043 66.0782 168.607 65.8649 166.162 64.8378C167.106 66.6043 169.783 68.1958 170.657 68.7902C172.917 70.7317 177.453 70.5806 177.902 67.4144Z" fill="url(#paint0_radial_3097_2908)"/>
<path d="M43.587 111.993C43.6831 112.108 43.7312 112.204 43.7312 112.281C43.7312 112.396 43.419 112.621 42.7944 112.952C41.9117 113.787 40.7168 115.198 39.2156 117.193C37.6123 119.333 36.5015 121.027 35.877 122.279C35.9072 122.408 35.9252 122.504 35.9252 122.567C35.9252 122.759 35.697 122.941 35.2527 123.104C35.0605 123.166 34.8984 123.2 34.7723 123.2C34.5921 123.2 34.3519 123.07 34.0517 122.816C33.9376 122.701 33.8836 122.586 33.8836 122.471C33.8836 122.308 33.9857 122.154 34.1958 122.01C34.1476 120.106 33.8235 118.206 33.2351 116.311C32.7066 114.636 32.1302 113.442 31.5057 112.722C31.2955 112.468 31.0073 112.338 30.641 112.338C30.2567 112.338 29.7043 112.559 28.9837 112.991C28.8996 113.029 28.8035 113.048 28.6955 113.048C28.4853 113.048 28.3832 112.991 28.3832 112.876C28.3832 112.813 28.4373 112.732 28.5514 112.626C29.1579 112.142 29.9265 111.695 30.8572 111.283C31.1755 111.129 31.4337 111.053 31.6258 111.053C31.9621 111.053 32.2863 111.245 32.6106 111.628C34.0817 113.355 35.0965 116.421 35.661 120.82C36.1534 120.014 37.1081 118.628 38.5192 116.656C39.7983 114.828 40.5248 113.816 40.705 113.624C40.5609 113.638 40.4167 113.528 40.2727 113.298C40.1286 113.058 40.0565 112.828 40.0565 112.607C40.0565 112.415 40.1165 112.319 40.2486 112.319C40.4047 112.334 40.5729 112.338 40.753 112.338C40.9452 112.3 41.1914 112.175 41.4976 111.954C41.7018 111.801 41.9059 111.657 42.0981 111.513C42.3022 111.398 42.4643 111.34 42.5785 111.34C42.8667 111.34 43.2027 111.561 43.587 111.993ZM50.3904 120.513C48.643 122.293 47.4181 123.181 46.7155 123.181C46.3792 123.181 45.9529 122.994 45.4425 122.624C44.8961 122.423 44.6258 122.154 44.6258 121.818C44.6258 121.756 44.6317 121.684 44.6497 121.607C44.7757 120.83 45.04 119.966 45.4423 119.017C45.1661 118.901 45.034 118.801 45.034 118.709C45.034 118.623 45.106 118.575 45.2502 118.575C45.3762 118.575 45.4963 118.604 45.6104 118.652C46.2469 117.515 46.8234 116.704 47.3398 116.215C47.6581 115.898 47.9523 115.735 48.2285 115.735C48.3546 115.735 48.6489 115.821 49.1172 115.984C49.0812 115.821 49.1474 115.725 49.3093 115.697C49.3215 115.697 49.4895 115.697 49.8138 115.697C50.114 115.697 50.2701 115.735 50.2701 115.812C50.2701 115.841 50.2579 115.889 50.2463 115.965C50.2283 116.042 50.2225 116.119 50.2225 116.196C50.2225 116.402 50.2225 116.656 50.2225 116.963C50.2347 117.261 50.2463 117.457 50.2463 117.558C50.2463 118.278 49.9941 118.767 49.5017 119.036C49.0514 119.304 48.553 119.439 48.0126 119.439C47.7063 119.439 47.2199 119.376 46.5474 119.247C46.4153 119.429 46.2831 119.775 46.1391 120.283C45.9289 120.936 45.8328 121.511 45.8508 122.01C45.863 122.317 45.983 122.471 46.2111 122.471C46.2892 122.471 46.4032 122.452 46.5474 122.413C47.376 122.173 48.529 121.454 50.0061 120.264C50.1022 120.187 50.1982 120.149 50.2943 120.149C50.4204 120.149 50.4865 120.202 50.4865 120.302C50.4865 120.369 50.4504 120.437 50.3904 120.513ZM49.1174 116.714C49.1174 116.483 49.0573 116.368 48.9493 116.368C48.8652 116.368 48.7571 116.421 48.613 116.522C47.9044 116.973 47.2919 117.76 46.7635 118.882C46.9077 118.911 47.1538 118.93 47.5081 118.94C48.0846 118.954 48.5169 118.853 48.8051 118.633C49.0093 118.455 49.1294 118.167 49.1654 117.769C49.1294 118.067 49.1174 117.712 49.1174 116.714ZM61.4692 116.503C61.4692 117.246 61.3491 117.956 61.1089 118.633C61.0248 118.853 60.9168 118.959 60.7726 118.959C60.6766 118.959 60.4604 118.844 60.1241 118.614C59.9439 118.498 59.8959 118.335 59.98 118.115C60.1842 117.592 60.2922 117.174 60.2922 116.867C60.2922 116.752 60.2562 116.695 60.1962 116.695C60.1121 116.695 59.98 116.8 59.7879 117.002C58.2987 118.566 57.1818 120.302 56.4492 122.221C56.2091 122.835 56.0049 123.142 55.8488 123.142C55.7827 123.142 55.4945 123.046 54.9841 122.855C54.7439 122.754 54.6598 122.562 54.7439 122.279C55.3023 120.297 55.9088 118.628 56.5693 117.27C56.0409 117.721 55.7047 118.028 55.5605 118.191C55.4945 118.259 55.4165 118.287 55.3204 118.287C55.2063 118.287 55.1522 118.244 55.1522 118.153C55.1522 118.105 55.176 118.047 55.2243 117.98C55.5725 117.649 56.0469 117.136 56.6414 116.445C56.8155 116.191 56.9896 116.061 57.1698 116.061C57.2959 116.061 57.5601 116.148 57.9624 116.311C58.1846 116.402 58.2146 116.522 58.0585 116.675C57.8964 116.843 57.6021 117.433 57.1698 118.441C56.7494 119.415 56.4612 120.182 56.3051 120.744C57.2779 119.007 58.3947 117.472 59.6437 116.138C59.8659 115.898 60.052 115.773 60.1961 115.773C60.3222 115.773 60.4964 115.841 60.7245 115.965C61.0248 116.004 61.2169 116.042 61.301 116.08C61.4091 116.157 61.4692 116.301 61.4692 116.503ZM69.6056 113.355C69.7137 113.423 69.7737 113.499 69.7737 113.586C69.7737 113.754 69.4675 114.008 68.861 114.353C68.4407 114.584 68.0444 114.67 67.6601 114.603C67.4499 114.564 67.2638 114.502 67.1076 114.411C67.0594 114.372 67.0176 114.334 66.9876 114.296C66.9696 114.257 66.9696 114.233 66.9876 114.219C66.9998 114.195 67.0416 114.19 67.1076 114.2C67.7622 113.739 68.1945 113.408 68.4047 113.202C68.5788 113.063 68.6989 112.991 68.765 112.991C68.891 112.991 69.1732 113.116 69.6056 113.355ZM68.0924 117.117C67.9122 117.884 67.4679 119.17 66.7473 120.974C66.9515 120.82 67.2397 120.547 67.612 120.149C67.6602 120.101 67.708 120.072 67.7561 120.072C67.8642 120.072 67.8822 120.158 67.8043 120.321C67.7683 120.389 67.468 120.777 66.8916 121.492C66.4593 122.044 66.147 122.528 65.9548 122.95C65.8888 123.075 65.7687 123.142 65.5946 123.142C65.4144 123.142 65.1862 123.075 64.898 122.95C64.7059 122.874 64.6098 122.816 64.6098 122.778C64.6098 122.739 64.6458 122.663 64.7299 122.547C65.1262 122.001 65.5586 121.089 66.0269 119.822C66.4713 118.585 66.7295 117.664 66.7955 117.059C66.8077 116.805 66.7775 116.675 66.6995 116.675C66.6334 116.675 66.5133 116.742 66.3392 116.867L65.6907 117.366C65.4505 117.534 65.3304 117.539 65.3304 117.385C65.3304 117.347 65.3606 117.289 65.4265 117.212C65.7627 116.843 66.123 116.483 66.5073 116.138C66.6154 116.051 66.7295 116.003 66.8436 116.003C66.9517 116.003 67.1198 116.071 67.348 116.195C67.6663 116.263 67.8404 116.301 67.8764 116.311C68.0505 116.402 68.1406 116.555 68.1406 116.771C68.1406 116.877 68.1226 116.992 68.0924 117.117ZM78.7748 111.993C78.967 112.084 79.0631 112.18 79.0631 112.281C79.0631 112.358 78.997 112.396 78.8709 112.396C78.8349 112.396 78.7869 112.396 78.7269 112.396C78.6786 112.386 78.6368 112.377 78.6068 112.377C78.3305 112.377 78.0063 112.617 77.622 113.087C77.2677 113.509 76.7873 114.43 76.1808 115.85C76.1326 115.98 76.1088 116.057 76.1088 116.081C76.139 116.119 76.2349 116.138 76.397 116.138C76.8113 116.177 77.3818 116.172 78.1024 116.119C78.3426 116.095 78.4626 116.172 78.4626 116.349C78.4626 116.479 78.3665 116.56 78.1744 116.599C78.0303 116.613 77.2377 116.666 75.7965 116.752C74.9439 118.762 74.4275 120.456 74.2353 121.838C74.2353 121.914 74.2353 121.986 74.2353 122.049C74.2353 122.241 74.2894 122.337 74.4035 122.337C74.5956 122.337 75.1781 121.962 76.1568 121.204C76.2649 121.118 76.379 121.07 76.4931 121.07C76.5891 121.07 76.6433 121.103 76.6613 121.166C76.6915 121.233 76.6612 121.31 76.5652 121.396C75.9887 122.01 75.4183 122.538 74.8599 122.97C74.6197 123.147 74.4275 123.239 74.2834 123.239C74.1213 123.239 73.8751 123.133 73.5388 122.931C73.1365 122.845 72.9383 122.672 72.9383 122.413C72.9383 122.375 72.9441 122.332 72.9622 122.279C73.2144 120.811 73.7308 118.993 74.4994 116.829C74.1271 116.791 73.7848 116.752 73.4666 116.714C73.3345 116.69 73.2744 116.618 73.2744 116.503C73.2744 116.378 73.3465 116.301 73.4906 116.273C73.6347 116.234 73.8989 116.172 74.2832 116.081C74.5234 116.018 74.7516 115.927 74.9798 115.812C75.7304 113.922 76.3309 112.694 76.7812 112.128C77.0214 111.811 77.2857 111.648 77.5739 111.648C77.8441 111.648 78.2464 111.763 78.7748 111.993ZM88.7787 117.232C88.1062 118.69 87.6498 119.918 87.4097 120.916C87.5057 120.83 87.6378 120.7 87.818 120.533C87.9921 120.369 88.1062 120.273 88.1543 120.245C88.2503 120.144 88.3524 120.091 88.4665 120.091C88.5745 120.091 88.6346 120.139 88.6346 120.226C88.6346 120.278 88.6108 120.336 88.5626 120.398C87.8901 121.195 87.4397 122.001 87.2175 122.816C87.1515 123.046 87.0554 123.162 86.9293 123.162C86.7972 123.162 86.569 123.066 86.2327 122.874C86.0406 122.773 85.9325 122.691 85.9205 122.624C85.8723 122.562 85.8723 122.432 85.9205 122.24C86.2087 120.796 86.581 119.592 87.0494 118.633C86.4249 119.439 85.5722 120.331 84.5034 121.3C83.5546 122.159 82.8761 122.701 82.4618 122.931C82.1555 123.094 81.9213 123.181 81.7652 123.181C81.6331 123.181 81.441 123.094 81.1888 122.931C80.8045 122.754 80.6123 122.504 80.6123 122.183C80.6123 122.121 80.6245 122.049 80.6361 121.972C80.7682 121.118 81.2246 120.13 82.0292 119.017C82.8279 117.894 83.7466 116.939 84.7914 116.157C85.1277 115.917 85.4279 115.793 85.7041 115.793C85.9563 115.807 86.4487 116.076 87.1693 116.599C87.2294 116.651 87.2653 116.704 87.2653 116.752C87.2653 116.843 87.1933 116.886 87.0491 116.886C86.9831 116.886 86.929 116.882 86.881 116.867C86.3646 116.69 85.9562 116.695 85.656 116.886C84.9835 117.285 84.2389 117.975 83.4223 118.959C82.4735 120.11 81.9091 121.142 81.7169 122.049C81.6989 122.101 81.6931 122.14 81.6931 122.164C81.6931 122.308 81.7651 122.375 81.9093 122.375C82.1495 122.375 82.4377 122.24 82.774 121.972C83.5726 121.358 84.4373 120.581 85.368 119.631C86.2927 118.647 86.8932 117.913 87.1694 117.424C87.3616 117.054 87.4877 116.79 87.5537 116.637C87.6318 116.383 87.7278 116.253 87.8419 116.253C87.95 116.253 88.2022 116.368 88.5865 116.599C88.7606 116.704 88.8567 116.79 88.8747 116.867C88.8747 116.944 88.8388 117.069 88.7787 117.232ZM98.3923 116.08C98.3923 116.339 98.3023 116.747 98.1282 117.309C98.0621 117.5 97.9901 117.63 97.912 117.692C97.8759 117.721 97.7559 117.764 97.5517 117.827C97.2755 117.903 97.1073 117.942 97.0473 117.942C96.9512 117.942 96.9032 117.884 96.9032 117.769C96.9032 117.707 96.909 117.625 96.927 117.52C97.1011 116.958 97.1672 116.57 97.1191 116.349C97.0831 116.119 97.1732 115.98 97.3833 115.927C97.7316 115.788 97.9598 115.716 98.0559 115.716C98.278 115.716 98.3923 115.841 98.3923 116.08ZM96.663 120.993C96.6932 121.684 96.2186 122.159 95.2458 122.413C95.1137 122.658 94.9936 122.826 94.8856 122.912C94.7235 123.037 94.4832 123.114 94.165 123.142C93.9549 123.152 93.7327 123.147 93.4925 123.123C93.0721 123.071 92.5557 123.008 91.9313 122.931C91.7751 122.907 91.6671 122.826 91.619 122.682C91.655 122.528 91.8592 122.442 92.2435 122.413C92.7419 122.389 93.4805 122.317 94.4773 122.202C94.8616 122.125 95.1318 121.953 95.2939 121.684C95.372 121.559 95.414 121.391 95.414 121.185C95.414 120.83 95.1859 120.197 94.7415 119.285C94.2911 118.393 94.081 117.798 94.117 117.501C94.1771 116.786 95.0117 116.287 96.615 116.004C96.759 115.98 96.8312 116.023 96.8312 116.138C96.8312 116.215 96.7711 116.273 96.663 116.311C95.8944 116.58 95.5101 116.915 95.5101 117.309C95.5101 117.462 95.5403 117.654 95.6062 117.885C95.6842 118.115 95.9004 118.671 96.2546 119.554C96.5249 120.197 96.663 120.676 96.663 120.993ZM104.283 120.993C104.343 121.07 104.271 121.262 104.067 121.569C103.472 122.466 102.986 123.377 102.602 124.313C102.758 124.361 102.704 124.457 102.434 124.601C102.157 124.74 101.905 124.793 101.665 124.754C101.557 124.74 101.497 124.668 101.497 124.543C101.497 124.375 101.611 123.968 101.833 123.315C102.151 122.394 102.464 121.78 102.77 121.473C102.896 121.348 103.058 121.252 103.25 121.185C103.905 121.007 104.247 120.945 104.283 120.993ZM127.173 114.161C126.981 114.776 126.489 115.562 125.708 116.522C124.921 117.481 124.243 118.129 123.666 118.46C123.264 118.69 122.862 118.805 122.465 118.805C122.237 118.805 121.685 118.666 120.808 118.383C120.628 118.335 120.544 118.268 120.544 118.191C120.544 118.076 120.742 118.019 121.144 118.019C121.799 118.019 122.297 117.913 122.634 117.692C123.318 117.285 123.967 116.714 124.579 115.984C125.378 115.063 125.852 114.157 125.996 113.259C126.074 112.775 125.864 112.487 125.372 112.396C125.144 112.357 124.915 112.353 124.675 112.377C123.57 112.43 122.495 112.626 121.457 112.972C120.268 116.426 119.175 119.185 118.166 121.243C118.226 121.233 118.436 121.137 118.79 120.955C118.995 120.854 119.163 120.811 119.295 120.82C119.499 120.849 119.703 121.012 119.895 121.319C120.07 121.564 120.16 121.751 120.16 121.876C120.16 122.029 120.027 122.097 119.775 122.068C119.595 122.058 119.301 122.14 118.887 122.317C118.436 122.509 118.052 122.735 117.734 122.989C117.571 123.114 117.403 123.181 117.229 123.181C116.989 123.181 116.701 123.051 116.365 122.797C116.136 122.634 116.04 122.49 116.076 122.375C116.106 122.274 116.226 122.202 116.437 122.164C118.178 118.94 119.475 115.999 120.328 113.336C117.638 114.31 116.292 115.212 116.292 116.042C116.292 116.157 116.316 116.272 116.364 116.388C116.377 116.44 116.443 116.589 116.557 116.829C116.587 116.896 116.605 116.954 116.605 117.002C116.605 117.155 116.521 117.232 116.365 117.232C116.136 117.232 115.716 116.733 115.092 115.735C114.996 115.61 114.948 115.476 114.948 115.332C114.948 114.987 115.212 114.622 115.74 114.238C116.106 113.97 116.797 113.6 117.806 113.125C118.893 112.641 119.859 112.271 120.712 112.012C120.808 111.734 120.856 111.504 120.856 111.321C120.856 111.106 120.928 110.995 121.072 110.995C121.265 110.995 121.601 111.202 122.081 111.609C123.264 111.341 124.063 111.206 124.483 111.206C125.282 111.221 125.852 111.552 126.188 112.204C126.621 112.463 126.897 112.66 127.029 112.799C127.221 112.981 127.317 113.192 127.317 113.432C127.317 113.615 127.269 113.854 127.173 114.161ZM136.625 116.503C136.625 117.246 136.504 117.956 136.264 118.633C136.18 118.853 136.072 118.959 135.928 118.959C135.832 118.959 135.616 118.844 135.279 118.614C135.099 118.498 135.051 118.335 135.135 118.115C135.34 117.592 135.448 117.174 135.448 116.867C135.448 116.752 135.412 116.695 135.352 116.695C135.268 116.695 135.135 116.8 134.943 117.002C133.454 118.566 132.337 120.302 131.605 122.221C131.364 122.835 131.16 123.142 131.004 123.142C130.938 123.142 130.65 123.046 130.139 122.855C129.899 122.754 129.815 122.562 129.899 122.279C130.458 120.297 131.064 118.628 131.725 117.27C131.196 117.721 130.86 118.028 130.716 118.191C130.65 118.259 130.572 118.287 130.476 118.287C130.362 118.287 130.308 118.244 130.308 118.153C130.308 118.105 130.331 118.047 130.38 117.98C130.728 117.649 131.202 117.136 131.797 116.445C131.971 116.191 132.145 116.061 132.325 116.061C132.451 116.061 132.715 116.148 133.118 116.311C133.34 116.402 133.37 116.522 133.214 116.675C133.052 116.843 132.758 117.433 132.325 118.441C131.905 119.415 131.617 120.182 131.461 120.744C132.433 119.007 133.55 117.472 134.799 116.138C135.021 115.898 135.207 115.773 135.352 115.773C135.478 115.773 135.652 115.841 135.88 115.965C136.18 116.004 136.372 116.042 136.456 116.08C136.565 116.157 136.625 116.301 136.625 116.503ZM147.109 117.52C147.091 118.033 146.941 118.705 146.652 119.535C146.184 120.868 145.524 121.895 144.659 122.624C144.209 123.018 143.71 123.219 143.17 123.219C142.942 123.219 142.665 123.181 142.329 123.104C141.657 123.065 141.11 122.902 140.696 122.605C140.227 122.274 140.011 121.847 140.047 121.319C140.077 120.72 140.341 119.875 140.84 118.786C141.38 117.596 141.945 116.742 142.521 116.215C142.809 115.975 143.038 115.85 143.218 115.85C143.458 115.85 143.848 116.052 144.395 116.445C144.551 116.383 144.863 116.272 145.331 116.119C145.554 116.071 145.728 116.042 145.86 116.042C146.13 116.042 146.442 116.248 146.797 116.656C147.019 116.915 147.121 117.203 147.109 117.52ZM145.86 117.769C145.92 117.385 145.956 117.145 145.956 117.04C145.956 116.8 145.86 116.675 145.668 116.675C145.602 116.675 145.506 116.69 145.379 116.714L143.722 117.251C143.53 117.318 143.416 117.347 143.386 117.347C143.338 117.347 143.278 117.29 143.218 117.174C142.797 117.587 142.413 118.172 142.065 118.94C141.777 119.544 141.584 120.082 141.488 120.552C141.404 120.873 141.368 121.166 141.368 121.435C141.368 122.317 141.705 122.749 142.377 122.72C142.647 122.711 142.942 122.624 143.266 122.471C143.854 122.14 144.419 121.487 144.947 120.513C145.44 119.592 145.746 118.681 145.86 117.769ZM159.929 109.633C160.007 109.685 160.049 109.743 160.049 109.805C160.049 109.92 159.959 109.978 159.785 109.978C159.719 109.978 159.653 109.959 159.593 109.92C159.256 109.781 159.004 109.709 158.848 109.709C158.398 109.709 157.899 110.064 157.359 110.765C155.419 113.274 154.02 116.555 153.156 120.609C153.906 119.611 154.465 118.901 154.837 118.479C155.57 117.625 156.338 116.906 157.143 116.33C157.527 116.052 157.875 115.908 158.2 115.908C158.344 115.908 158.584 115.985 158.92 116.138C159.557 116.383 159.857 116.747 159.809 117.232C159.677 118.345 159.329 119.439 158.752 120.513C158.188 121.55 157.533 122.37 156.783 122.97C156.554 123.133 156.332 123.219 156.11 123.219C155.642 123.219 154.993 122.797 154.164 121.953C154.068 121.852 154.02 121.77 154.02 121.703C154.02 121.617 154.08 121.569 154.212 121.569C154.339 121.569 154.459 121.607 154.573 121.684C154.987 121.981 155.347 122.125 155.654 122.125C155.942 122.125 156.218 121.986 156.494 121.703C156.987 121.204 157.437 120.523 157.839 119.65C158.302 118.681 158.536 117.808 158.536 117.04C158.536 116.747 158.404 116.599 158.152 116.599C158.008 116.599 157.845 116.656 157.671 116.771C156.789 117.385 155.894 118.249 154.981 119.362C154.02 120.566 153.324 121.722 152.891 122.835C152.807 123.037 152.711 123.142 152.603 123.142C152.537 123.142 152.459 123.114 152.363 123.066C151.991 122.874 151.787 122.759 151.739 122.72C151.594 122.605 151.522 122.461 151.522 122.279C151.522 122.193 151.546 122.082 151.594 121.953C152.423 118.307 153.498 115.198 154.813 112.626C155.786 110.707 156.674 109.455 157.479 108.865C157.683 108.712 157.887 108.635 158.08 108.635C158.272 108.635 158.518 108.731 158.824 108.923C159.19 109.167 159.557 109.402 159.929 109.633ZM168.546 113.355C168.654 113.423 168.714 113.499 168.714 113.586C168.714 113.754 168.408 114.008 167.801 114.353C167.381 114.584 166.985 114.67 166.6 114.603C166.39 114.564 166.204 114.502 166.048 114.411C166 114.372 165.958 114.334 165.928 114.296C165.91 114.257 165.91 114.233 165.928 114.219C165.94 114.195 165.982 114.19 166.048 114.2C166.702 113.739 167.135 113.408 167.345 113.202C167.519 113.063 167.639 112.991 167.705 112.991C167.831 112.991 168.113 113.116 168.546 113.355ZM167.033 117.117C166.852 117.884 166.408 119.17 165.688 120.974C165.892 120.82 166.18 120.547 166.552 120.149C166.6 120.101 166.648 120.072 166.696 120.072C166.804 120.072 166.822 120.158 166.745 120.321C166.708 120.389 166.408 120.777 165.832 121.492C165.399 122.044 165.087 122.528 164.895 122.95C164.829 123.075 164.709 123.142 164.535 123.142C164.355 123.142 164.126 123.075 163.838 122.95C163.646 122.874 163.55 122.816 163.55 122.778C163.55 122.739 163.586 122.663 163.67 122.547C164.066 122 164.499 121.089 164.967 119.822C165.411 118.585 165.67 117.664 165.736 117.059C165.748 116.805 165.718 116.675 165.64 116.675C165.574 116.675 165.454 116.742 165.279 116.867L164.631 117.366C164.391 117.534 164.271 117.539 164.271 117.385C164.271 117.347 164.301 117.289 164.367 117.212C164.703 116.843 165.063 116.483 165.448 116.138C165.556 116.051 165.67 116.003 165.784 116.003C165.892 116.003 166.06 116.071 166.288 116.195C166.607 116.262 166.781 116.301 166.817 116.31C166.991 116.402 167.081 116.555 167.081 116.771C167.081 116.877 167.063 116.992 167.033 117.117ZM177.721 111.993C177.913 112.084 178.009 112.18 178.009 112.281C178.009 112.358 177.943 112.396 177.817 112.396C177.781 112.396 177.733 112.396 177.673 112.396C177.625 112.386 177.583 112.377 177.553 112.377C177.277 112.377 176.952 112.617 176.568 113.087C176.214 113.509 175.733 114.43 175.127 115.85C175.079 115.98 175.055 116.057 175.055 116.081C175.085 116.119 175.181 116.138 175.343 116.138C175.758 116.177 176.328 116.172 177.049 116.119C177.289 116.095 177.409 116.172 177.409 116.349C177.409 116.479 177.313 116.56 177.121 116.599C176.977 116.613 176.184 116.666 174.743 116.752C173.89 118.762 173.374 120.456 173.181 121.838C173.181 121.914 173.181 121.986 173.181 122.049C173.181 122.241 173.236 122.337 173.35 122.337C173.542 122.337 174.124 121.962 175.103 121.204C175.211 121.118 175.325 121.07 175.439 121.07C175.535 121.07 175.589 121.103 175.607 121.166C175.638 121.233 175.607 121.31 175.511 121.396C174.935 122.01 174.364 122.538 173.806 122.97C173.566 123.147 173.374 123.239 173.23 123.239C173.067 123.239 172.821 123.133 172.485 122.931C172.083 122.845 171.885 122.672 171.885 122.413C171.885 122.375 171.89 122.332 171.908 122.279C172.161 120.811 172.677 118.993 173.446 116.829C173.073 116.79 172.731 116.752 172.413 116.714C172.281 116.69 172.221 116.618 172.221 116.503C172.221 116.378 172.293 116.301 172.437 116.273C172.581 116.234 172.845 116.172 173.229 116.081C173.47 116.018 173.698 115.927 173.926 115.812C174.677 113.922 175.277 112.694 175.727 112.128C175.968 111.811 176.232 111.648 176.52 111.648C176.79 111.648 177.193 111.763 177.721 111.993ZM187.719 117.232C187.046 118.69 186.59 119.918 186.35 120.916C186.446 120.83 186.578 120.7 186.758 120.533C186.932 120.369 187.046 120.273 187.094 120.245C187.19 120.144 187.293 120.091 187.407 120.091C187.515 120.091 187.575 120.139 187.575 120.225C187.575 120.278 187.551 120.336 187.503 120.398C186.83 121.195 186.38 122.001 186.158 122.816C186.092 123.046 185.996 123.162 185.869 123.162C185.737 123.162 185.509 123.066 185.173 122.874C184.981 122.773 184.873 122.691 184.861 122.624C184.812 122.562 184.812 122.432 184.861 122.24C185.149 120.796 185.521 119.592 185.99 118.633C185.365 119.439 184.512 120.331 183.444 121.3C182.495 122.159 181.816 122.701 181.402 122.931C181.096 123.094 180.862 123.181 180.705 123.181C180.573 123.181 180.381 123.094 180.129 122.931C179.745 122.754 179.552 122.504 179.552 122.183C179.552 122.121 179.565 122.049 179.576 121.972C179.708 121.118 180.165 120.13 180.969 119.017C181.768 117.894 182.687 116.939 183.732 116.157C184.068 115.917 184.368 115.793 184.644 115.793C184.897 115.807 185.389 116.076 186.109 116.599C186.17 116.651 186.206 116.704 186.206 116.752C186.206 116.843 186.133 116.886 185.989 116.886C185.923 116.886 185.869 116.882 185.821 116.867C185.305 116.69 184.896 116.695 184.596 116.886C183.924 117.285 183.179 117.975 182.362 118.959C181.414 120.11 180.849 121.142 180.657 122.049C180.639 122.101 180.633 122.14 180.633 122.164C180.633 122.308 180.705 122.375 180.849 122.375C181.09 122.375 181.378 122.24 181.714 121.972C182.513 121.358 183.377 120.58 184.308 119.631C185.233 118.647 185.833 117.913 186.11 117.424C186.302 117.054 186.428 116.79 186.494 116.637C186.572 116.383 186.668 116.253 186.782 116.253C186.89 116.253 187.142 116.368 187.527 116.599C187.701 116.704 187.797 116.79 187.815 116.867C187.815 116.944 187.779 117.069 187.719 117.232ZM197.333 116.08C197.333 116.339 197.242 116.747 197.068 117.309C197.002 117.5 196.93 117.63 196.852 117.692C196.816 117.721 196.696 117.764 196.492 117.827C196.216 117.903 196.047 117.942 195.987 117.942C195.891 117.942 195.843 117.884 195.843 117.769C195.843 117.707 195.849 117.625 195.867 117.52C196.041 116.958 196.107 116.57 196.059 116.349C196.023 116.119 196.113 115.98 196.324 115.927C196.672 115.788 196.9 115.716 196.996 115.716C197.218 115.716 197.333 115.841 197.333 116.08ZM195.603 120.993C195.633 121.684 195.159 122.159 194.186 122.413C194.054 122.658 193.934 122.826 193.826 122.912C193.664 123.037 193.423 123.114 193.105 123.142C192.895 123.152 192.673 123.147 192.433 123.123C192.012 123.071 191.496 123.008 190.871 122.931C190.715 122.907 190.607 122.826 190.559 122.682C190.595 122.528 190.799 122.442 191.184 122.413C191.682 122.389 192.421 122.317 193.417 122.202C193.802 122.125 194.072 121.953 194.234 121.684C194.312 121.559 194.354 121.391 194.354 121.185C194.354 120.83 194.126 120.197 193.682 119.285C193.231 118.393 193.021 117.798 193.057 117.501C193.117 116.786 193.952 116.287 195.555 116.004C195.699 115.98 195.771 116.023 195.771 116.138C195.771 116.215 195.711 116.273 195.603 116.311C194.835 116.58 194.45 116.915 194.45 117.309C194.45 117.462 194.48 117.654 194.546 117.884C194.624 118.115 194.841 118.671 195.195 119.554C195.465 120.197 195.603 120.676 195.603 120.993ZM203.229 120.993C203.289 121.07 203.217 121.262 203.013 121.569C202.419 122.466 201.932 123.377 201.548 124.313C201.704 124.361 201.65 124.457 201.38 124.601C201.103 124.74 200.851 124.793 200.611 124.754C200.503 124.74 200.443 124.668 200.443 124.543C200.443 124.375 200.557 123.968 200.779 123.315C201.098 122.394 201.41 121.78 201.716 121.473C201.842 121.348 202.004 121.252 202.196 121.185C202.851 121.007 203.193 120.945 203.229 120.993ZM221.844 114.161C221.604 115.826 220.943 117.683 219.874 119.727C218.625 122.135 217.406 123.339 216.223 123.353C215.515 123.353 214.662 123.051 213.653 122.451C213.569 122.404 213.533 122.332 213.533 122.24C213.533 122.049 213.641 121.953 213.87 121.953C213.93 121.953 213.99 121.962 214.038 121.972C214.662 122.231 215.191 122.365 215.623 122.375C216.566 122.389 217.617 121.257 218.769 118.978C219.856 116.781 220.439 114.804 220.523 113.048C220.553 112.487 220.199 112.204 219.466 112.204C219.352 112.204 219.232 112.214 219.106 112.223C218.541 112.29 217.911 112.645 217.208 113.298C216.404 114.017 215.845 114.833 215.527 115.754C215.491 115.883 215.479 115.999 215.479 116.099C215.479 116.32 215.563 116.512 215.743 116.675C215.899 116.819 216.061 116.953 216.223 117.078C216.301 117.145 216.343 117.203 216.343 117.251C216.343 117.366 216.235 117.424 216.031 117.424C215.935 117.424 215.863 117.414 215.815 117.385C215.19 117.092 214.764 116.857 214.542 116.675C214.266 116.445 214.134 116.19 214.134 115.907C214.134 115.639 214.26 115.269 214.518 114.794C214.884 114.103 215.443 113.427 216.199 112.76C216.884 112.122 217.508 111.714 218.073 111.532C218.325 111.446 218.853 111.494 219.658 111.686C219.718 111.638 219.802 111.609 219.898 111.609C220.168 111.609 220.715 111.82 221.531 112.242C221.898 112.434 222 113.077 221.844 114.161ZM233.637 116.733C232.688 118.143 231.98 119.798 231.5 121.703C231.704 121.425 231.944 121.065 232.22 120.628C232.268 120.552 232.328 120.513 232.412 120.513C232.508 120.513 232.556 120.566 232.556 120.667C232.556 120.705 232.544 120.744 232.532 120.782C232.064 121.626 231.764 122.274 231.62 122.72C231.536 122.998 231.428 123.142 231.283 123.142C231.139 123.142 230.857 123.032 230.443 122.816C230.215 122.691 230.143 122.466 230.227 122.144C230.527 120.892 230.887 119.803 231.307 118.882C229.926 120.686 228.767 122.02 227.825 122.874C227.615 123.051 227.392 123.142 227.152 123.142C226.942 123.142 226.702 123.075 226.432 122.95C225.951 122.888 225.711 122.682 225.711 122.336C225.711 122.274 225.711 122.202 225.711 122.125C225.903 120.489 226.276 119.132 226.84 118.057C226.708 118.148 226.528 118.282 226.288 118.46C226.192 118.527 226.119 118.537 226.071 118.499C226.023 118.474 226.035 118.412 226.12 118.307C226.504 117.86 226.726 117.568 226.792 117.424C227.014 116.978 227.249 116.627 227.489 116.368C227.615 116.253 227.753 116.196 227.897 116.196C228.089 116.196 228.377 116.287 228.762 116.464C228.858 116.517 228.906 116.57 228.906 116.618C228.906 116.618 228.822 116.714 228.666 116.906C228.311 117.342 227.933 118.11 227.537 119.209C227.086 120.398 226.864 121.367 226.864 122.106C226.864 122.351 226.924 122.471 227.056 122.471C227.164 122.471 227.351 122.37 227.609 122.164C228.167 121.694 228.966 120.801 230.011 119.496C230.935 118.345 231.5 117.597 231.692 117.251C232.01 116.666 232.268 116.32 232.461 116.215C232.587 116.152 232.707 116.119 232.821 116.119C232.917 116.119 233.109 116.186 233.397 116.311C233.686 116.426 233.83 116.512 233.83 116.56C233.83 116.589 233.794 116.613 233.734 116.637C233.685 116.666 233.649 116.694 233.637 116.733ZM242.734 116.08C242.734 116.339 242.644 116.747 242.47 117.309C242.404 117.5 242.332 117.63 242.254 117.692C242.218 117.721 242.098 117.764 241.894 117.827C241.618 117.903 241.449 117.942 241.389 117.942C241.293 117.942 241.245 117.884 241.245 117.769C241.245 117.707 241.252 117.625 241.269 117.52C241.443 116.958 241.509 116.57 241.461 116.349C241.425 116.119 241.515 115.98 241.725 115.927C242.074 115.788 242.302 115.716 242.398 115.716C242.62 115.716 242.734 115.841 242.734 116.08ZM241.005 120.993C241.035 121.684 240.561 122.159 239.588 122.413C239.456 122.658 239.336 122.826 239.228 122.912C239.066 123.037 238.825 123.114 238.507 123.142C238.297 123.152 238.075 123.147 237.835 123.123C237.414 123.071 236.898 123.008 236.273 122.931C236.117 122.907 236.009 122.826 235.961 122.682C235.997 122.528 236.201 122.442 236.586 122.413C237.084 122.389 237.823 122.317 238.819 122.202C239.204 122.125 239.474 121.953 239.636 121.684C239.714 121.559 239.756 121.391 239.756 121.185C239.756 120.83 239.528 120.197 239.084 119.285C238.633 118.393 238.423 117.798 238.459 117.501C238.519 116.786 239.354 116.287 240.957 116.004C241.101 115.98 241.173 116.023 241.173 116.138C241.173 116.215 241.113 116.273 241.005 116.311C240.237 116.58 239.852 116.915 239.852 117.309C239.852 117.462 239.882 117.654 239.948 117.884C240.026 118.115 240.243 118.671 240.597 119.554C240.867 120.197 241.005 120.676 241.005 120.993ZM252.54 111.993C252.732 112.084 252.828 112.18 252.828 112.281C252.828 112.358 252.762 112.396 252.636 112.396C252.6 112.396 252.552 112.396 252.492 112.396C252.444 112.386 252.402 112.377 252.372 112.377C252.096 112.377 251.772 112.617 251.387 113.087C251.033 113.509 250.553 114.43 249.946 115.85C249.898 115.98 249.874 116.057 249.874 116.081C249.904 116.119 250 116.138 250.162 116.138C250.577 116.177 251.147 116.172 251.868 116.119C252.108 116.095 252.228 116.172 252.228 116.349C252.228 116.479 252.132 116.56 251.94 116.599C251.796 116.613 251.003 116.666 249.562 116.752C248.709 118.762 248.193 120.456 248.001 121.838C248.001 121.914 248.001 121.986 248.001 122.049C248.001 122.241 248.055 122.337 248.169 122.337C248.361 122.337 248.943 121.962 249.922 121.204C250.03 121.118 250.144 121.07 250.258 121.07C250.354 121.07 250.408 121.103 250.426 121.166C250.457 121.233 250.426 121.31 250.33 121.396C249.754 122.01 249.183 122.538 248.625 122.97C248.385 123.147 248.193 123.239 248.048 123.239C247.886 123.239 247.64 123.133 247.304 122.931C246.901 122.845 246.703 122.672 246.703 122.413C246.703 122.375 246.71 122.332 246.727 122.279C246.979 120.811 247.496 118.993 248.264 116.829C247.892 116.79 247.55 116.752 247.232 116.714C247.1 116.69 247.04 116.618 247.04 116.503C247.04 116.378 247.112 116.301 247.256 116.273C247.4 116.234 247.664 116.172 248.048 116.081C248.289 116.018 248.517 115.927 248.745 115.812C249.496 113.922 250.096 112.694 250.546 112.128C250.787 111.811 251.051 111.648 251.339 111.648C251.609 111.648 252.012 111.763 252.54 111.993ZM259.59 113.355C259.698 113.423 259.758 113.499 259.758 113.586C259.758 113.754 259.452 114.008 258.845 114.353C258.425 114.584 258.028 114.67 257.644 114.603C257.434 114.564 257.248 114.502 257.092 114.411C257.043 114.372 257.002 114.334 256.972 114.296C256.953 114.257 256.953 114.233 256.972 114.219C256.984 114.195 257.026 114.19 257.092 114.2C257.746 113.739 258.179 113.408 258.389 113.202C258.563 113.063 258.683 112.991 258.749 112.991C258.875 112.991 259.157 113.116 259.59 113.355ZM258.077 117.117C257.896 117.884 257.452 119.17 256.731 120.974C256.936 120.82 257.224 120.547 257.596 120.149C257.644 120.101 257.692 120.072 257.74 120.072C257.848 120.072 257.866 120.158 257.788 120.321C257.752 120.389 257.452 120.777 256.876 121.492C256.443 122.044 256.131 122.528 255.939 122.95C255.873 123.075 255.753 123.142 255.579 123.142C255.399 123.142 255.17 123.075 254.882 122.95C254.69 122.874 254.594 122.816 254.594 122.778C254.594 122.739 254.63 122.663 254.714 122.547C255.11 122 255.543 121.089 256.011 119.822C256.455 118.585 256.714 117.664 256.78 117.059C256.792 116.805 256.761 116.675 256.684 116.675C256.618 116.675 256.497 116.742 256.323 116.867L255.675 117.366C255.435 117.534 255.314 117.539 255.314 117.385C255.314 117.347 255.345 117.289 255.411 117.212C255.747 116.843 256.107 116.483 256.492 116.138C256.6 116.051 256.714 116.003 256.828 116.003C256.936 116.003 257.104 116.071 257.332 116.195C257.65 116.262 257.825 116.301 257.861 116.31C258.035 116.402 258.125 116.555 258.125 116.771C258.125 116.877 258.106 116.992 258.077 117.117ZM268.759 111.993C268.951 112.084 269.047 112.18 269.047 112.281C269.047 112.358 268.981 112.396 268.855 112.396C268.819 112.396 268.771 112.396 268.711 112.396C268.663 112.386 268.621 112.377 268.591 112.377C268.315 112.377 267.99 112.617 267.606 113.087C267.252 113.509 266.771 114.43 266.165 115.85C266.117 115.98 266.093 116.057 266.093 116.081C266.123 116.119 266.219 116.138 266.381 116.138C266.795 116.177 267.366 116.172 268.086 116.119C268.327 116.095 268.447 116.172 268.447 116.349C268.447 116.479 268.351 116.56 268.159 116.599C268.014 116.613 267.222 116.666 265.781 116.752C264.928 118.762 264.412 120.456 264.219 121.838C264.219 121.914 264.219 121.986 264.219 122.049C264.219 122.241 264.273 122.337 264.388 122.337C264.58 122.337 265.162 121.962 266.141 121.204C266.249 121.118 266.363 121.07 266.477 121.07C266.573 121.07 266.627 121.103 266.645 121.166C266.675 121.233 266.645 121.31 266.549 121.396C265.973 122.01 265.402 122.538 264.844 122.97C264.604 123.147 264.412 123.239 264.267 123.239C264.105 123.239 263.859 123.133 263.523 122.931C263.12 122.845 262.922 122.672 262.922 122.413C262.922 122.375 262.929 122.332 262.946 122.279C263.198 120.811 263.715 118.993 264.483 116.829C264.111 116.79 263.769 116.752 263.451 116.714C263.318 116.69 263.258 116.618 263.258 116.503C263.258 116.378 263.331 116.301 263.475 116.273C263.619 116.234 263.883 116.172 264.267 116.081C264.507 116.018 264.736 115.927 264.964 115.812C265.714 113.922 266.315 112.694 266.765 112.128C267.005 111.811 267.27 111.648 267.558 111.648C267.828 111.648 268.231 111.763 268.759 111.993ZM275.809 113.355C275.917 113.423 275.977 113.499 275.977 113.586C275.977 113.754 275.67 114.008 275.064 114.353C274.644 114.584 274.247 114.67 273.863 114.603C273.653 114.564 273.467 114.502 273.311 114.411C273.262 114.372 273.221 114.334 273.19 114.296C273.172 114.257 273.172 114.233 273.19 114.219C273.203 114.195 273.244 114.19 273.311 114.2C273.965 113.739 274.397 113.408 274.608 113.202C274.782 113.063 274.902 112.991 274.968 112.991C275.094 112.991 275.376 113.116 275.809 113.355ZM274.295 117.117C274.115 117.884 273.671 119.17 272.95 120.974C273.154 120.82 273.443 120.547 273.815 120.149C273.863 120.101 273.911 120.072 273.959 120.072C274.067 120.072 274.085 120.158 274.007 120.321C273.971 120.389 273.671 120.777 273.095 121.492C272.662 122.044 272.35 122.528 272.158 122.95C272.092 123.075 271.972 123.142 271.798 123.142C271.617 123.142 271.389 123.075 271.101 122.95C270.909 122.874 270.813 122.816 270.813 122.778C270.813 122.739 270.849 122.663 270.933 122.547C271.329 122 271.761 121.089 272.23 119.822C272.674 118.585 272.932 117.664 272.998 117.059C273.011 116.805 272.98 116.675 272.902 116.675C272.836 116.675 272.716 116.742 272.542 116.867L271.894 117.366C271.653 117.534 271.533 117.539 271.533 117.385C271.533 117.347 271.563 117.289 271.629 117.212C271.966 116.843 272.326 116.483 272.71 116.138C272.818 116.051 272.932 116.003 273.047 116.003C273.155 116.003 273.323 116.071 273.551 116.195C273.869 116.262 274.043 116.301 274.079 116.31C274.254 116.402 274.344 116.555 274.344 116.771C274.344 116.877 274.325 116.992 274.295 117.117ZM286.395 117.232C285.722 118.69 285.266 119.918 285.026 120.916C285.122 120.83 285.254 120.7 285.434 120.533C285.608 120.369 285.722 120.273 285.77 120.245C285.867 120.144 285.969 120.091 286.083 120.091C286.191 120.091 286.251 120.139 286.251 120.226C286.251 120.278 286.227 120.336 286.179 120.398C285.506 121.195 285.056 122.001 284.834 122.816C284.768 123.046 284.671 123.162 284.545 123.162C284.413 123.162 284.185 123.066 283.849 122.874C283.657 122.773 283.548 122.691 283.536 122.624C283.488 122.562 283.488 122.432 283.536 122.241C283.825 120.796 284.197 119.592 284.665 118.633C284.041 119.439 283.188 120.331 282.119 121.3C281.171 122.159 280.492 122.701 280.078 122.931C279.772 123.094 279.537 123.181 279.381 123.181C279.249 123.181 279.057 123.094 278.805 122.931C278.42 122.754 278.228 122.504 278.228 122.183C278.228 122.121 278.241 122.049 278.252 121.972C278.384 121.118 278.841 120.13 279.645 119.017C280.444 117.894 281.363 116.939 282.407 116.157C282.744 115.917 283.044 115.793 283.32 115.793C283.572 115.807 284.065 116.076 284.785 116.599C284.845 116.651 284.881 116.704 284.881 116.752C284.881 116.843 284.809 116.886 284.665 116.886C284.599 116.886 284.545 116.882 284.497 116.867C283.981 116.69 283.572 116.695 283.272 116.886C282.6 117.285 281.855 117.976 281.038 118.959C280.09 120.11 279.525 121.142 279.333 122.049C279.315 122.101 279.309 122.14 279.309 122.164C279.309 122.308 279.381 122.375 279.525 122.375C279.766 122.375 280.054 122.24 280.39 121.972C281.189 121.358 282.053 120.581 282.984 119.631C283.909 118.647 284.509 117.913 284.786 117.424C284.978 117.054 285.104 116.79 285.17 116.637C285.248 116.383 285.344 116.253 285.458 116.253C285.566 116.253 285.818 116.368 286.203 116.599C286.377 116.704 286.473 116.79 286.491 116.867C286.491 116.944 286.455 117.069 286.395 117.232Z" fill="url(#paint1_radial_3097_2908)"/>
<path d="M6.23605 90.849C6.23605 93.714 7.0506 95.1745 8.08986 96.0874C9.57852 97.3935 11.6992 97.4356 12.7665 97.4356C14.1007 97.4356 15.6595 97.225 17.092 96.0172C18.8194 94.5987 19.0582 92.2674 19.0582 90.0625V87.9419C19.0582 84.9365 19.0721 84.3888 19.1003 83.7568C19.1424 83.0546 19.2829 82.7737 19.8446 82.6894C20.0974 82.6333 20.2098 82.6192 20.4485 82.6192C20.6873 82.6192 20.7996 82.549 20.7996 82.4086C20.7996 82.2681 20.6592 82.226 20.3783 82.226C19.5919 82.226 18.2155 82.2681 17.9768 82.2681C17.9629 82.2681 16.5864 82.226 15.5331 82.226C15.2663 82.226 15.1259 82.2681 15.1259 82.4086C15.1259 82.549 15.2382 82.6192 15.4629 82.6192C15.7017 82.6192 16.0528 82.6333 16.2073 82.6894C16.8673 82.872 17.0218 83.0827 17.078 83.7568C17.0919 84.3888 17.1201 84.9365 17.1201 87.9419V90.4277C17.1201 92.464 17.078 94.1774 15.9404 95.2448C15.1259 96.0453 14.0726 96.298 13.1878 96.298C12.4856 96.298 11.5166 96.2278 10.6037 95.5116C9.6066 94.7111 9.04485 93.6016 9.04485 90.7085V87.9419C9.04485 84.9365 9.04484 84.3888 9.08696 83.7568C9.14315 83.0546 9.29762 82.7737 9.8313 82.6894C10.0981 82.6333 10.2105 82.6192 10.4492 82.6192C10.6458 82.6192 10.7722 82.549 10.7722 82.4086C10.7722 82.2681 10.6318 82.226 10.3228 82.226C9.57848 82.226 8.20218 82.2681 7.69659 82.2681C7.0927 82.2681 5.7164 82.226 4.62097 82.226C4.32604 82.226 4.18561 82.2681 4.18561 82.4086C4.18561 82.549 4.29795 82.6192 4.53671 82.6192C4.81758 82.6192 5.15464 82.6333 5.32317 82.6894C5.96919 82.872 6.16581 83.0546 6.20794 83.7568C6.25007 84.3888 6.23614 84.9365 6.23614 87.9419L6.23605 90.849ZM25.3815 86.4111H25.4517C25.8449 86.7622 28.0077 89.1497 30.2407 91.2984C32.3894 93.3629 34.9454 95.8065 36.2234 97.0002C36.4341 97.2109 36.7149 97.4216 37.066 97.4216C37.2346 97.4216 37.3891 97.2249 37.3891 96.7896L37.6278 84.3186C37.6418 83.195 37.8104 82.8439 38.3722 82.6894C38.6249 82.6192 38.7935 82.6192 39.0041 82.6192C39.2289 82.6192 39.3412 82.5209 39.3412 82.4086C39.3412 82.24 39.1586 82.226 38.8777 82.226C37.8806 82.226 37.1082 82.2681 36.8835 82.2681C36.4341 82.2681 35.3387 82.226 34.2713 82.226C33.9764 82.226 33.7657 82.24 33.7657 82.4086C33.7657 82.5209 33.836 82.6192 34.0887 82.6192C34.3696 82.6192 34.8612 82.6192 35.1561 82.7316C35.6476 82.9142 35.8302 83.2653 35.8583 84.473L36.0689 93.2786H35.9706C35.6757 92.9977 32.9512 90.203 31.5468 88.8267C28.5695 85.9196 25.4938 82.7737 25.241 82.5209C24.8899 82.1698 24.6091 81.8749 24.3563 81.8749C24.1456 81.8749 24.0052 82.1558 24.0052 82.549L23.8226 94.2757C23.7944 95.9891 23.7384 96.5368 23.1906 96.6772C22.9238 96.7334 22.5446 96.7615 22.2637 96.7615C22.0812 96.7615 21.9407 96.8598 21.9407 96.9722C21.9407 97.1547 22.1233 97.1828 22.4042 97.1828C23.4575 97.1828 24.4265 97.1126 24.6091 97.1126C24.9883 97.1126 25.9433 97.1828 27.2634 97.1828C27.5443 97.1828 27.7409 97.1407 27.7409 96.9722C27.7409 96.8598 27.6145 96.7615 27.3898 96.7615C27.0527 96.7615 26.6595 96.7333 26.3084 96.6211C25.9151 96.4807 25.6624 96.0172 25.6202 94.4864L25.3815 86.4111ZM43.916 91.4388C43.916 93.3488 43.916 94.9217 43.8177 95.7363C43.7475 96.3261 43.6351 96.607 43.2138 96.6913C43.0312 96.7334 42.7925 96.7615 42.4976 96.7615C42.2307 96.7615 42.1605 96.8738 42.1605 96.9722C42.1605 97.1126 42.3009 97.1828 42.5678 97.1828C43.3683 97.1828 44.7727 97.1126 45.2361 97.1126C45.7979 97.1126 47.1882 97.1828 48.5364 97.1828C48.7752 97.1828 48.9437 97.1126 48.9437 96.9722C48.9437 96.8738 48.8454 96.7615 48.6067 96.7615C48.3117 96.7615 47.8483 96.7333 47.5674 96.6913C46.9635 96.607 46.8231 96.298 46.7529 95.7644C46.6546 94.9217 46.6546 93.3488 46.6546 91.4388V87.9419C46.6546 84.9365 46.6546 84.3888 46.6967 83.7568C46.7528 83.0546 46.9073 82.7737 47.4691 82.6894C47.7079 82.6333 47.8623 82.6192 48.073 82.6192C48.2836 82.6192 48.396 82.5631 48.396 82.3805C48.396 82.2681 48.2415 82.226 47.9887 82.226C47.1882 82.226 45.8681 82.2681 45.3485 82.2681C44.7727 82.2681 43.3683 82.226 42.6099 82.226C42.2869 82.226 42.1184 82.2681 42.1184 82.3805C42.1184 82.5631 42.2307 82.6192 42.4414 82.6192C42.6942 82.6192 42.961 82.6333 43.1857 82.7035C43.6351 82.8439 43.8458 83.0827 43.8879 83.7568C43.9161 84.3888 43.9161 84.9365 43.9161 87.9419L43.916 91.4388ZM56.6188 96.2559C57.012 97.1828 57.1805 97.4356 57.4614 97.4356C57.7282 97.4356 57.9248 97.1407 58.4304 95.9891C58.8939 94.992 59.8489 92.8292 61.1549 89.9502C62.2785 87.5206 62.8121 86.4532 63.6267 84.5994C64.1604 83.3355 64.4412 83.0405 64.694 82.8439C65.0451 82.5911 65.4805 82.6192 65.6912 82.6192C65.9018 82.6192 66.0141 82.549 66.0141 82.4086C66.0141 82.2681 65.8597 82.226 65.6069 82.226C64.9749 82.226 64.0199 82.2681 63.6688 82.2681C63.416 82.2681 62.5032 82.226 61.478 82.226C61.0847 82.226 60.9021 82.2681 60.9021 82.4086C60.9021 82.549 61.0566 82.6192 61.2532 82.6192C61.506 82.6192 61.829 82.6333 62.0678 82.7035C62.2504 82.7737 62.3487 82.8439 62.3487 83.0546C62.3487 83.2231 62.2504 83.518 62.152 83.7849C61.6605 85.0769 59.0343 91.4529 58.1495 93.5033H58.0793L54.6386 84.6416C54.3577 83.9394 54.1751 83.4057 54.1751 83.1529C54.1751 82.9703 54.2453 82.8439 54.3858 82.7597C54.5403 82.6333 54.8492 82.6192 55.1722 82.6192C55.3548 82.6192 55.4952 82.549 55.4952 82.4086C55.4952 82.2681 55.2705 82.226 55.0177 82.226C53.9925 82.226 52.9111 82.2681 52.4056 82.2681C51.6893 82.2681 50.5237 82.226 49.4282 82.226C49.1193 82.226 48.9086 82.24 48.9086 82.4086C48.9086 82.5209 48.9648 82.6192 49.1474 82.6192C49.3159 82.6192 49.6389 82.6192 49.9338 82.6894C50.6781 82.872 50.9871 83.0546 51.4506 84.15L56.6188 96.2559ZM68.212 91.4388C68.212 93.2505 68.212 94.8094 68.1137 95.652C68.0435 96.2278 67.9312 96.607 67.5098 96.6913C67.3273 96.7334 67.0885 96.7615 66.7936 96.7615C66.5268 96.7615 66.4565 96.8738 66.4565 96.9722C66.4565 97.1126 66.597 97.1828 66.8638 97.1828C67.2711 97.1828 67.7907 97.1546 68.2822 97.1407C68.7597 97.1407 69.2092 97.1125 69.4339 97.1125C70.0518 97.1125 70.8102 97.1407 71.8073 97.1546C72.8185 97.2108 74.0543 97.2248 75.5851 97.2248C76.3575 97.2248 76.5401 97.2248 76.6805 96.7192C76.7929 96.326 76.9614 94.9778 76.9614 94.5284C76.9614 94.3177 76.9332 94.0649 76.7648 94.0649C76.6244 94.0649 76.5822 94.1632 76.5401 94.3599C76.3996 95.1744 76.1609 95.5957 75.6553 95.8345C75.1216 96.0592 74.2509 96.0872 73.7172 96.0872C71.6247 96.0872 70.9927 95.7923 70.9506 94.4301C70.9224 93.8543 70.9506 92.183 70.9506 91.5089V89.922C70.9506 89.8096 70.9788 89.7113 71.0629 89.7113C71.5825 89.7113 73.9138 89.7534 74.279 89.8096C75.0514 89.8798 75.3042 90.1747 75.4166 90.568C75.4727 90.8348 75.4727 91.0876 75.4868 91.2983C75.4868 91.3825 75.5429 91.4527 75.6834 91.4527C75.8659 91.4527 75.88 91.1719 75.88 91.0174C75.88 90.8769 75.9362 90.0905 75.9783 89.6832C76.0907 88.6861 76.1469 88.3631 76.1469 88.2507C76.1469 88.1243 76.0766 88.0401 75.9783 88.0401C75.88 88.0401 75.8098 88.1524 75.6553 88.2928C75.4727 88.5035 75.1638 88.5456 74.6722 88.6018C74.2088 88.6439 71.5545 88.6439 71.091 88.6439C70.9787 88.6439 70.9506 88.5456 70.9506 88.4333V83.5461C70.9506 83.4338 70.9927 83.3636 71.091 83.3636C71.5123 83.3636 73.956 83.4057 74.3071 83.4478C75.3323 83.5461 75.4868 83.827 75.6553 84.1781C75.7676 84.4028 75.7957 84.7539 75.7957 84.8943C75.7957 85.0629 75.8097 85.1471 75.9502 85.1471C76.1187 85.1471 76.1609 84.9224 76.189 84.8241C76.2311 84.5994 76.2873 83.7287 76.3013 83.518C76.3574 82.6192 76.4698 82.3805 76.4698 82.24C76.4698 82.1558 76.4416 82.0575 76.3294 82.0575C76.2311 82.0575 76.1187 82.1277 76.0064 82.1558C75.8379 82.1698 75.5148 82.24 75.1357 82.2681C74.7424 82.2821 70.2062 82.2681 69.5602 82.2681C68.9704 82.2681 67.6643 82.226 66.5969 82.226C66.302 82.226 66.1335 82.2681 66.1335 82.4086C66.1335 82.549 66.2739 82.6192 66.4846 82.6192C66.7936 82.6192 67.1306 82.6332 67.2991 82.6894C67.9452 82.872 68.1418 83.0827 68.1839 83.7568C68.2121 84.3888 68.2121 84.9365 68.2121 87.9419L68.212 91.4388ZM81.1535 91.4388C81.1535 93.2505 81.1536 94.8094 81.0552 95.652C80.985 96.2278 80.8727 96.607 80.4513 96.6913C80.2688 96.7334 80.03 96.7615 79.7351 96.7615C79.4683 96.7615 79.398 96.8738 79.398 96.9722C79.398 97.1126 79.5385 97.1828 79.8053 97.1828C80.6058 97.1828 81.9119 97.1126 82.3052 97.1126C82.6141 97.1126 84.3134 97.1828 85.4931 97.1828C85.76 97.1828 85.9144 97.1126 85.9144 96.9722C85.9144 96.8738 85.8302 96.7615 85.6617 96.7615C85.4089 96.7615 84.9595 96.7333 84.6646 96.6913C84.0326 96.607 83.9343 96.2278 83.864 95.652C83.7798 94.8094 83.7517 93.2786 83.7517 91.4388V91.158C83.7517 91.0456 83.8219 90.9894 83.9202 90.9894L85.76 91.0456C85.9004 91.0456 86.0128 91.0596 86.1251 91.172C86.3779 91.481 87.2486 92.8011 88.0632 93.8825C89.2008 95.4133 89.9732 96.3402 90.8579 96.7896C91.3916 97.0705 91.9393 97.1828 93.0909 97.1828H95.0431C95.2958 97.1828 95.4363 97.1407 95.4363 96.9722C95.4363 96.8738 95.338 96.7615 95.1835 96.7615C95.015 96.7615 94.9026 96.7615 94.692 96.7194C94.3689 96.6492 93.6386 96.5509 92.5011 95.4133C91.2652 94.1774 89.8327 92.3938 88.007 90.1608C90.0153 88.5458 90.8579 87.2397 90.8579 85.7791C90.8579 84.459 89.9872 83.4478 89.4114 83.0546C88.316 82.3383 86.8273 82.226 85.5212 82.226C84.8892 82.226 83.0354 82.2681 82.3333 82.2681C81.9119 82.2681 80.6058 82.226 79.5385 82.226C79.2436 82.226 79.0751 82.2681 79.0751 82.4086C79.0751 82.549 79.2155 82.6192 79.4261 82.6192C79.7351 82.6192 80.0722 82.6333 80.2407 82.6894C80.8867 82.872 81.0833 83.0827 81.1255 83.7568C81.1537 84.3888 81.1537 84.9365 81.1537 87.9419L81.1535 91.4388ZM83.7517 83.5883C83.7517 83.4338 83.8078 83.3636 83.9342 83.3074C84.1449 83.2652 84.6364 83.2372 85.1561 83.2372C86.3638 83.2372 88.2738 83.9675 88.2738 86.7622C88.2738 88.3913 87.5716 89.248 86.9396 89.6833C86.5885 89.9502 86.3077 90.0204 85.4931 90.0204C84.9875 90.0204 84.3836 89.9642 83.9342 89.8238C83.8078 89.7536 83.7517 89.6833 83.7517 89.4867V83.5883ZM98.9718 97.4356C100.067 97.4356 101.415 97.3233 102.399 96.6211C103.887 95.5818 104.435 94.3881 104.435 92.9275C104.435 91.1299 103.606 89.6131 100.91 88.1245L100.067 87.661C98.2275 86.6358 97.9045 85.9476 97.9045 85.0629C97.9045 83.7147 99.2246 82.9422 100.699 82.9422C102.019 82.9422 102.665 83.504 102.974 83.8691C103.424 84.3888 103.508 84.9927 103.508 85.1752C103.508 85.414 103.578 85.5263 103.719 85.5263C103.887 85.5263 103.971 85.3157 103.971 84.8943C103.971 83.3355 104.042 82.7737 104.042 82.5209C104.042 82.3805 103.957 82.3103 103.761 82.2681C103.227 82.1277 102.188 81.9451 100.854 81.9451C98.0169 81.9451 95.6856 83.504 95.6856 85.9196C95.6856 87.661 96.4861 88.9952 98.9016 90.4136L100.095 91.1018C101.907 92.1832 102.118 93.0398 102.118 93.8965C102.118 95.3009 101.036 96.4104 99.2808 96.4104C97.9888 96.4104 96.458 95.9189 96.0226 94.4583C95.8962 94.1072 95.826 93.6859 95.826 93.4331C95.826 93.2926 95.8121 93.1101 95.6153 93.1101C95.4608 93.1101 95.3626 93.3207 95.3626 93.6156C95.3486 93.9527 95.2502 95.1745 95.2502 96.2559C95.2502 96.6913 95.3204 96.7896 95.6434 96.93C96.5282 97.3233 97.7921 97.4356 98.9718 97.4356ZM108.869 91.4388C108.869 93.3488 108.869 94.9217 108.771 95.7363C108.701 96.3261 108.588 96.607 108.167 96.6913C107.985 96.7334 107.746 96.7615 107.451 96.7615C107.184 96.7615 107.114 96.8738 107.114 96.9722C107.114 97.1126 107.254 97.1828 107.521 97.1828C108.322 97.1828 109.726 97.1126 110.189 97.1126C110.751 97.1126 112.142 97.1828 113.49 97.1828C113.729 97.1828 113.897 97.1126 113.897 96.9722C113.897 96.8738 113.799 96.7615 113.56 96.7615C113.265 96.7615 112.802 96.7333 112.521 96.6913C111.917 96.607 111.776 96.298 111.706 95.7644C111.608 94.9217 111.608 93.3488 111.608 91.4388V87.9419C111.608 84.9365 111.608 84.3888 111.65 83.7568C111.706 83.0546 111.861 82.7737 112.422 82.6894C112.661 82.6333 112.816 82.6192 113.026 82.6192C113.237 82.6192 113.349 82.5631 113.349 82.3805C113.349 82.2681 113.195 82.226 112.942 82.226C112.142 82.226 110.821 82.2681 110.302 82.2681C109.726 82.2681 108.322 82.226 107.563 82.226C107.24 82.226 107.072 82.2681 107.072 82.3805C107.072 82.5631 107.184 82.6192 107.395 82.6192C107.647 82.6192 107.914 82.6333 108.139 82.7035C108.588 82.8439 108.799 83.0827 108.841 83.7568C108.869 84.3888 108.869 84.9365 108.869 87.9419L108.869 91.4388ZM121.052 91.4388C121.052 93.2505 121.052 94.8094 120.968 95.652C120.898 96.2278 120.786 96.607 120.364 96.6913C120.196 96.7334 119.943 96.7615 119.634 96.7615C119.381 96.7615 119.311 96.8738 119.311 96.9722C119.311 97.1126 119.451 97.1828 119.704 97.1828C120.519 97.1828 121.923 97.1126 122.387 97.1126C122.962 97.1126 124.339 97.1828 125.687 97.1828C125.926 97.1828 126.08 97.1126 126.08 96.9722C126.08 96.8738 125.996 96.7615 125.757 96.7615C125.462 96.7615 124.999 96.7333 124.718 96.6913C124.114 96.607 123.988 96.2278 123.917 95.6661C123.833 94.8094 123.805 93.2505 123.805 91.4388V83.4338L126.389 83.4759C128.229 83.504 128.763 84.1079 128.805 84.6135L128.833 84.8241C128.861 85.1331 128.903 85.2174 129.058 85.2174C129.184 85.2174 129.226 85.105 129.254 84.8944C129.254 84.3888 129.297 82.9142 129.297 82.4928C129.297 82.1979 129.268 82.0856 129.128 82.0856C129.058 82.0856 128.903 82.1277 128.58 82.1698C128.271 82.226 127.836 82.2681 127.176 82.2681H118.876C118.202 82.2681 117.429 82.24 116.826 82.1698C116.306 82.0996 116.109 81.9451 115.941 81.9451C115.828 81.9451 115.758 82.0575 115.702 82.3103C115.66 82.4788 115.267 84.3888 115.267 84.7118C115.267 84.9224 115.309 85.0348 115.449 85.0348C115.59 85.0348 115.632 84.9365 115.688 84.782C115.73 84.6416 115.828 84.3888 116.039 84.1079C116.334 83.6585 116.825 83.518 118.005 83.504L121.053 83.4338L121.052 91.4388ZM137.379 92.1972C137.463 92.1972 137.533 92.2253 137.575 92.3376L139.162 96.3261C139.26 96.5509 139.12 96.7334 138.98 96.7615C138.769 96.7897 138.727 96.8598 138.727 96.9722C138.727 97.1126 138.951 97.1126 139.331 97.1407C141.044 97.1828 142.533 97.1828 143.263 97.1828C144.021 97.1828 144.148 97.1407 144.148 96.9722C144.148 96.8317 144.049 96.7615 143.867 96.7615C143.628 96.7615 143.403 96.7333 143.094 96.6913C142.729 96.6211 142.139 96.3683 141.353 94.5706C140.047 91.5793 136.634 83.4759 136.143 82.3805C135.932 81.9451 135.834 81.7485 135.539 81.7485C135.328 81.7485 135.16 81.9873 134.935 82.549L129.57 94.992C129.163 95.9891 128.812 96.607 127.885 96.7334C127.688 96.7334 127.464 96.7616 127.267 96.7616C127.112 96.7616 127.042 96.8599 127.042 96.9723C127.042 97.1408 127.154 97.1829 127.407 97.1829C128.489 97.1829 129.57 97.1127 129.781 97.1127C130.441 97.1127 131.396 97.1829 132.07 97.1829C132.281 97.1829 132.393 97.1408 132.393 96.9723C132.393 96.8599 132.351 96.7616 132.084 96.7616H131.789C131.157 96.7616 130.974 96.551 130.974 96.1999C130.974 95.9751 131.073 95.4836 131.269 94.9921L132.365 92.3378C132.421 92.2254 132.435 92.1973 132.561 92.1973L137.379 92.1972ZM132.969 91.1018C132.899 91.1018 132.856 91.0597 132.899 90.9754L134.879 85.9617C134.907 85.8915 134.935 85.7791 135.005 85.7791C135.047 85.7791 135.075 85.8915 135.089 85.9617L137.027 90.9894C137.041 91.0597 137.027 91.1018 136.929 91.1018H132.969ZM148.357 97.4356C149.453 97.4356 150.801 97.3233 151.784 96.6211C153.273 95.5818 153.821 94.3881 153.821 92.9275C153.821 91.1299 152.992 89.6131 150.295 88.1245L149.453 87.661C147.613 86.6358 147.29 85.9476 147.29 85.0629C147.29 83.7147 148.61 82.9422 150.085 82.9422C151.405 82.9422 152.051 83.504 152.36 83.8691C152.809 84.3888 152.894 84.9927 152.894 85.1752C152.894 85.414 152.964 85.5263 153.104 85.5263C153.273 85.5263 153.357 85.3157 153.357 84.8943C153.357 83.3355 153.427 82.7737 153.427 82.5209C153.427 82.3805 153.343 82.3103 153.146 82.2681C152.613 82.1277 151.573 81.9451 150.239 81.9451C147.402 81.9451 145.071 83.504 145.071 85.9196C145.071 87.661 145.872 88.9952 148.287 90.4136L149.481 91.1018C151.293 92.1832 151.503 93.0398 151.503 93.8965C151.503 95.3009 150.422 96.4104 148.666 96.4104C147.374 96.4104 145.844 95.9189 145.408 94.4583C145.282 94.1072 145.212 93.6859 145.212 93.4331C145.212 93.2926 145.198 93.1101 145.001 93.1101C144.846 93.1101 144.748 93.3207 144.748 93.6156C144.734 93.9527 144.636 95.1745 144.636 96.2559C144.636 96.6913 144.706 96.7896 145.029 96.93C145.914 97.3233 147.178 97.4356 148.357 97.4356Z" fill="url(#paint2_radial_3097_2908)"/>
<path d="M167.301 91.4388L167.301 87.9419C167.301 84.9365 167.301 84.3887 167.273 83.7568C167.23 83.0827 167.02 82.8439 166.57 82.7035C166.346 82.6332 166.079 82.6192 165.826 82.6192C165.615 82.6192 165.503 82.563 165.503 82.3805C165.503 82.2681 165.672 82.226 165.995 82.226C166.753 82.226 168.157 82.2681 168.733 82.2681C169.253 82.2681 170.573 82.226 171.373 82.226C171.626 82.226 171.781 82.2681 171.781 82.3805C171.781 82.563 171.668 82.6192 171.458 82.6192C171.247 82.6192 171.092 82.6333 170.854 82.6894C170.292 82.7737 170.138 83.0546 170.081 83.7568C170.039 84.3888 170.039 84.9365 170.039 87.9419V91.4388C170.039 93.3488 170.039 94.9217 170.138 95.7644C170.208 96.298 170.348 96.607 170.952 96.6913C171.233 96.7333 171.696 96.7615 171.991 96.7615C172.23 96.7615 172.328 96.8738 172.328 96.9721C172.328 97.1126 172.16 97.1828 171.921 97.1828C170.573 97.1828 169.183 97.1126 168.621 97.1126C168.157 97.1126 166.753 97.1828 165.952 97.1828C165.686 97.1828 165.545 97.1126 165.545 96.9721C165.545 96.8738 165.615 96.7615 165.882 96.7615C166.177 96.7615 166.416 96.7334 166.598 96.6913C167.02 96.607 167.132 96.3261 167.202 95.7363C167.301 94.9217 167.301 93.3488 167.301 91.4388Z" fill="url(#paint3_radial_3097_2908)"/>
<path d="M179.793 86.4111H179.723L179.961 94.4864C180.003 96.0172 180.256 96.4806 180.649 96.621C181.001 96.7333 181.394 96.7615 181.731 96.7615C181.955 96.7615 182.082 96.8598 182.082 96.9721C182.082 97.1407 181.885 97.1828 181.604 97.1828C180.284 97.1828 179.329 97.1126 178.95 97.1126C178.768 97.1126 177.798 97.1828 176.745 97.1828C176.464 97.1828 176.282 97.1547 176.282 96.9721C176.282 96.8598 176.422 96.7615 176.605 96.7615C176.886 96.7615 177.265 96.7334 177.532 96.6772C178.079 96.5368 178.135 95.9891 178.164 94.2757L178.346 82.549C178.346 82.1558 178.487 81.8749 178.697 81.8749C178.95 81.8749 179.231 82.1698 179.582 82.5209C179.835 82.7737 182.91 85.9196 185.888 88.8267C187.292 90.203 190.017 92.9977 190.312 93.2786H190.41L190.199 84.473C190.171 83.2652 189.989 82.9141 189.497 82.7316C189.202 82.6192 188.711 82.6192 188.43 82.6192C188.177 82.6192 188.107 82.5209 188.107 82.4086C188.107 82.2399 188.317 82.226 188.612 82.226C189.68 82.226 190.775 82.2681 191.225 82.2681C191.449 82.2681 192.222 82.226 193.219 82.226C193.5 82.226 193.682 82.24 193.682 82.4086C193.682 82.5209 193.57 82.6192 193.345 82.6192C193.134 82.6192 192.966 82.6192 192.713 82.6894C192.151 82.8439 191.983 83.195 191.969 84.3185L191.73 96.7896C191.73 97.2249 191.576 97.4216 191.407 97.4216C191.056 97.4216 190.775 97.2109 190.564 97.0002C189.286 95.8065 186.73 93.3629 184.582 91.2984C182.349 89.1497 180.186 86.7622 179.793 86.4111Z" fill="url(#paint4_radial_3097_2908)"/>
<path d="M242.98 86.4111H242.91L243.149 94.4864C243.191 96.0172 243.443 96.4806 243.837 96.621C244.188 96.7333 244.581 96.7615 244.918 96.7615C245.143 96.7615 245.269 96.8598 245.269 96.9721C245.269 97.1407 245.073 97.1828 244.792 97.1828C243.472 97.1828 242.517 97.1126 242.137 97.1126C241.955 97.1126 240.986 97.1828 239.932 97.1828C239.652 97.1828 239.469 97.1547 239.469 96.9721C239.469 96.8598 239.609 96.7615 239.792 96.7615C240.073 96.7615 240.452 96.7334 240.719 96.6772C241.267 96.5368 241.323 95.9891 241.351 94.2757L241.533 82.549C241.533 82.1558 241.674 81.8749 241.885 81.8749C242.137 81.8749 242.418 82.1698 242.769 82.5209C243.022 82.7737 246.098 85.9196 249.075 88.8267C250.48 90.203 253.204 92.9977 253.499 93.2786H253.597L253.387 84.473C253.358 83.2652 253.176 82.9141 252.684 82.7316C252.389 82.6192 251.898 82.6192 251.617 82.6192C251.364 82.6192 251.294 82.5209 251.294 82.4086C251.294 82.2399 251.505 82.226 251.8 82.226C252.867 82.226 253.962 82.2681 254.412 82.2681C254.637 82.2681 255.409 82.226 256.406 82.226C256.687 82.226 256.869 82.24 256.869 82.4086C256.869 82.5209 256.757 82.6192 256.532 82.6192C256.322 82.6192 256.153 82.6192 255.9 82.6894C255.339 82.8439 255.17 83.195 255.156 84.3185L254.917 96.7896C254.917 97.2249 254.763 97.4216 254.594 97.4216C254.243 97.4216 253.962 97.2109 253.752 97.0002C252.474 95.8065 249.918 93.3629 247.769 91.2984C245.536 89.1497 243.373 86.7622 242.98 86.4111Z" fill="url(#paint5_radial_3097_2908)"/>
<path d="M263.351 91.4388L263.351 87.9386C263.351 84.9361 263.351 84.3886 263.323 83.7568C263.281 83.0827 263.084 82.872 262.438 82.6895C262.269 82.6332 261.932 82.6193 261.623 82.6193C261.413 82.6193 261.272 82.549 261.272 82.4086C261.272 82.2682 261.441 82.226 261.736 82.226C262.803 82.226 264.109 82.2682 264.699 82.2682C265.345 82.2682 269.881 82.2821 270.274 82.2682C270.654 82.2401 270.977 82.1698 271.145 82.1558C271.258 82.1277 271.37 82.0575 271.468 82.0575C271.58 82.0575 271.609 82.1558 271.609 82.2401C271.609 82.3805 271.496 82.6193 271.44 83.5181L271.438 83.5556C271.42 83.8166 271.368 84.611 271.328 84.8242C271.3 84.9224 271.258 85.1472 271.089 85.1472C270.948 85.1472 270.935 85.0629 270.935 84.8944C270.935 84.7539 270.906 84.4028 270.794 84.1781C270.626 83.827 270.471 83.5462 269.446 83.4479C269.095 83.4057 266.651 83.3636 266.23 83.3636C266.131 83.3636 266.089 83.4338 266.089 83.5461V88.4333C266.089 88.5457 266.117 88.644 266.23 88.644C266.693 88.644 269.348 88.644 269.811 88.6018C270.303 88.5457 270.612 88.5035 270.794 88.2929C270.949 88.1524 271.019 88.0401 271.117 88.0401C271.215 88.0401 271.286 88.1243 271.286 88.2508C271.286 88.3631 271.229 88.6861 271.117 89.6832C271.075 90.0905 271.019 90.877 271.019 91.0174C271.019 91.1719 271.005 91.4528 270.822 91.4528C270.682 91.4528 270.626 91.3825 270.626 91.2983C270.611 91.0876 270.611 90.8348 270.555 90.568C270.443 90.1748 270.19 89.8798 269.418 89.8096C269.053 89.7534 266.721 89.7113 266.202 89.7113C266.118 89.7113 266.089 89.8096 266.089 89.922V91.5089C266.089 92.183 266.061 93.8543 266.089 94.4301C266.131 95.7923 266.763 96.0873 268.856 96.0873C269.39 96.0873 270.26 96.0592 270.794 95.8345C271.3 95.5957 271.538 95.1744 271.679 94.3599C271.721 94.1632 271.763 94.0649 271.904 94.0649C272.072 94.0649 272.1 94.3177 272.1 94.5284C272.1 94.9778 271.932 96.326 271.819 96.7192C271.679 97.2248 271.496 97.2248 270.724 97.2248C269.193 97.2248 267.957 97.2108 266.946 97.1546C265.949 97.1407 265.191 97.1125 264.573 97.1125C264.348 97.1125 263.898 97.1407 263.421 97.1407C262.929 97.1546 262.41 97.1828 262.003 97.1828C261.736 97.1828 261.595 97.1126 261.595 96.9721C261.595 96.8738 261.666 96.7615 261.932 96.7615C262.227 96.7615 262.466 96.7334 262.649 96.6913C263.07 96.607 263.182 96.2278 263.252 95.652C263.351 94.8094 263.351 93.2505 263.351 91.4388Z" fill="url(#paint6_radial_3097_2908)"/>
<path d="M284.297 96.6211C283.314 97.3233 281.966 97.4356 280.871 97.4356C279.691 97.4356 278.427 97.3233 277.542 96.93C277.219 96.7896 277.149 96.6913 277.149 96.2559C277.149 95.1745 277.247 93.9527 277.261 93.6157C277.261 93.3207 277.36 93.1101 277.514 93.1101C277.711 93.1101 277.725 93.2926 277.725 93.4331C277.725 93.6859 277.795 94.1072 277.921 94.4583C278.357 95.9189 279.888 96.4104 281.18 96.4104C282.935 96.4104 284.017 95.3009 284.017 93.8965C284.017 93.0398 283.806 92.1832 281.994 91.1018L280.8 90.4136C278.385 88.9952 277.584 87.661 277.584 85.9196C277.584 83.504 279.916 81.9451 282.753 81.9451C284.087 81.9451 285.126 82.1277 285.66 82.2681C285.856 82.3103 285.94 82.3805 285.94 82.5209C285.94 82.7737 285.87 83.3355 285.87 84.8943C285.87 85.3157 285.786 85.5263 285.617 85.5263C285.477 85.5263 285.407 85.414 285.407 85.1752C285.407 84.9927 285.323 84.3888 284.873 83.8691C284.564 83.504 283.918 82.9422 282.598 82.9422C281.123 82.9422 279.803 83.7147 279.803 85.0629C279.803 85.9477 280.126 86.6358 281.966 87.661L282.809 88.1245C285.505 89.6131 286.334 91.1299 286.334 92.9275C286.334 94.3881 285.786 95.5818 284.297 96.6211Z" fill="url(#paint7_radial_3097_2908)"/>
<path d="M292.576 95.7363C292.675 94.9217 292.675 93.3488 292.675 91.4388L292.675 87.9419C292.675 84.9365 292.675 84.3887 292.647 83.7568C292.604 83.0827 292.394 82.8439 291.944 82.7035C291.72 82.6332 291.453 82.6192 291.2 82.6192C290.989 82.6192 290.877 82.563 290.877 82.3805C290.877 82.2681 291.046 82.226 291.369 82.226C292.127 82.226 293.531 82.2681 294.107 82.2681C294.627 82.2681 295.947 82.226 296.747 82.226C297 82.226 297.155 82.2681 297.155 82.3805C297.155 82.563 297.042 82.6192 296.832 82.6192C296.621 82.6192 296.467 82.6333 296.228 82.6894C295.666 82.7737 295.512 83.0546 295.455 83.7568C295.413 84.3888 295.413 84.9365 295.413 87.9419V91.4388C295.413 93.3488 295.413 94.9217 295.511 95.7644C295.582 96.298 295.722 96.607 296.326 96.6913C296.607 96.7333 297.07 96.7615 297.365 96.7615C297.604 96.7615 297.702 96.8738 297.702 96.9721C297.702 97.1126 297.534 97.1828 297.295 97.1828C295.947 97.1828 294.556 97.1126 293.995 97.1126C293.531 97.1126 292.127 97.1828 291.326 97.1828C291.06 97.1828 290.919 97.1126 290.919 96.9721C290.919 96.8738 290.989 96.7615 291.256 96.7615C291.551 96.7615 291.79 96.7334 291.972 96.6913C292.394 96.607 292.506 96.3261 292.576 95.7363Z" fill="url(#paint8_radial_3097_2908)"/>
<path fill-rule="evenodd" clip-rule="evenodd" d="M227.549 97.4356C232.83 97.4356 236.13 93.8825 236.13 89.3463C236.13 84.796 232.928 81.9451 227.76 81.9451C221.552 81.9451 219.179 86.3128 219.179 89.6833C219.179 93.2084 221.595 97.4356 227.549 97.4356ZM222.198 89.0795C222.198 93.1522 224.53 96.3683 228.392 96.3683C229.824 96.3683 233.083 95.6942 233.083 90.0625C233.083 85.6808 230.456 82.9844 227.156 82.9844C224.881 82.9844 222.198 84.1922 222.198 89.0795Z" fill="url(#paint9_radial_3097_2908)"/>
<path fill-rule="evenodd" clip-rule="evenodd" d="M200.164 87.9417L200.163 91.4388C200.163 93.2505 200.164 94.8094 200.065 95.652C199.995 96.2278 199.883 96.607 199.461 96.6913C199.279 96.7334 199.04 96.7615 198.745 96.7615C198.478 96.7615 198.408 96.8738 198.408 96.9721C198.408 97.1126 198.548 97.1828 198.815 97.1828C199.078 97.1828 199.387 97.1711 199.705 97.159C199.881 97.1524 200.059 97.1456 200.234 97.1407C200.517 97.1407 200.79 97.1308 201.013 97.1227C201.165 97.1172 201.294 97.1125 201.385 97.1125C201.905 97.1125 202.649 97.1546 203.464 97.2248C203.57 97.2322 203.678 97.2398 203.787 97.2474C204.508 97.2982 205.261 97.3512 205.907 97.3512C209.671 97.3512 211.834 95.9468 212.775 95.0199C213.941 93.8824 215.008 91.9864 215.008 89.5007C215.008 87.1553 214.095 85.4981 213.07 84.4729C210.837 82.2259 207.396 82.2259 204.84 82.2259C204.116 82.2259 203.31 82.2403 202.643 82.2523C202.171 82.2608 201.768 82.268 201.512 82.268C201.26 82.268 200.878 82.2604 200.441 82.2516C199.851 82.2397 199.161 82.2259 198.548 82.2259C198.254 82.2259 198.085 82.268 198.085 82.4084C198.085 82.5489 198.225 82.6191 198.436 82.6191C198.745 82.6191 199.082 82.633 199.251 82.6893C199.897 82.8719 200.093 83.0825 200.135 83.7567C200.164 84.3886 200.164 84.9363 200.164 87.9417ZM202.93 83.7849C202.902 84.459 202.902 86.0881 202.902 87.647L202.902 90.1327C202.902 92.2253 202.93 93.742 202.944 94.1353C202.972 94.6268 203.015 95.315 203.183 95.5256C203.436 95.9048 204.25 96.3261 205.865 96.3261C207.719 96.3261 209.096 95.9891 210.331 94.9779C211.652 93.8825 212.073 92.1129 212.073 90.0625C212.073 87.5487 211.076 85.9196 210.163 85.1331C208.281 83.4478 206.048 83.2372 204.433 83.2372C204.026 83.2372 203.352 83.2934 203.183 83.3776C203 83.4478 202.93 83.5461 202.93 83.7849Z" fill="url(#paint10_radial_3097_2908)"/>
<path fill-rule="evenodd" clip-rule="evenodd" d="M309.756 92.1972C309.84 92.1972 309.91 92.2254 309.952 92.3376L311.539 96.3261C311.637 96.5509 311.497 96.7334 311.357 96.7615C311.146 96.7897 311.104 96.8598 311.104 96.9721C311.104 97.0985 311.286 97.1112 311.599 97.1329C311.633 97.1353 311.67 97.1379 311.708 97.1407C313.421 97.1828 314.91 97.1828 315.64 97.1828C316.398 97.1828 316.525 97.1407 316.525 96.9721C316.525 96.8317 316.426 96.7615 316.244 96.7615C316.005 96.7615 315.78 96.7333 315.471 96.6913C315.106 96.6211 314.516 96.3683 313.73 94.5706C313.029 92.9641 311.72 89.8832 310.582 87.2052C309.601 84.8967 308.747 82.8876 308.52 82.3805C308.309 81.9451 308.211 81.7485 307.916 81.7485C307.705 81.7485 307.537 81.9873 307.312 82.549L301.947 94.992C301.54 95.9891 301.189 96.607 300.262 96.7334C300.163 96.7334 300.058 96.7405 299.953 96.7475C299.847 96.7546 299.742 96.7616 299.644 96.7616C299.489 96.7616 299.419 96.8599 299.419 96.9723C299.419 97.1408 299.531 97.1829 299.784 97.1829C300.535 97.1829 301.285 97.1491 301.744 97.1284C301.947 97.1193 302.093 97.1127 302.158 97.1127C302.486 97.1127 302.887 97.1301 303.291 97.1475C303.698 97.1652 304.108 97.1829 304.447 97.1829C304.658 97.1829 304.77 97.1408 304.77 96.9723C304.77 96.8599 304.728 96.7616 304.461 96.7616H304.166C303.534 96.7616 303.351 96.551 303.351 96.1999C303.351 95.9751 303.45 95.4836 303.646 94.9921L304.742 92.3378C304.798 92.2254 304.812 92.1973 304.938 92.1973L309.756 92.1972ZM305.276 90.9754C305.233 91.0597 305.276 91.1018 305.346 91.1018L309.306 91.1018C309.404 91.1018 309.418 91.0596 309.404 90.9894L307.466 85.9617C307.452 85.8915 307.424 85.7791 307.382 85.7791C307.323 85.7791 307.294 85.8588 307.269 85.9259C307.265 85.9385 307.26 85.9506 307.256 85.9617L305.276 90.9754Z" fill="url(#paint11_radial_3097_2908)"/>
</g>
<g filter="url(#filter1_din_3097_2908)">
<path d="M4.18561 103.257H316.066Z" fill="#FFD900"/>
<path d="M4.18561 103.257H316.066" stroke="#FFD900" stroke-width="0.599209" stroke-miterlimit="2.613"/>
</g>
<defs>
<filter id="filter0_din_3097_2908" x="0.690398" y="0.283241" width="319.33" height="127.978" filterUnits="userSpaceOnUse" color-interpolation-filters="sRGB">
<feFlood flood-opacity="0" result="BackgroundImageFix"/>
<feColorMatrix in="SourceAlpha" type="matrix" values="0 0 0 0 0 0 0 0 0 0 0 0 0 0 0 0 0 0 127 0" result="hardAlpha"/>
<feOffset/>
<feGaussianBlur stdDeviation="1.7476"/>
<feComposite in2="hardAlpha" operator="out"/>
<feColorMatrix type="matrix" values="0 0 0 0 0 0 0 0 0 0 0 0 0 0 0 0 0 0 0.58 0"/>
<feBlend mode="normal" in2="BackgroundImageFix" result="effect1_dropShadow_3097_2908"/>
<feBlend mode="normal" in="SourceGraphic" in2="BackgroundImageFix" result="shape"/>
<feColorMatrix in="SourceAlpha" type="matrix" values="0 0 0 0 0 0 0 0 0 0 0 0 0 0 0 0 0 0 127 0" result="hardAlpha"/>
<feOffset dy="2.68862"/>
<feGaussianBlur stdDeviation="11.5611"/>
<feComposite in2="hardAlpha" operator="arithmetic" k2="-1" k3="1"/>
<feColorMatrix type="matrix" values="0 0 0 0 0 0 0 0 0 0 0 0 0 0 0 0 0 0 0.14 0"/>
<feBlend mode="normal" in2="shape" result="effect2_innerShadow_3097_2908"/>
<feTurbulence type="fractalNoise" baseFrequency="3.7193763256072998 3.7193763256072998" stitchTiles="stitch" numOctaves="3" result="noise" seed="122" />
<feColorMatrix in="noise" type="luminanceToAlpha" result="alphaNoise" />
<feComponentTransfer in="alphaNoise" result="coloredNoise1">
<feFuncA type="discrete" tableValues="1 1 1 1 1 1 1 1 1 1 1 1 1 1 1 1 1 1 1 1 1 1 1 1 1 1 1 1 1 1 1 1 1 1 1 1 1 1 1 1 1 1 1 1 1 1 1 1 1 1 1 0 0 0 0 0 0 0 0 0 0 0 0 0 0 0 0 0 0 0 0 0 0 0 0 0 0 0 0 0 0 0 0 0 0 0 0 0 0 0 0 0 0 0 0 0 0 0 0 0 "/>
</feComponentTransfer>
<feComposite operator="in" in2="effect2_innerShadow_3097_2908" in="coloredNoise1" result="noise1Clipped" />
<feFlood flood-color="rgba(0, 0, 0, 0.11)" result="color1Flood" />
<feComposite operator="in" in2="noise1Clipped" in="color1Flood" result="color1" />
<feMerge result="effect3_noise_3097_2908">
<feMergeNode in="effect2_innerShadow_3097_2908" />
<feMergeNode in="color1" />
</feMerge>
<feBlend mode="normal" in="effect3_noise_3097_2908" in2="effect1_dropShadow_3097_2908" result="effect3_noise_3097_2908"/>
</filter>
<filter id="filter1_din_3097_2908" x="0.690398" y="99.4627" width="318.871" height="7.58963" filterUnits="userSpaceOnUse" color-interpolation-filters="sRGB">
<feFlood flood-opacity="0" result="BackgroundImageFix"/>
<feColorMatrix in="SourceAlpha" type="matrix" values="0 0 0 0 0 0 0 0 0 0 0 0 0 0 0 0 0 0 127 0" result="hardAlpha"/>
<feOffset/>
<feGaussianBlur stdDeviation="1.7476"/>
<feComposite in2="hardAlpha" operator="out"/>
<feColorMatrix type="matrix" values="0 0 0 0 0 0 0 0 0 0 0 0 0 0 0 0 0 0 0.58 0"/>
<feBlend mode="normal" in2="BackgroundImageFix" result="effect1_dropShadow_3097_2908"/>
<feBlend mode="normal" in="SourceGraphic" in2="BackgroundImageFix" result="shape"/>
<feColorMatrix in="SourceAlpha" type="matrix" values="0 0 0 0 0 0 0 0 0 0 0 0 0 0 0 0 0 0 127 0" result="hardAlpha"/>
<feOffset dy="2.68862"/>
<feGaussianBlur stdDeviation="11.5611"/>
<feComposite in2="hardAlpha" operator="arithmetic" k2="-1" k3="1"/>
<feColorMatrix type="matrix" values="0 0 0 0 0 0 0 0 0 0 0 0 0 0 0 0 0 0 0.14 0"/>
<feBlend mode="normal" in2="shape" result="effect2_innerShadow_3097_2908"/>
<feTurbulence type="fractalNoise" baseFrequency="3.7193763256072998 3.7193763256072998" stitchTiles="stitch" numOctaves="3" result="noise" seed="122" />
<feColorMatrix in="noise" type="luminanceToAlpha" result="alphaNoise" />
<feComponentTransfer in="alphaNoise" result="coloredNoise1">
<feFuncA type="discrete" tableValues="1 1 1 1 1 1 1 1 1 1 1 1 1 1 1 1 1 1 1 1 1 1 1 1 1 1 1 1 1 1 1 1 1 1 1 1 1 1 1 1 1 1 1 1 1 1 1 1 1 1 1 0 0 0 0 0 0 0 0 0 0 0 0 0 0 0 0 0 0 0 0 0 0 0 0 0 0 0 0 0 0 0 0 0 0 0 0 0 0 0 0 0 0 0 0 0 0 0 0 0 "/>
</feComponentTransfer>
<feComposite operator="in" in2="effect2_innerShadow_3097_2908" in="coloredNoise1" result="noise1Clipped" />
<feFlood flood-color="rgba(0, 0, 0, 0.11)" result="color1Flood" />
<feComposite operator="in" in2="noise1Clipped" in="color1Flood" result="color1" />
<feMerge result="effect3_noise_3097_2908">
<feMergeNode in="effect2_innerShadow_3097_2908" />
<feMergeNode in="color1" />
</feMerge>
<feBlend mode="normal" in="effect3_noise_3097_2908" in2="effect1_dropShadow_3097_2908" result="effect3_noise_3097_2908"/>
</filter>
<radialGradient id="paint0_radial_3097_2908" cx="0" cy="0" r="1" gradientUnits="userSpaceOnUse" gradientTransform="translate(160 80.5) rotate(89.7945) scale(99.0006 255.577)">
<stop stop-color="white"/>
<stop offset="1" stop-color="#FFD900"/>
</radialGradient>
<radialGradient id="paint1_radial_3097_2908" cx="0" cy="0" r="1" gradientUnits="userSpaceOnUse" gradientTransform="translate(160 80.5) rotate(89.7945) scale(99.0006 255.577)">
<stop stop-color="white"/>
<stop offset="1" stop-color="#FFD900"/>
</radialGradient>
<radialGradient id="paint2_radial_3097_2908" cx="0" cy="0" r="1" gradientUnits="userSpaceOnUse" gradientTransform="translate(160 80.5) rotate(89.7945) scale(99.0006 255.577)">
<stop stop-color="white"/>
<stop offset="1" stop-color="#FFD900"/>
</radialGradient>
<radialGradient id="paint3_radial_3097_2908" cx="0" cy="0" r="1" gradientUnits="userSpaceOnUse" gradientTransform="translate(160 80.5) rotate(89.7945) scale(99.0006 255.577)">
<stop stop-color="white"/>
<stop offset="1" stop-color="#FFD900"/>
</radialGradient>
<radialGradient id="paint4_radial_3097_2908" cx="0" cy="0" r="1" gradientUnits="userSpaceOnUse" gradientTransform="translate(160 80.5) rotate(89.7945) scale(99.0006 255.577)">
<stop stop-color="white"/>
<stop offset="1" stop-color="#FFD900"/>
</radialGradient>
<radialGradient id="paint5_radial_3097_2908" cx="0" cy="0" r="1" gradientUnits="userSpaceOnUse" gradientTransform="translate(160 80.5) rotate(89.7945) scale(99.0006 255.577)">
<stop stop-color="white"/>
<stop offset="1" stop-color="#FFD900"/>
</radialGradient>
<radialGradient id="paint6_radial_3097_2908" cx="0" cy="0" r="1" gradientUnits="userSpaceOnUse" gradientTransform="translate(160 80.5) rotate(89.7945) scale(99.0006 255.577)">
<stop stop-color="white"/>
<stop offset="1" stop-color="#FFD900"/>
</radialGradient>
<radialGradient id="paint7_radial_3097_2908" cx="0" cy="0" r="1" gradientUnits="userSpaceOnUse" gradientTransform="translate(160 80.5) rotate(89.7945) scale(99.0006 255.577)">
<stop stop-color="white"/>
<stop offset="1" stop-color="#FFD900"/>
</radialGradient>
<radialGradient id="paint8_radial_3097_2908" cx="0" cy="0" r="1" gradientUnits="userSpaceOnUse" gradientTransform="translate(160 80.5) rotate(89.7945) scale(99.0006 255.577)">
<stop stop-color="white"/>
<stop offset="1" stop-color="#FFD900"/>
</radialGradient>
<radialGradient id="paint9_radial_3097_2908" cx="0" cy="0" r="1" gradientUnits="userSpaceOnUse" gradientTransform="translate(160 80.5) rotate(89.7945) scale(99.0006 255.577)">
<stop stop-color="white"/>
<stop offset="1" stop-color="#FFD900"/>
</radialGradient>
<radialGradient id="paint10_radial_3097_2908" cx="0" cy="0" r="1" gradientUnits="userSpaceOnUse" gradientTransform="translate(160 80.5) rotate(89.7945) scale(99.0006 255.577)">
<stop stop-color="white"/>
<stop offset="1" stop-color="#FFD900"/>
</radialGradient>
<radialGradient id="paint11_radial_3097_2908" cx="0" cy="0" r="1" gradientUnits="userSpaceOnUse" gradientTransform="translate(160 80.5) rotate(89.7945) scale(99.0006 255.577)">
<stop stop-color="white"/>
<stop offset="1" stop-color="#FFD900"/>
</radialGradient>
</defs>
</svg>
