<svg width="499" height="200" viewBox="0 0 499 200" fill="none" xmlns="http://www.w3.org/2000/svg">
<g filter="url(#filter0_din_3108_1440)">
<path fill-rule="evenodd" clip-rule="evenodd" d="M248.893 111.214C249.006 111.221 249.12 111.227 249.236 111.229C253.48 111.303 257.028 107.187 254.679 102.213C254.421 106.063 252.727 108.143 249.141 108.143C249.057 108.143 248.975 108.143 248.893 108.141C248.81 108.143 248.728 108.143 248.644 108.143C245.058 108.143 243.364 106.063 243.105 102.213C240.755 107.187 244.306 111.303 248.549 111.229C248.665 111.227 248.779 111.221 248.893 111.214ZM248.893 105.091C248.982 105.099 249.074 105.104 249.169 105.104C252.32 105.187 252.986 101.995 252.208 100.069C251.707 101.995 250.25 102.973 248.893 102.665C247.535 102.973 246.076 101.995 245.577 100.069C244.799 101.995 245.465 105.187 248.616 105.104C248.711 105.104 248.803 105.099 248.893 105.091ZM248.893 95.5681C249.238 95.5551 249.569 95.5532 249.875 95.5663C259.794 96.0014 272.431 99.4062 277.641 97.3854C281.222 95.9977 287.002 91.6591 289.699 95.471C290.517 96.6271 287.23 99.4996 287.163 96.1004C285.833 93.3643 282.989 97.4545 285.054 99.6266C277.528 107.071 257.065 98.5825 255.11 98.0316C254.552 97.8728 254.242 98.4686 254.684 99.2586C255.398 100.532 257.588 102.394 258.119 104.355C259.189 108.307 256.008 114.646 249.668 114.824C249.404 114.831 249.145 114.826 248.893 114.813C248.64 114.826 248.381 114.831 248.116 114.824C241.777 114.646 238.596 108.307 239.666 104.355C240.197 102.394 242.387 100.532 243.101 99.2586C243.544 98.4686 243.234 97.8728 242.675 98.0316C240.72 98.5825 220.257 107.071 212.731 99.6266C214.796 97.4545 211.952 93.3643 210.622 96.1004C210.555 99.4996 207.268 96.6271 208.084 95.471C210.783 91.6591 216.563 95.9977 220.144 97.3854C225.354 99.4062 237.991 96.0014 247.91 95.5663C248.216 95.5532 248.547 95.5551 248.893 95.5681ZM248.893 83.8131C248.336 83.7328 247.703 83.9699 247.658 84.5116C247.017 89.9072 247.591 89.1135 245.725 91.3771C243.078 94.5876 240.49 94.3056 236.327 94.5372C232.394 94.7557 229.267 95.0209 228.598 93.3269C228.245 92.4305 230.446 85.7311 236.532 84.5004C238.697 84.0615 242.694 85.1391 242.692 83.8541C242.686 81.669 236.691 82.3208 234.807 82.8045C228.206 84.506 222.637 87.1973 217.503 94.638C227.215 99.6882 237.649 94.7333 248.633 94.1637C248.719 94.1711 248.805 94.1805 248.893 94.1898C248.978 94.1805 249.066 94.1711 249.152 94.1637C260.136 94.7333 270.57 99.6882 280.282 94.638C275.148 87.1973 269.579 84.506 262.978 82.8045C261.092 82.3208 255.099 81.669 255.093 83.8541C255.091 85.1391 259.088 84.0615 261.251 84.5004C267.339 85.7311 269.54 92.4305 269.187 93.3269C268.518 95.0209 265.391 94.7557 261.458 94.5372C257.295 94.3056 254.705 94.5876 252.06 91.3771C250.194 89.1135 250.768 89.9072 250.125 84.5116C250.082 83.9699 249.449 83.7328 248.893 83.8131ZM248.893 51.5585C248.605 51.3941 248.349 50.8152 248.33 49.8813C248.237 45.4624 247.085 40.7615 247.529 35.6124C247.71 33.797 248.278 32.7847 248.893 32.5475C249.505 32.7847 250.075 33.797 250.256 35.6124C250.7 40.7615 249.548 45.4624 249.455 49.8813C249.434 50.8152 249.18 51.3941 248.893 51.5585ZM248.893 5.74095C242.281 10.7071 231.805 11.7941 231.986 24.5988C231.884 29.6751 234.241 32.5158 243.086 32.4317C245.732 32.4056 245.738 41.4768 245.66 45.4587C244.003 42.6311 242.443 40.7074 239.461 38.4512C232.649 32.5008 229.42 31.2383 229.42 23.9638C229.42 18.4317 230.787 16.6724 233.686 12.9651C223.494 14.6236 208.827 23.3624 219.611 33.9165C224.389 38.5595 232.046 34.8093 237.283 39.1946C240.273 41.3648 245.938 47.9109 245.938 52.4064L246.087 55.0566L245.626 66.9331C245.579 67.6297 244.694 67.4897 244.683 66.864C244.683 54.0332 237.842 44.9376 225.883 44.9376C221.464 44.9376 218.926 45.8565 214.27 45.6716C209.873 45.7276 204.694 42.222 204.521 38.5147C199.631 43.2138 200.359 54.6513 209.352 53.71C215.136 52.4886 215.777 46.9061 224.097 46.9061C229.327 46.8725 233.576 46.9977 237.698 51.3026C239.504 53.1871 241.052 54.9688 242.061 61.4814C242.156 62.9737 241.54 62.9083 241.181 62.094C238.094 55.0977 234.883 53.3944 229.194 53.1535C220.046 53.0993 212.167 66.5334 205.522 66.5334C202.487 66.5334 200.729 65.3344 198.972 62.9494C199.13 68.5188 199.896 73.6997 205.901 73.7519C209.584 73.808 212.576 69.2789 214.565 66.0198C218.018 60.3627 224.618 53.7567 231.841 55.2546C238.18 56.9168 241.853 63.5825 241.853 73.4195C241.853 75.3824 241.056 78.8451 238.689 78.8451C236.424 78.8451 235.612 78.2997 235.612 76.0865C235.612 72.015 237.025 62.3835 232.392 62.3835C229.867 62.2845 228.763 63.7674 228.675 65.6948C228.683 67.8296 232.911 69.6337 232.145 66.3037C231.908 65.2784 233.578 64.8637 233.673 66.4139C233.589 69.7552 230.657 69.3667 230.959 76.5647C230.959 82.1004 235.354 80.9574 241.099 80.9892C245.815 81.5551 244.143 86.6071 240.834 86.6239C239.199 86.6893 238.669 85.7031 237.582 85.55C236.674 85.4248 235.782 85.6807 235.578 86.3344C235.072 89.0649 238.981 89.8251 242.081 89.8251C244.291 89.9409 241.228 91.7058 239.709 91.7506C238.66 91.7842 238.704 92.8507 239.655 92.875C245.054 92.7218 245.419 89.0201 246.478 84.0409C246.575 82.7522 247.395 82.1919 248.893 82.1154C250.39 82.1919 251.21 82.7522 251.307 84.0409C252.365 89.0201 252.731 92.7218 258.13 92.875C259.081 92.8507 259.125 91.7842 258.076 91.7506C256.557 91.7058 253.494 89.9409 255.704 89.8251C258.804 89.8251 262.713 89.0649 262.207 86.3344C262.004 85.6807 261.111 85.4248 260.203 85.55C259.116 85.7031 258.586 86.6893 256.951 86.6239C253.642 86.6071 251.97 81.5551 256.686 80.9892C262.431 80.9574 266.826 82.1004 266.826 76.5647C267.128 69.3667 264.194 69.7552 264.112 66.4139C264.207 64.8637 265.877 65.2784 265.64 66.3037C264.874 69.6337 269.103 67.8296 269.11 65.6948C269.022 63.7674 267.917 62.2845 265.391 62.3835C260.76 62.3835 262.173 72.015 262.173 76.0865C262.173 78.2997 261.359 78.8451 259.096 78.8451C256.727 78.8451 255.932 75.3824 255.932 73.4195C255.932 63.5825 259.605 56.9168 265.944 55.2546C273.167 53.7567 279.767 60.3627 283.22 66.0198C285.209 69.2789 288.201 73.808 291.884 73.7519C297.889 73.6997 298.655 68.5188 298.813 62.9494C297.056 65.3344 295.297 66.5334 292.263 66.5334C285.618 66.5334 277.739 53.0993 268.589 53.1535C262.9 53.3944 259.691 55.0977 256.604 62.094C256.246 62.9083 255.629 62.9737 255.724 61.4814C256.733 54.9688 258.281 53.1871 260.085 51.3026C264.209 46.9977 268.456 46.8725 273.688 46.9061C282.008 46.9061 282.649 52.4886 288.433 53.71C297.426 54.6513 298.154 43.2138 293.263 38.5147C293.091 42.222 287.912 45.7276 283.515 45.6716C278.859 45.8565 276.321 44.9376 271.902 44.9376C259.944 44.9376 253.102 54.0332 253.102 66.864C253.091 67.4897 252.206 67.6297 252.159 66.9331L251.698 55.0566L251.847 52.4064C251.847 47.9109 257.512 41.3648 260.502 39.1946C265.739 34.8093 273.396 38.5595 278.174 33.9165C288.956 23.3624 274.291 14.6236 264.099 12.9651C266.998 16.6724 268.363 18.4317 268.363 23.9638C268.363 31.2383 265.136 32.5008 258.324 38.4512C255.342 40.7074 253.782 42.6311 252.125 45.4587C252.047 41.4768 252.053 32.4056 254.699 32.4317C263.544 32.5158 265.901 29.6751 265.799 24.5988C265.98 11.7941 255.504 10.7071 248.893 5.74095ZM244.948 13.7756C242.556 14.4405 241.302 18.3103 241.495 22.3351C241.495 24.4662 243.293 27.2938 244.56 28.1753C243.695 25.8426 242.404 20.3143 244.948 13.7756ZM247.563 68.2498C247.563 66.9929 246.27 66.8154 246.222 68.7055C246.403 74.4505 243.773 74.2338 243.613 76.4545C243.613 78.0961 243.932 79.2616 246.044 79.0393C247.912 79.0393 247.591 75.502 247.591 73.864L247.563 68.2498ZM225.197 38.6679C223.662 41.1687 218.78 43.3931 215.648 43.3931C204.235 43.3931 204.681 31.0347 213.489 25.2058C213.259 33.6252 217.525 38.6455 225.197 38.6679ZM212.871 55.165C211.483 60.654 209.212 64.0812 204.543 64.0812C198.311 63.4705 198.632 54.4702 199.965 51.0075C203.088 56.6385 208.209 57.0083 212.871 55.165ZM238.661 74.8539C239.801 74.7418 240.234 75.9446 239.808 76.7738C239.382 77.6031 238.198 77.5041 237.688 76.6954C237.298 76.0791 237.539 74.8875 238.661 74.8539ZM207.897 81.768C205.307 81.768 202.124 77.6535 201.762 75.0817C203.361 75.7802 205.329 76.5385 207.294 76.2322C209.531 75.7877 209.651 75.5673 210.828 73.9667C212.916 77.2744 212.43 81.768 207.897 81.768ZM212.404 87.3635C208.994 88.4075 206.478 84.2034 205.841 82.9521C208.077 84.3285 212.398 84.2613 213.276 81.8053C214.15 84.1474 214.632 86.3139 212.404 87.3635ZM213.624 91.717C212.172 91.4667 211.289 90.8037 211.011 89.7224C212.792 90.0025 214.666 89.4758 215.357 87.9817C216.279 89.5972 216.042 92.1354 213.624 91.717ZM230.177 87.046C228.636 88.5382 227.153 91.3341 225.946 93.1178C225.168 94.272 223.95 93.8686 224.269 93.1981C225.239 91.1679 228.014 87.7127 230.177 87.046ZM228.948 86.0748C227.448 87.5913 225.629 89.3731 225.242 89.8325C222.798 92.7424 221.587 94.4419 220.9 92.7442C220.76 92.4024 222.108 90.3835 224.101 88.9192C225.668 87.7706 227.011 86.637 228.948 86.0748ZM239.459 112.823C237.16 114.047 231.32 112.646 230.457 109.803C233.85 108.143 235.518 106.841 238.066 104.832C237.972 108.618 238.366 109.843 239.459 112.823ZM220.829 104.914C222.534 104.679 226.488 104.934 228.996 104.133C233.077 102.831 235.315 102.499 239.125 100.898C237.655 103.651 233.482 106.132 232.121 107.058C228.598 110.084 221.529 109.848 220.829 104.914ZM252.835 13.7756C255.23 14.4405 256.481 18.3103 256.29 22.3351C256.29 24.4662 254.492 27.2938 253.226 28.1753C254.09 25.8426 255.381 20.3143 252.835 13.7756ZM250.222 68.2498C250.222 66.9929 251.513 66.8154 251.563 68.7055C251.382 74.4505 254.012 74.2338 254.172 76.4545C254.172 78.0961 253.853 79.2616 251.741 79.0393C249.873 79.0393 250.194 75.502 250.194 73.864L250.222 68.2498ZM272.588 38.6679C274.123 41.1687 279.005 43.3931 282.135 43.3931C293.55 43.3931 293.104 31.0347 284.296 25.2058C284.524 33.6252 280.26 38.6455 272.588 38.6679ZM284.914 55.165C286.302 60.654 288.573 64.0812 293.242 64.0812C299.474 63.4705 299.153 54.4702 297.82 51.0075C294.697 56.6385 289.576 57.0083 284.914 55.165ZM259.124 74.8539C257.984 74.7418 257.551 75.9446 257.977 76.7738C258.403 77.6031 259.585 77.5041 260.097 76.6954C260.487 76.0791 260.246 74.8875 259.124 74.8539ZM289.886 81.768C292.478 81.768 295.661 77.6535 296.023 75.0817C294.422 75.7802 292.456 76.5385 290.491 76.2322C288.254 75.7877 288.134 75.5673 286.957 73.9667C284.869 77.2744 285.355 81.768 289.886 81.768ZM285.381 87.3635C288.791 88.4075 291.307 84.2034 291.944 82.9521C289.707 84.3285 285.387 84.2613 284.509 81.8053C283.635 84.1474 283.151 86.3139 285.381 87.3635ZM284.162 91.717C285.611 91.4667 286.496 90.8037 286.774 89.7224C284.993 90.0025 283.119 89.4758 282.428 87.9817C281.504 89.5972 281.743 92.1354 284.162 91.717ZM267.608 87.046C269.149 88.5382 270.632 91.3341 271.839 93.1178C272.617 94.272 273.835 93.8686 273.516 93.1981C272.547 91.1679 269.771 87.7127 267.608 87.046ZM268.837 86.0748C270.337 87.5913 272.156 89.3731 272.543 89.8325C274.988 92.7424 276.196 94.4419 276.885 92.7442C277.023 92.4024 275.677 90.3835 273.684 88.9192C272.115 87.7706 270.774 86.637 268.837 86.0748ZM258.326 112.823C260.625 114.047 266.465 112.646 267.328 109.803C263.935 108.143 262.267 106.841 259.718 104.832C259.813 108.618 259.417 109.843 258.326 112.823ZM276.956 104.914C275.251 104.679 271.297 104.934 268.789 104.133C264.708 102.831 262.47 102.499 258.66 100.898C260.13 103.651 264.303 106.132 265.664 107.058C269.187 110.084 276.256 109.848 276.956 104.914Z" fill="url(#paint0_radial_3108_1440)"/>
<path d="M67.6337 174.387C67.7834 174.566 67.8583 174.716 67.8583 174.836C67.8583 175.015 67.3717 175.366 66.3984 175.882C65.0228 177.183 63.1606 179.381 60.821 182.492C58.3225 185.826 56.5912 188.465 55.618 190.417C55.6651 190.619 55.6931 190.768 55.6931 190.865C55.6931 191.164 55.3375 191.449 54.645 191.703C54.3456 191.8 54.0929 191.852 53.8964 191.852C53.6156 191.852 53.2413 191.65 52.7734 191.254C52.5956 191.075 52.5114 190.895 52.5114 190.716C52.5114 190.462 52.6705 190.222 52.998 189.998C52.9228 187.03 52.4178 184.069 51.5007 181.116C50.6772 178.507 49.7788 176.645 48.8056 175.523C48.4781 175.127 48.0289 174.925 47.458 174.925C46.8591 174.925 45.9982 175.269 44.8752 175.942C44.7442 176.002 44.5944 176.032 44.426 176.032C44.0985 176.032 43.9394 175.942 43.9394 175.763C43.9394 175.665 44.0236 175.538 44.2015 175.374C45.1466 174.619 46.3444 173.923 47.7949 173.28C48.2909 173.041 48.6933 172.922 48.9928 172.922C49.5169 172.922 50.0222 173.221 50.5275 173.819C52.8202 176.51 54.4017 181.288 55.2814 188.144C56.0487 186.888 57.5367 184.727 59.7358 181.654C61.7291 178.806 62.8614 177.228 63.1421 176.929C62.9176 176.951 62.693 176.779 62.4684 176.421C62.2439 176.047 62.1315 175.688 62.1315 175.344C62.1315 175.045 62.225 174.895 62.4309 174.895C62.6742 174.918 62.9362 174.925 63.217 174.925C63.5165 174.865 63.9002 174.671 64.3774 174.327C64.6956 174.088 65.0138 173.863 65.3132 173.639C65.6314 173.46 65.884 173.37 66.0618 173.37C66.511 173.37 67.0347 173.714 67.6337 174.387ZM78.2363 187.665C75.5131 190.439 73.6041 191.822 72.5092 191.822C71.9851 191.822 71.3207 191.531 70.5253 190.955C69.6737 190.641 69.2526 190.222 69.2526 189.699C69.2526 189.602 69.2616 189.49 69.2897 189.37C69.4862 188.159 69.898 186.813 70.525 185.333C70.0945 185.153 69.8886 184.996 69.8886 184.854C69.8886 184.72 70.0009 184.645 70.2255 184.645C70.422 184.645 70.6092 184.69 70.787 184.765C71.779 182.993 72.6773 181.729 73.4821 180.966C73.9782 180.473 74.4367 180.219 74.8671 180.219C75.0636 180.219 75.5222 180.353 76.2521 180.607C76.196 180.353 76.2992 180.204 76.5515 180.159C76.5706 180.159 76.8323 180.159 77.3376 180.159C77.8056 180.159 78.0489 180.219 78.0489 180.338C78.0489 180.383 78.0299 180.458 78.0118 180.578C77.9837 180.697 77.9746 180.817 77.9746 180.937C77.9746 181.258 77.9746 181.654 77.9746 182.133C77.9936 182.596 78.0118 182.903 78.0118 183.06C78.0118 184.181 77.6187 184.944 76.8514 185.363C76.1495 185.781 75.3728 185.991 74.5306 185.991C74.0533 185.991 73.2953 185.894 72.2472 185.692C72.0413 185.976 71.8354 186.514 71.6108 187.307C71.2833 188.323 71.1336 189.221 71.1616 189.998C71.1807 190.477 71.3676 190.716 71.7231 190.716C71.8448 190.716 72.0226 190.686 72.2472 190.626C73.5386 190.252 75.3354 189.131 77.6375 187.277C77.7871 187.157 77.9368 187.097 78.0866 187.097C78.2831 187.097 78.3861 187.18 78.3861 187.337C78.3861 187.441 78.3298 187.546 78.2363 187.665ZM76.2524 181.744C76.2524 181.385 76.1588 181.206 75.9904 181.206C75.8594 181.206 75.6909 181.288 75.4663 181.445C74.3621 182.148 73.4076 183.374 72.584 185.123C72.8087 185.168 73.1923 185.198 73.7444 185.213C74.6428 185.236 75.3166 185.079 75.7658 184.735C76.0839 184.458 76.2711 184.009 76.3272 183.389C76.2711 183.852 76.2524 183.299 76.2524 181.744ZM95.5019 181.415C95.5019 182.574 95.3148 183.68 94.9405 184.735C94.8094 185.079 94.641 185.243 94.4164 185.243C94.2667 185.243 93.9298 185.064 93.4057 184.705C93.1249 184.525 93.0501 184.271 93.1812 183.927C93.4993 183.112 93.6678 182.462 93.6678 181.983C93.6678 181.804 93.6116 181.714 93.5181 181.714C93.387 181.714 93.1812 181.879 92.8817 182.193C90.5609 184.63 88.8203 187.337 87.6787 190.327C87.3043 191.284 86.9862 191.763 86.7429 191.763C86.6399 191.763 86.1907 191.613 85.3953 191.314C85.021 191.157 84.89 190.858 85.021 190.417C85.8913 187.329 86.8364 184.727 87.8658 182.611C87.0423 183.314 86.5183 183.793 86.2937 184.047C86.1907 184.152 86.0691 184.196 85.9194 184.196C85.7415 184.196 85.6573 184.129 85.6573 183.987C85.6573 183.912 85.6944 183.823 85.7696 183.718C86.3123 183.202 87.0517 182.402 87.9781 181.325C88.2495 180.929 88.5208 180.727 88.8016 180.727C88.9981 180.727 89.4099 180.862 90.0369 181.116C90.3831 181.258 90.4299 181.445 90.1865 181.684C89.9339 181.946 89.4753 182.866 88.8016 184.436C88.1465 185.953 87.6973 187.15 87.454 188.024C88.97 185.318 90.7106 182.925 92.6571 180.847C93.0033 180.473 93.2934 180.279 93.518 180.279C93.7144 180.279 93.9859 180.383 94.3415 180.578C94.8094 180.638 95.1088 180.697 95.2399 180.757C95.4083 180.877 95.5019 181.101 95.5019 181.415ZM108.182 176.51C108.35 176.615 108.444 176.735 108.444 176.869C108.444 177.131 107.967 177.527 107.022 178.065C106.367 178.424 105.749 178.559 105.15 178.454C104.823 178.394 104.532 178.297 104.289 178.155C104.214 178.095 104.149 178.036 104.102 177.976C104.074 177.916 104.074 177.879 104.102 177.856C104.121 177.819 104.186 177.811 104.289 177.826C105.309 177.109 105.983 176.593 106.311 176.271C106.582 176.055 106.769 175.942 106.872 175.942C107.068 175.942 107.508 176.136 108.182 176.51ZM105.824 182.372C105.543 183.568 104.851 185.572 103.728 188.383C104.046 188.144 104.495 187.718 105.075 187.097C105.15 187.022 105.225 186.978 105.3 186.978C105.468 186.978 105.496 187.112 105.375 187.366C105.319 187.471 104.851 188.077 103.952 189.191C103.279 190.05 102.792 190.806 102.493 191.464C102.39 191.658 102.203 191.763 101.931 191.763C101.65 191.763 101.295 191.658 100.846 191.464C100.546 191.344 100.396 191.254 100.396 191.194C100.396 191.134 100.453 191.015 100.584 190.835C101.201 189.983 101.875 188.563 102.605 186.589C103.297 184.66 103.7 183.224 103.803 182.282C103.822 181.886 103.775 181.684 103.653 181.684C103.55 181.684 103.363 181.789 103.092 181.983L102.081 182.761C101.707 183.022 101.519 183.03 101.519 182.79C101.519 182.73 101.567 182.641 101.669 182.521C102.193 181.946 102.755 181.385 103.354 180.846C103.522 180.712 103.7 180.637 103.878 180.637C104.046 180.637 104.308 180.742 104.664 180.936C105.16 181.041 105.431 181.101 105.487 181.116C105.759 181.258 105.899 181.497 105.899 181.833C105.899 181.998 105.871 182.178 105.824 182.372ZM122.472 174.387C122.771 174.529 122.921 174.679 122.921 174.836C122.921 174.955 122.818 175.015 122.622 175.015C122.565 175.015 122.491 175.015 122.397 175.015C122.322 175 122.257 174.985 122.21 174.985C121.779 174.985 121.274 175.359 120.675 176.092C120.123 176.75 119.374 178.185 118.429 180.398C118.354 180.6 118.317 180.72 118.317 180.757C118.364 180.817 118.513 180.847 118.766 180.847C119.412 180.907 120.301 180.899 121.424 180.817C121.798 180.78 121.985 180.9 121.985 181.176C121.985 181.378 121.836 181.505 121.536 181.565C121.312 181.587 120.076 181.67 117.83 181.804C116.501 184.937 115.697 187.576 115.397 189.729C115.397 189.849 115.397 189.961 115.397 190.058C115.397 190.357 115.481 190.507 115.659 190.507C115.959 190.507 116.866 189.924 118.392 188.742C118.56 188.608 118.738 188.533 118.916 188.533C119.066 188.533 119.15 188.585 119.178 188.683C119.225 188.787 119.178 188.907 119.028 189.042C118.13 189.999 117.241 190.821 116.371 191.494C115.996 191.77 115.697 191.913 115.472 191.913C115.22 191.913 114.836 191.748 114.312 191.434C113.685 191.299 113.376 191.03 113.376 190.627C113.376 190.567 113.385 190.499 113.413 190.417C113.806 188.129 114.611 185.296 115.809 181.924C115.229 181.864 114.695 181.804 114.199 181.744C113.993 181.707 113.9 181.595 113.9 181.415C113.9 181.221 114.012 181.101 114.237 181.057C114.461 180.996 114.873 180.9 115.472 180.757C115.846 180.66 116.202 180.518 116.557 180.339C117.727 177.393 118.663 175.479 119.365 174.597C119.739 174.103 120.151 173.849 120.6 173.849C121.021 173.849 121.648 174.028 122.472 174.387ZM138.062 182.551C137.014 184.824 136.303 186.738 135.929 188.294C136.078 188.159 136.284 187.957 136.565 187.695C136.836 187.441 137.014 187.292 137.089 187.247C137.239 187.09 137.398 187.008 137.576 187.008C137.744 187.008 137.838 187.082 137.838 187.217C137.838 187.299 137.801 187.389 137.725 187.486C136.677 188.727 135.975 189.983 135.629 191.254C135.526 191.613 135.377 191.793 135.18 191.793C134.974 191.793 134.619 191.643 134.095 191.344C133.795 191.187 133.627 191.06 133.608 190.955C133.533 190.858 133.533 190.656 133.608 190.357C134.057 188.107 134.637 186.23 135.367 184.735C134.394 185.991 133.065 187.381 131.399 188.892C129.921 190.23 128.863 191.075 128.218 191.434C127.74 191.688 127.375 191.823 127.132 191.823C126.926 191.823 126.627 191.688 126.234 191.434C125.635 191.157 125.335 190.768 125.335 190.267C125.335 190.17 125.354 190.058 125.373 189.938C125.578 188.608 126.29 187.067 127.544 185.333C128.788 183.583 130.22 182.095 131.848 180.877C132.372 180.503 132.84 180.309 133.271 180.309C133.664 180.331 134.431 180.75 135.554 181.565C135.648 181.647 135.704 181.729 135.704 181.804C135.704 181.946 135.591 182.013 135.367 182.013C135.264 182.013 135.18 182.006 135.105 181.984C134.3 181.707 133.664 181.714 133.196 182.013C132.148 182.634 130.987 183.71 129.715 185.243C128.236 187.037 127.356 188.645 127.057 190.058C127.029 190.14 127.02 190.2 127.02 190.237C127.02 190.462 127.132 190.566 127.357 190.566C127.731 190.566 128.18 190.357 128.704 189.938C129.949 188.981 131.296 187.77 132.747 186.29C134.188 184.757 135.124 183.613 135.554 182.851C135.854 182.275 136.05 181.864 136.153 181.624C136.275 181.228 136.425 181.026 136.602 181.026C136.771 181.026 137.164 181.206 137.763 181.565C138.034 181.729 138.184 181.864 138.212 181.983C138.212 182.103 138.156 182.297 138.062 182.551ZM153.045 180.757C153.045 181.161 152.904 181.796 152.633 182.671C152.53 182.97 152.418 183.172 152.296 183.269C152.24 183.314 152.053 183.381 151.734 183.479C151.304 183.598 151.042 183.658 150.948 183.658C150.799 183.658 150.724 183.568 150.724 183.389C150.724 183.292 150.733 183.164 150.761 183C151.032 182.125 151.135 181.52 151.06 181.176C151.004 180.817 151.145 180.6 151.472 180.518C152.015 180.301 152.37 180.189 152.52 180.189C152.866 180.189 153.045 180.383 153.045 180.757ZM150.349 188.413C150.397 189.49 149.657 190.23 148.141 190.626C147.935 191.008 147.748 191.269 147.579 191.404C147.327 191.598 146.952 191.718 146.457 191.763C146.129 191.778 145.783 191.77 145.408 191.733C144.753 191.651 143.949 191.554 142.975 191.434C142.732 191.396 142.564 191.269 142.489 191.045C142.545 190.806 142.863 190.671 143.462 190.626C144.239 190.589 145.39 190.477 146.943 190.298C147.542 190.178 147.963 189.909 148.216 189.49C148.338 189.296 148.403 189.034 148.403 188.713C148.403 188.159 148.047 187.172 147.355 185.752C146.653 184.361 146.326 183.434 146.382 182.97C146.475 181.856 147.776 181.079 150.275 180.638C150.499 180.6 150.612 180.667 150.612 180.847C150.612 180.967 150.518 181.056 150.349 181.116C149.152 181.535 148.553 182.058 148.553 182.671C148.553 182.911 148.6 183.21 148.702 183.569C148.824 183.928 149.161 184.795 149.713 186.17C150.134 187.172 150.349 187.92 150.349 188.413ZM162.225 188.413C162.318 188.533 162.206 188.832 161.888 189.31C160.961 190.708 160.203 192.129 159.605 193.587C159.848 193.662 159.764 193.811 159.342 194.036C158.912 194.252 158.519 194.335 158.145 194.275C157.976 194.252 157.883 194.14 157.883 193.946C157.883 193.684 158.06 193.049 158.407 192.032C158.903 190.596 159.389 189.639 159.867 189.161C160.063 188.966 160.316 188.817 160.615 188.712C161.635 188.436 162.169 188.338 162.225 188.413ZM197.898 177.766C197.598 178.723 196.831 179.95 195.614 181.445C194.388 182.94 193.331 183.95 192.433 184.465C191.806 184.824 191.179 185.004 190.561 185.004C190.205 185.004 189.344 184.787 187.978 184.346C187.697 184.271 187.566 184.166 187.566 184.047C187.566 183.867 187.875 183.778 188.502 183.778C189.522 183.778 190.299 183.613 190.823 183.269C191.89 182.634 192.901 181.744 193.855 180.607C195.1 179.172 195.839 177.759 196.064 176.361C196.185 175.606 195.858 175.157 195.09 175.015C194.735 174.955 194.379 174.948 194.005 174.985C192.283 175.068 190.608 175.374 188.989 175.912C187.136 181.296 185.433 185.595 183.861 188.802C183.954 188.787 184.282 188.638 184.834 188.354C185.152 188.197 185.414 188.129 185.62 188.144C185.938 188.189 186.256 188.443 186.556 188.922C186.827 189.303 186.967 189.595 186.967 189.789C186.967 190.028 186.762 190.133 186.369 190.088C186.088 190.073 185.629 190.2 184.984 190.477C184.282 190.776 183.683 191.127 183.187 191.524C182.934 191.718 182.672 191.823 182.401 191.823C182.026 191.823 181.577 191.621 181.053 191.225C180.698 190.97 180.548 190.746 180.604 190.567C180.651 190.41 180.838 190.297 181.165 190.238C183.879 185.213 185.901 180.63 187.229 176.481C183.037 177.998 180.941 179.404 180.941 180.697C180.941 180.877 180.978 181.056 181.053 181.236C181.072 181.318 181.175 181.55 181.353 181.924C181.4 182.028 181.428 182.118 181.428 182.193C181.428 182.432 181.297 182.552 181.053 182.552C180.698 182.552 180.043 181.774 179.069 180.219C178.92 180.025 178.845 179.815 178.845 179.591C178.845 179.053 179.257 178.484 180.08 177.886C180.651 177.468 181.727 176.892 183.299 176.152C184.993 175.397 186.5 174.821 187.829 174.417C187.978 173.983 188.053 173.625 188.053 173.34C188.053 173.004 188.165 172.832 188.39 172.832C188.69 172.832 189.214 173.154 189.962 173.789C191.806 173.37 193.05 173.161 193.705 173.161C194.95 173.183 195.839 173.699 196.363 174.716C197.037 175.12 197.467 175.426 197.673 175.643C197.973 175.927 198.123 176.256 198.123 176.63C198.123 176.914 198.047 177.288 197.898 177.766ZM212.627 181.415C212.627 182.574 212.44 183.68 212.066 184.735C211.935 185.079 211.766 185.243 211.542 185.243C211.392 185.243 211.055 185.064 210.531 184.705C210.25 184.525 210.175 184.271 210.306 183.927C210.625 183.112 210.793 182.462 210.793 181.983C210.793 181.804 210.737 181.714 210.643 181.714C210.512 181.714 210.306 181.879 210.007 182.193C207.686 184.63 205.946 187.337 204.804 190.327C204.43 191.284 204.111 191.763 203.868 191.763C203.765 191.763 203.316 191.613 202.521 191.314C202.146 191.157 202.015 190.858 202.146 190.417C203.017 187.329 203.962 184.727 204.991 182.611C204.168 183.314 203.644 183.793 203.419 184.047C203.316 184.152 203.194 184.196 203.045 184.196C202.867 184.196 202.783 184.129 202.783 183.987C202.783 183.912 202.82 183.823 202.895 183.718C203.438 183.202 204.177 182.402 205.103 181.325C205.375 180.929 205.646 180.727 205.927 180.727C206.123 180.727 206.535 180.862 207.162 181.116C207.508 181.258 207.555 181.445 207.312 181.684C207.059 181.946 206.601 182.866 205.927 184.436C205.272 185.953 204.823 187.15 204.579 188.024C206.095 185.318 207.836 182.925 209.782 180.847C210.129 180.473 210.419 180.279 210.643 180.279C210.84 180.279 211.111 180.383 211.467 180.578C211.935 180.638 212.234 180.697 212.365 180.757C212.534 180.877 212.627 181.101 212.627 181.415ZM228.966 183C228.938 183.8 228.704 184.847 228.255 186.14C227.525 188.219 226.496 189.819 225.148 190.955C224.446 191.568 223.67 191.882 222.828 191.882C222.472 191.882 222.041 191.822 221.517 191.703C220.469 191.643 219.618 191.389 218.972 190.925C218.242 190.409 217.905 189.744 217.961 188.922C218.008 187.987 218.42 186.671 219.197 184.974C220.039 183.12 220.918 181.789 221.817 180.966C222.266 180.593 222.622 180.398 222.902 180.398C223.277 180.398 223.885 180.712 224.737 181.325C224.98 181.228 225.466 181.056 226.196 180.817C226.543 180.742 226.814 180.697 227.02 180.697C227.441 180.697 227.928 181.019 228.48 181.654C228.826 182.058 228.985 182.507 228.966 183ZM227.02 183.389C227.114 182.791 227.17 182.417 227.17 182.252C227.17 181.879 227.02 181.684 226.72 181.684C226.618 181.684 226.468 181.707 226.271 181.744L223.688 182.582C223.389 182.686 223.211 182.731 223.164 182.731C223.089 182.731 222.996 182.641 222.902 182.462C222.247 183.105 221.648 184.017 221.106 185.213C220.656 186.155 220.357 186.993 220.207 187.725C220.076 188.226 220.02 188.682 220.02 189.101C220.02 190.477 220.544 191.15 221.592 191.105C222.013 191.09 222.472 190.955 222.977 190.716C223.894 190.2 224.774 189.183 225.597 187.666C226.365 186.23 226.842 184.809 227.02 183.389ZM248.946 170.708C249.068 170.791 249.133 170.88 249.133 170.978C249.133 171.157 248.993 171.247 248.721 171.247C248.618 171.247 248.515 171.217 248.422 171.157C247.898 170.94 247.505 170.828 247.261 170.828C246.56 170.828 245.783 171.381 244.941 172.473C241.918 176.383 239.738 181.497 238.39 187.815C239.56 186.26 240.43 185.153 241.01 184.495C242.152 183.165 243.35 182.043 244.604 181.146C245.203 180.712 245.745 180.488 246.251 180.488C246.475 180.488 246.85 180.608 247.374 180.847C248.366 181.228 248.834 181.796 248.759 182.551C248.553 184.286 248.01 185.991 247.112 187.666C246.232 189.28 245.212 190.559 244.042 191.494C243.687 191.748 243.34 191.882 242.994 191.882C242.264 191.882 241.254 191.224 239.962 189.908C239.812 189.751 239.738 189.624 239.738 189.52C239.738 189.385 239.831 189.31 240.037 189.31C240.234 189.31 240.421 189.37 240.598 189.49C241.244 189.953 241.806 190.178 242.283 190.178C242.732 190.178 243.163 189.961 243.593 189.52C244.36 188.742 245.062 187.68 245.689 186.32C246.41 184.809 246.775 183.449 246.775 182.252C246.775 181.796 246.569 181.565 246.176 181.565C245.951 181.565 245.699 181.654 245.427 181.834C244.052 182.791 242.657 184.136 241.235 185.871C239.738 187.748 238.652 189.55 237.978 191.284C237.847 191.598 237.698 191.763 237.529 191.763C237.426 191.763 237.305 191.718 237.155 191.643C236.575 191.344 236.256 191.165 236.182 191.105C235.957 190.925 235.845 190.701 235.845 190.417C235.845 190.282 235.882 190.11 235.957 189.909C237.248 184.226 238.923 179.381 240.973 175.374C242.489 172.383 243.874 170.432 245.128 169.512C245.446 169.273 245.764 169.153 246.064 169.153C246.363 169.153 246.747 169.303 247.224 169.602C247.795 169.983 248.366 170.35 248.946 170.708ZM262.375 176.51C262.543 176.615 262.637 176.735 262.637 176.869C262.637 177.131 262.159 177.527 261.214 178.065C260.559 178.424 259.942 178.559 259.343 178.454C259.015 178.394 258.725 178.297 258.482 178.155C258.407 178.095 258.341 178.036 258.295 177.976C258.266 177.916 258.266 177.879 258.295 177.856C258.314 177.818 258.379 177.811 258.482 177.826C259.502 177.109 260.176 176.593 260.503 176.271C260.774 176.055 260.962 175.942 261.065 175.942C261.261 175.942 261.701 176.136 262.375 176.51ZM260.016 182.372C259.736 183.568 259.043 185.572 257.92 188.383C258.238 188.144 258.688 187.718 259.268 187.097C259.343 187.022 259.418 186.978 259.492 186.978C259.661 186.978 259.689 187.112 259.567 187.366C259.511 187.471 259.043 188.077 258.145 189.191C257.471 190.05 256.985 190.806 256.685 191.464C256.582 191.658 256.395 191.763 256.124 191.763C255.843 191.763 255.487 191.658 255.038 191.464C254.739 191.344 254.589 191.254 254.589 191.194C254.589 191.134 254.645 191.015 254.776 190.835C255.394 189.983 256.068 188.563 256.797 186.589C257.49 184.66 257.892 183.224 257.995 182.282C258.014 181.886 257.967 181.684 257.846 181.684C257.743 181.684 257.556 181.789 257.284 181.983L256.273 182.761C255.899 183.022 255.712 183.03 255.712 182.79C255.712 182.73 255.759 182.641 255.862 182.521C256.386 181.945 256.947 181.385 257.546 180.846C257.715 180.712 257.892 180.637 258.07 180.637C258.239 180.637 258.501 180.742 258.856 180.936C259.352 181.041 259.624 181.101 259.68 181.116C259.951 181.258 260.092 181.497 260.092 181.833C260.092 181.998 260.063 182.178 260.016 182.372ZM276.674 174.387C276.973 174.529 277.123 174.679 277.123 174.836C277.123 174.955 277.02 175.015 276.823 175.015C276.767 175.015 276.692 175.015 276.599 175.015C276.524 175 276.459 174.985 276.412 174.985C275.981 174.985 275.476 175.359 274.877 176.092C274.325 176.75 273.576 178.185 272.631 180.398C272.556 180.6 272.519 180.72 272.519 180.757C272.566 180.817 272.715 180.847 272.968 180.847C273.614 180.907 274.503 180.899 275.626 180.817C276 180.78 276.187 180.9 276.187 181.176C276.187 181.378 276.037 181.505 275.738 181.565C275.513 181.587 274.278 181.67 272.032 181.804C270.703 184.937 269.899 187.576 269.599 189.729C269.599 189.849 269.599 189.961 269.599 190.058C269.599 190.357 269.683 190.507 269.861 190.507C270.161 190.507 271.068 189.924 272.594 188.742C272.762 188.608 272.94 188.533 273.118 188.533C273.268 188.533 273.352 188.585 273.38 188.683C273.427 188.787 273.38 188.907 273.23 189.042C272.332 189.999 271.443 190.821 270.572 191.494C270.198 191.77 269.899 191.913 269.674 191.913C269.421 191.913 269.038 191.748 268.514 191.434C267.887 191.299 267.578 191.03 267.578 190.627C267.578 190.566 267.587 190.499 267.615 190.417C268.008 188.129 268.813 185.296 270.011 181.924C269.43 181.864 268.897 181.804 268.401 181.744C268.195 181.707 268.102 181.595 268.102 181.415C268.102 181.221 268.214 181.101 268.439 181.056C268.663 180.996 269.075 180.9 269.674 180.757C270.048 180.66 270.404 180.518 270.759 180.339C271.929 177.393 272.865 175.479 273.567 174.597C273.941 174.103 274.353 173.849 274.802 173.849C275.223 173.849 275.85 174.028 276.674 174.387ZM292.255 182.551C291.207 184.824 290.496 186.738 290.121 188.294C290.271 188.159 290.477 187.957 290.758 187.695C291.029 187.441 291.207 187.292 291.282 187.247C291.431 187.09 291.59 187.008 291.768 187.008C291.937 187.008 292.03 187.082 292.03 187.217C292.03 187.299 291.993 187.389 291.918 187.486C290.87 188.727 290.168 189.983 289.822 191.254C289.719 191.613 289.569 191.793 289.373 191.793C289.167 191.793 288.811 191.643 288.287 191.344C287.988 191.187 287.819 191.06 287.8 190.955C287.725 190.858 287.725 190.656 287.8 190.357C288.25 188.107 288.83 186.23 289.56 184.735C288.587 185.991 287.258 187.381 285.592 188.892C284.113 190.23 283.056 191.075 282.41 191.434C281.933 191.688 281.568 191.823 281.325 191.823C281.119 191.823 280.819 191.688 280.426 191.434C279.827 191.157 279.528 190.768 279.528 190.267C279.528 190.17 279.547 190.058 279.565 189.938C279.771 188.608 280.482 187.067 281.736 185.333C282.981 183.583 284.413 182.095 286.041 180.877C286.565 180.503 287.033 180.309 287.463 180.309C287.856 180.331 288.624 180.75 289.747 181.565C289.84 181.647 289.896 181.729 289.896 181.804C289.896 181.946 289.784 182.013 289.559 182.013C289.456 182.013 289.372 182.006 289.297 181.983C288.493 181.707 287.856 181.714 287.388 182.013C286.34 182.634 285.18 183.71 283.907 185.243C282.429 187.037 281.549 188.645 281.249 190.058C281.221 190.14 281.212 190.2 281.212 190.237C281.212 190.462 281.325 190.566 281.549 190.566C281.923 190.566 282.373 190.357 282.897 189.938C284.141 188.981 285.489 187.77 286.939 186.29C288.381 184.757 289.316 183.613 289.747 182.851C290.046 182.275 290.243 181.864 290.346 181.624C290.468 181.228 290.617 181.026 290.795 181.026C290.963 181.026 291.356 181.206 291.955 181.565C292.227 181.729 292.377 181.864 292.405 181.983C292.405 182.103 292.348 182.297 292.255 182.551ZM307.237 180.757C307.237 181.161 307.097 181.796 306.825 182.671C306.722 182.97 306.61 183.172 306.488 183.269C306.432 183.314 306.245 183.381 305.927 183.479C305.496 183.598 305.234 183.658 305.141 183.658C304.991 183.658 304.916 183.568 304.916 183.389C304.916 183.292 304.925 183.164 304.953 183C305.225 182.125 305.328 181.52 305.253 181.176C305.197 180.817 305.337 180.6 305.665 180.518C306.207 180.301 306.563 180.189 306.713 180.189C307.059 180.189 307.237 180.383 307.237 180.757ZM304.542 188.413C304.589 189.49 303.849 190.23 302.333 190.626C302.128 191.008 301.94 191.269 301.772 191.404C301.519 191.598 301.145 191.718 300.649 191.763C300.322 191.778 299.975 191.77 299.601 191.733C298.946 191.651 298.141 191.554 297.168 191.434C296.925 191.396 296.756 191.269 296.681 191.045C296.737 190.806 297.056 190.671 297.654 190.626C298.431 190.589 299.582 190.477 301.136 190.298C301.735 190.178 302.156 189.909 302.408 189.49C302.53 189.296 302.596 189.034 302.596 188.713C302.596 188.159 302.24 187.172 301.547 185.752C300.846 184.361 300.518 183.434 300.574 182.97C300.668 181.856 301.969 181.079 304.467 180.638C304.692 180.6 304.804 180.667 304.804 180.847C304.804 180.967 304.71 181.056 304.542 181.116C303.344 181.535 302.745 182.058 302.745 182.671C302.745 182.911 302.792 183.21 302.895 183.569C303.017 183.927 303.353 184.795 303.906 186.17C304.327 187.172 304.542 187.92 304.542 188.413ZM316.427 188.413C316.52 188.533 316.408 188.832 316.09 189.31C315.163 190.708 314.405 192.129 313.806 193.587C314.05 193.662 313.965 193.811 313.544 194.036C313.114 194.252 312.721 194.335 312.347 194.275C312.178 194.252 312.085 194.14 312.085 193.946C312.085 193.684 312.262 193.049 312.609 192.032C313.105 190.596 313.591 189.639 314.068 189.161C314.265 188.966 314.518 188.817 314.817 188.712C315.837 188.436 316.371 188.338 316.427 188.413ZM345.437 177.766C345.062 180.361 344.033 183.254 342.367 186.439C340.421 190.193 338.521 192.069 336.677 192.092C335.573 192.092 334.244 191.621 332.672 190.686C332.541 190.611 332.485 190.499 332.485 190.357C332.485 190.058 332.654 189.909 333.009 189.909C333.103 189.909 333.196 189.924 333.271 189.938C334.244 190.342 335.068 190.551 335.742 190.566C337.211 190.589 338.849 188.824 340.645 185.273C342.339 181.848 343.247 178.768 343.378 176.032C343.425 175.157 342.873 174.716 341.731 174.716C341.553 174.716 341.366 174.731 341.169 174.745C340.29 174.85 339.307 175.403 338.212 176.42C336.958 177.542 336.088 178.813 335.592 180.248C335.536 180.45 335.517 180.63 335.517 180.787C335.517 181.13 335.648 181.43 335.929 181.684C336.172 181.908 336.425 182.117 336.677 182.312C336.799 182.417 336.864 182.506 336.864 182.581C336.864 182.76 336.696 182.85 336.378 182.85C336.228 182.85 336.116 182.835 336.041 182.79C335.068 182.334 334.403 181.968 334.057 181.684C333.626 181.325 333.421 180.928 333.421 180.487C333.421 180.069 333.617 179.493 334.02 178.753C334.59 177.676 335.461 176.622 336.64 175.583C337.707 174.588 338.68 173.953 339.559 173.669C339.953 173.534 340.776 173.609 342.03 173.908C342.124 173.833 342.255 173.788 342.404 173.788C342.825 173.788 343.677 174.117 344.95 174.775C345.521 175.074 345.68 176.077 345.437 177.766ZM363.816 181.774C362.337 183.972 361.233 186.551 360.484 189.52C360.803 189.086 361.177 188.525 361.607 187.845C361.682 187.725 361.776 187.665 361.907 187.665C362.057 187.665 362.131 187.748 362.131 187.905C362.131 187.965 362.112 188.024 362.094 188.084C361.364 189.4 360.896 190.409 360.672 191.105C360.541 191.538 360.372 191.763 360.148 191.763C359.923 191.763 359.483 191.591 358.837 191.254C358.482 191.06 358.37 190.708 358.501 190.207C358.968 188.256 359.53 186.559 360.185 185.123C358.033 187.935 356.227 190.013 354.757 191.344C354.43 191.621 354.084 191.763 353.709 191.763C353.382 191.763 353.007 191.658 352.586 191.464C351.838 191.366 351.463 191.045 351.463 190.507C351.463 190.409 351.463 190.297 351.463 190.178C351.763 187.628 352.343 185.512 353.223 183.837C353.017 183.979 352.736 184.189 352.362 184.465C352.212 184.57 352.1 184.585 352.025 184.526C351.95 184.488 351.969 184.391 352.1 184.226C352.699 183.531 353.045 183.075 353.148 182.851C353.494 182.155 353.859 181.61 354.234 181.206C354.43 181.026 354.645 180.937 354.87 180.937C355.17 180.937 355.619 181.079 356.218 181.355C356.367 181.438 356.442 181.52 356.442 181.595C356.442 181.595 356.311 181.744 356.068 182.043C355.516 182.724 354.926 183.92 354.309 185.632C353.607 187.486 353.26 188.997 353.26 190.148C353.26 190.529 353.354 190.716 353.56 190.716C353.728 190.716 354.018 190.559 354.421 190.238C355.291 189.505 356.536 188.114 358.164 186.081C359.605 184.286 360.485 183.12 360.784 182.582C361.28 181.669 361.683 181.131 361.982 180.967C362.179 180.869 362.366 180.817 362.544 180.817C362.693 180.817 362.993 180.922 363.442 181.116C363.891 181.296 364.116 181.43 364.116 181.505C364.116 181.55 364.06 181.587 363.966 181.625C363.891 181.669 363.835 181.714 363.816 181.774ZM377.993 180.757C377.993 181.161 377.853 181.796 377.582 182.671C377.479 182.97 377.366 183.172 377.245 183.269C377.189 183.314 377.001 183.381 376.683 183.479C376.253 183.598 375.991 183.658 375.897 183.658C375.747 183.658 375.672 183.568 375.672 183.389C375.672 183.292 375.682 183.164 375.71 183C375.981 182.125 376.084 181.52 376.009 181.176C375.953 180.817 376.093 180.6 376.421 180.518C376.963 180.301 377.319 180.189 377.469 180.189C377.815 180.189 377.993 180.383 377.993 180.757ZM375.298 188.413C375.345 189.49 374.606 190.23 373.09 190.626C372.884 191.008 372.697 191.269 372.528 191.404C372.276 191.598 371.901 191.718 371.405 191.763C371.078 191.778 370.731 191.77 370.357 191.733C369.702 191.651 368.897 191.554 367.924 191.434C367.681 191.396 367.512 191.269 367.437 191.045C367.494 190.806 367.812 190.671 368.411 190.626C369.187 190.589 370.338 190.477 371.892 190.298C372.491 190.178 372.912 189.909 373.165 189.49C373.286 189.296 373.352 189.034 373.352 188.713C373.352 188.159 372.996 187.172 372.304 185.752C371.602 184.361 371.274 183.434 371.33 182.97C371.424 181.856 372.725 181.079 375.223 180.638C375.448 180.6 375.56 180.667 375.56 180.847C375.56 180.967 375.467 181.056 375.298 181.116C374.1 181.535 373.502 182.058 373.502 182.671C373.502 182.911 373.549 183.21 373.651 183.569C373.773 183.927 374.11 184.795 374.662 186.17C375.083 187.172 375.298 187.92 375.298 188.413ZM393.275 174.387C393.574 174.529 393.724 174.679 393.724 174.836C393.724 174.955 393.621 175.015 393.425 175.015C393.369 175.015 393.294 175.015 393.2 175.015C393.125 175 393.06 174.985 393.013 174.985C392.583 174.985 392.077 175.359 391.478 176.092C390.926 176.75 390.178 178.185 389.232 180.398C389.157 180.6 389.12 180.72 389.12 180.757C389.167 180.817 389.316 180.847 389.569 180.847C390.215 180.907 391.104 180.899 392.227 180.817C392.601 180.78 392.788 180.9 392.788 181.176C392.788 181.378 392.638 181.505 392.339 181.565C392.115 181.587 390.879 181.67 388.633 181.804C387.304 184.937 386.5 187.576 386.2 189.729C386.2 189.849 386.2 189.961 386.2 190.058C386.2 190.357 386.284 190.507 386.462 190.507C386.762 190.507 387.669 189.924 389.195 188.742C389.363 188.608 389.541 188.533 389.719 188.533C389.869 188.533 389.953 188.585 389.981 188.683C390.028 188.787 389.981 188.907 389.831 189.042C388.933 189.999 388.044 190.821 387.173 191.494C386.799 191.77 386.499 191.913 386.275 191.913C386.022 191.913 385.639 191.748 385.114 191.434C384.487 191.299 384.179 191.03 384.179 190.627C384.179 190.566 384.189 190.499 384.216 190.417C384.609 188.129 385.414 185.296 386.611 181.924C386.031 181.864 385.498 181.804 385.002 181.744C384.796 181.707 384.703 181.595 384.703 181.415C384.703 181.221 384.815 181.101 385.04 181.056C385.264 180.996 385.676 180.9 386.275 180.757C386.649 180.66 387.005 180.518 387.36 180.339C388.53 177.393 389.466 175.479 390.168 174.597C390.542 174.103 390.954 173.849 391.403 173.849C391.824 173.849 392.451 174.028 393.275 174.387ZM404.261 176.51C404.43 176.615 404.523 176.735 404.523 176.869C404.523 177.131 404.046 177.527 403.101 178.065C402.446 178.424 401.828 178.559 401.229 178.454C400.902 178.394 400.612 178.297 400.368 178.155C400.293 178.095 400.228 178.036 400.181 177.976C400.152 177.916 400.152 177.879 400.181 177.856C400.2 177.818 400.265 177.811 400.368 177.826C401.388 177.109 402.062 176.593 402.39 176.271C402.661 176.055 402.848 175.942 402.951 175.942C403.148 175.942 403.588 176.136 404.261 176.51ZM401.903 182.372C401.622 183.568 400.93 185.572 399.807 188.383C400.125 188.144 400.574 187.718 401.154 187.097C401.23 187.022 401.304 186.978 401.379 186.978C401.547 186.978 401.575 187.112 401.454 187.366C401.398 187.471 400.93 188.077 400.032 189.191C399.358 190.05 398.871 190.806 398.572 191.464C398.469 191.658 398.282 191.763 398.01 191.763C397.73 191.763 397.374 191.658 396.925 191.464C396.625 191.344 396.476 191.254 396.476 191.194C396.476 191.134 396.532 191.015 396.663 190.835C397.28 189.983 397.954 188.563 398.684 186.589C399.377 184.66 399.779 183.224 399.882 182.282C399.901 181.886 399.853 181.684 399.732 181.684C399.629 181.684 399.442 181.789 399.171 181.983L398.16 182.761C397.786 183.022 397.599 183.03 397.599 182.79C397.599 182.73 397.646 182.641 397.748 182.521C398.273 181.945 398.834 181.385 399.433 180.846C399.601 180.712 399.779 180.637 399.957 180.637C400.125 180.637 400.387 180.742 400.743 180.936C401.239 181.041 401.51 181.101 401.567 181.116C401.838 181.258 401.978 181.497 401.978 181.833C401.978 181.998 401.949 182.178 401.903 182.372ZM418.551 174.387C418.85 174.529 419 174.679 419 174.836C419 174.955 418.897 175.015 418.701 175.015C418.645 175.015 418.57 175.015 418.476 175.015C418.401 175 418.336 174.985 418.289 174.985C417.859 174.985 417.353 175.359 416.754 176.092C416.202 176.75 415.454 178.185 414.509 180.398C414.433 180.6 414.396 180.72 414.396 180.757C414.443 180.817 414.592 180.847 414.845 180.847C415.491 180.907 416.38 180.899 417.503 180.817C417.877 180.78 418.064 180.9 418.064 181.176C418.064 181.378 417.915 181.505 417.615 181.565C417.391 181.587 416.156 181.67 413.91 181.804C412.581 184.937 411.776 187.576 411.476 189.729C411.476 189.849 411.476 189.961 411.476 190.058C411.476 190.357 411.561 190.507 411.738 190.507C412.038 190.507 412.946 189.924 414.471 188.742C414.639 188.608 414.817 188.533 414.995 188.533C415.145 188.533 415.229 188.585 415.257 188.683C415.304 188.787 415.257 188.907 415.107 189.042C414.209 189.999 413.32 190.821 412.45 191.494C412.075 191.77 411.776 191.913 411.551 191.913C411.298 191.913 410.915 191.748 410.391 191.434C409.764 191.299 409.455 191.03 409.455 190.627C409.455 190.566 409.465 190.499 409.492 190.417C409.885 188.129 410.69 185.296 411.888 181.924C411.307 181.864 410.774 181.804 410.278 181.744C410.072 181.707 409.979 181.595 409.979 181.415C409.979 181.221 410.091 181.101 410.316 181.056C410.54 180.996 410.952 180.9 411.551 180.757C411.925 180.66 412.281 180.518 412.636 180.339C413.806 177.393 414.742 175.479 415.444 174.597C415.818 174.103 416.23 173.849 416.679 173.849C417.1 173.849 417.728 174.028 418.551 174.387ZM429.537 176.51C429.706 176.615 429.799 176.735 429.799 176.869C429.799 177.131 429.322 177.527 428.377 178.065C427.722 178.424 427.104 178.559 426.505 178.454C426.178 178.394 425.888 178.297 425.644 178.155C425.569 178.095 425.504 178.036 425.457 177.976C425.428 177.916 425.428 177.879 425.457 177.856C425.476 177.818 425.541 177.811 425.644 177.826C426.664 177.109 427.338 176.593 427.666 176.271C427.937 176.055 428.124 175.942 428.227 175.942C428.424 175.942 428.864 176.136 429.537 176.51ZM427.179 182.372C426.898 183.568 426.206 185.572 425.083 188.383C425.401 188.144 425.85 187.718 426.43 187.097C426.506 187.022 426.58 186.978 426.655 186.978C426.823 186.978 426.851 187.112 426.73 187.366C426.674 187.471 426.206 188.077 425.308 189.191C424.634 190.05 424.147 190.806 423.848 191.464C423.745 191.658 423.558 191.763 423.286 191.763C423.006 191.763 422.65 191.658 422.201 191.464C421.902 191.344 421.752 191.254 421.752 191.194C421.752 191.134 421.808 191.015 421.939 190.835C422.557 189.983 423.23 188.563 423.96 186.589C424.653 184.66 425.055 183.224 425.158 182.282C425.177 181.886 425.129 181.684 425.008 181.684C424.905 181.684 424.718 181.789 424.447 181.983L423.436 182.761C423.062 183.022 422.875 183.03 422.875 182.79C422.875 182.73 422.922 182.641 423.024 182.521C423.549 181.945 424.11 181.385 424.709 180.846C424.877 180.712 425.055 180.637 425.233 180.637C425.401 180.637 425.663 180.742 426.019 180.936C426.515 181.041 426.786 181.101 426.843 181.116C427.114 181.258 427.254 181.497 427.254 181.833C427.254 181.998 427.225 182.178 427.179 182.372ZM446.036 182.551C444.988 184.824 444.276 186.738 443.902 188.294C444.052 188.159 444.258 187.957 444.538 187.695C444.81 187.441 444.987 187.292 445.062 187.247C445.212 187.09 445.371 187.008 445.549 187.008C445.717 187.008 445.811 187.082 445.811 187.217C445.811 187.299 445.774 187.389 445.699 187.486C444.65 188.727 443.949 189.983 443.602 191.254C443.499 191.613 443.35 191.793 443.153 191.793C442.947 191.793 442.592 191.643 442.068 191.344C441.768 191.187 441.6 191.06 441.581 190.955C441.506 190.858 441.506 190.656 441.581 190.357C442.03 188.107 442.61 186.23 443.34 184.735C442.367 185.991 441.038 187.381 439.372 188.892C437.894 190.23 436.836 191.075 436.191 191.434C435.713 191.688 435.349 191.823 435.105 191.823C434.899 191.823 434.6 191.688 434.207 191.434C433.608 191.157 433.308 190.768 433.308 190.267C433.308 190.17 433.327 190.058 433.346 189.939C433.551 188.608 434.263 187.067 435.517 185.333C436.761 183.583 438.193 182.096 439.821 180.877C440.345 180.503 440.813 180.309 441.244 180.309C441.637 180.331 442.404 180.75 443.527 181.565C443.621 181.647 443.677 181.729 443.677 181.804C443.677 181.946 443.565 182.013 443.34 182.013C443.237 182.013 443.153 182.006 443.078 181.984C442.273 181.707 441.637 181.714 441.169 182.013C440.121 182.634 438.961 183.71 437.688 185.243C436.209 187.038 435.33 188.645 435.03 190.058C435.001 190.14 434.993 190.2 434.993 190.238C434.993 190.462 435.106 190.566 435.33 190.566C435.704 190.566 436.154 190.357 436.678 189.938C437.922 188.981 439.27 187.77 440.72 186.29C442.161 184.757 443.097 183.613 443.528 182.851C443.827 182.275 444.024 181.864 444.127 181.624C444.248 181.228 444.398 181.026 444.576 181.026C444.744 181.026 445.137 181.206 445.736 181.565C446.008 181.729 446.157 181.864 446.185 181.983C446.185 182.103 446.129 182.297 446.036 182.551Z" fill="url(#paint1_radial_3108_1440)"/>
<path d="M9.42432 141.435C9.42432 145.9 10.6938 148.176 12.3134 149.599C14.6334 151.635 17.9382 151.7 19.6016 151.7C21.6809 151.7 24.1103 151.372 26.3427 149.49C29.0348 147.279 29.4069 143.646 29.4069 140.21V136.905C29.4069 132.221 29.4286 131.367 29.4725 130.383C29.5382 129.288 29.757 128.85 30.6325 128.719C31.0265 128.632 31.2016 128.61 31.5737 128.61C31.9457 128.61 32.1208 128.5 32.1208 128.281C32.1208 128.063 31.902 127.997 31.4642 127.997C30.2386 127.997 28.0937 128.063 27.7216 128.063C27.6999 128.063 25.5548 127.997 23.9133 127.997C23.4974 127.997 23.2786 128.063 23.2786 128.281C23.2786 128.5 23.4537 128.61 23.8039 128.61C24.176 128.61 24.7231 128.632 24.9639 128.719C25.9926 129.004 26.2333 129.332 26.3208 130.383C26.3425 131.367 26.3865 132.221 26.3865 136.905V140.779C26.3865 143.952 26.3208 146.622 24.548 148.286C23.2786 149.533 21.6371 149.927 20.2582 149.927C19.1639 149.927 17.6537 149.818 16.2311 148.702C14.6771 147.454 13.8017 145.725 13.8017 141.216V136.905C13.8017 132.221 13.8017 131.367 13.8673 130.383C13.9549 129.288 14.1956 128.85 15.0273 128.719C15.4432 128.632 15.6182 128.61 15.9903 128.61C16.2967 128.61 16.4937 128.5 16.4937 128.281C16.4937 128.063 16.2748 127.997 15.7933 127.997C14.6333 127.997 12.4884 128.063 11.7005 128.063C10.7594 128.063 8.61448 127.997 6.90731 127.997C6.44767 127.997 6.22882 128.063 6.22882 128.281C6.22882 128.5 6.4039 128.61 6.77599 128.61C7.21371 128.61 7.739 128.632 8.00165 128.719C9.00843 129.004 9.31485 129.288 9.38051 130.383C9.44616 131.367 9.42446 132.221 9.42446 136.905L9.42432 141.435ZM39.2613 134.519H39.3708C39.9836 135.066 43.3542 138.787 46.8341 142.136C50.1828 145.353 54.1662 149.161 56.1579 151.022C56.4862 151.35 56.9239 151.678 57.4711 151.678C57.7337 151.678 57.9745 151.372 57.9745 150.693L58.3466 131.258C58.3683 129.507 58.6311 128.96 59.5066 128.719C59.9005 128.61 60.1632 128.61 60.4915 128.61C60.8417 128.61 61.0168 128.457 61.0168 128.281C61.0168 128.019 60.7322 127.997 60.2945 127.997C58.7405 127.997 57.5368 128.063 57.1866 128.063C56.4862 128.063 54.779 127.997 53.1157 127.997C52.656 127.997 52.3277 128.019 52.3277 128.281C52.3277 128.457 52.4372 128.61 52.8311 128.61C53.2688 128.61 54.0349 128.61 54.4945 128.785C55.2605 129.069 55.545 129.617 55.5888 131.499L55.9171 145.222H55.7639C55.3043 144.784 51.0583 140.429 48.8696 138.284C44.2296 133.753 39.4365 128.85 39.0425 128.457C38.4953 127.909 38.0576 127.45 37.6636 127.45C37.3353 127.45 37.1164 127.887 37.1164 128.5L36.832 146.776C36.788 149.446 36.7007 150.299 35.8471 150.518C35.4312 150.606 34.8403 150.65 34.4025 150.65C34.118 150.65 33.8991 150.803 33.8991 150.978C33.8991 151.262 34.1837 151.306 34.6214 151.306C36.2629 151.306 37.7731 151.197 38.0576 151.197C38.6486 151.197 40.1369 151.306 42.1942 151.306C42.6319 151.306 42.9383 151.241 42.9383 150.978C42.9383 150.803 42.7414 150.65 42.3912 150.65C41.8659 150.65 41.2531 150.606 40.7059 150.431C40.093 150.212 39.6991 149.49 39.6334 147.104L39.2613 134.519ZM68.1463 142.355C68.1463 145.331 68.1463 147.782 67.9931 149.052C67.8837 149.971 67.7086 150.409 67.052 150.54C66.7675 150.606 66.3954 150.65 65.9358 150.65C65.5199 150.65 65.4105 150.825 65.4105 150.978C65.4105 151.197 65.6293 151.306 66.0452 151.306C67.2927 151.306 69.4814 151.197 70.2037 151.197C71.0791 151.197 73.2459 151.306 75.347 151.306C75.7191 151.306 75.9817 151.197 75.9817 150.978C75.9817 150.825 75.8285 150.65 75.4565 150.65C74.9968 150.65 74.2746 150.606 73.8368 150.54C72.8957 150.409 72.6769 149.927 72.5674 149.096C72.4142 147.782 72.4142 145.331 72.4142 142.355V136.905C72.4142 132.221 72.4142 131.367 72.4799 130.383C72.5674 129.288 72.8082 128.85 73.6836 128.719C74.0557 128.632 74.2965 128.61 74.6248 128.61C74.953 128.61 75.1282 128.522 75.1282 128.238C75.1282 128.063 74.8874 127.997 74.4935 127.997C73.2459 127.997 71.1886 128.063 70.3788 128.063C69.4814 128.063 67.2928 127.997 66.1109 127.997C65.6075 127.997 65.3448 128.063 65.3448 128.238C65.3448 128.522 65.5199 128.61 65.8483 128.61C66.2422 128.61 66.6581 128.632 67.0082 128.741C67.7086 128.96 68.0369 129.332 68.1026 130.383C68.1465 131.367 68.1465 132.221 68.1465 136.905L68.1463 142.355ZM87.9428 149.862C88.5557 151.306 88.8183 151.7 89.256 151.7C89.6719 151.7 89.9783 151.241 90.7662 149.446C91.4885 147.892 92.9768 144.521 95.0122 140.035C96.7632 136.248 97.5949 134.585 98.8643 131.696C99.696 129.726 100.134 129.266 100.528 128.96C101.075 128.566 101.753 128.61 102.082 128.61C102.41 128.61 102.585 128.5 102.585 128.281C102.585 128.063 102.344 127.997 101.95 127.997C100.965 127.997 99.4771 128.063 98.9299 128.063C98.536 128.063 97.1133 127.997 95.5156 127.997C94.9028 127.997 94.6182 128.063 94.6182 128.281C94.6182 128.5 94.859 128.61 95.1654 128.61C95.5594 128.61 96.0628 128.632 96.4348 128.741C96.7194 128.85 96.8726 128.96 96.8726 129.288C96.8726 129.551 96.7194 130.01 96.5662 130.426C95.8001 132.44 91.7073 142.376 90.3284 145.572H90.219L84.8568 131.761C84.4191 130.667 84.1346 129.835 84.1346 129.441C84.1346 129.157 84.244 128.96 84.4628 128.829C84.7036 128.632 85.1851 128.61 85.6885 128.61C85.973 128.61 86.1919 128.5 86.1919 128.281C86.1919 128.063 85.8417 127.997 85.4477 127.997C83.85 127.997 82.1647 128.063 81.3768 128.063C80.2606 128.063 78.444 127.997 76.7368 127.997C76.2553 127.997 75.927 128.019 75.927 128.281C75.927 128.457 76.0145 128.61 76.2991 128.61C76.5617 128.61 77.0651 128.61 77.5248 128.719C78.6847 129.004 79.1663 129.288 79.8885 130.995L87.9428 149.862ZM106.01 142.355C106.01 145.178 106.01 147.607 105.857 148.921C105.748 149.818 105.573 150.409 104.916 150.54C104.631 150.606 104.259 150.65 103.8 150.65C103.384 150.65 103.274 150.825 103.274 150.978C103.274 151.197 103.493 151.306 103.909 151.306C104.544 151.306 105.354 151.262 106.12 151.241C106.864 151.241 107.564 151.197 107.914 151.197C108.877 151.197 110.059 151.241 111.613 151.262C113.189 151.35 115.115 151.372 117.501 151.372C118.705 151.372 118.989 151.372 119.208 150.584C119.383 149.971 119.646 147.87 119.646 147.169C119.646 146.841 119.602 146.447 119.339 146.447C119.12 146.447 119.055 146.6 118.989 146.907C118.77 148.176 118.398 148.833 117.61 149.205C116.779 149.555 115.422 149.599 114.59 149.599C111.329 149.599 110.344 149.139 110.278 147.016C110.234 146.119 110.278 143.514 110.278 142.464V139.991C110.278 139.816 110.322 139.662 110.453 139.662C111.263 139.662 114.896 139.728 115.465 139.816C116.669 139.925 117.063 140.385 117.238 140.997C117.326 141.413 117.326 141.807 117.348 142.136C117.348 142.267 117.435 142.376 117.654 142.376C117.938 142.376 117.96 141.939 117.96 141.698C117.96 141.479 118.048 140.253 118.114 139.619C118.289 138.065 118.376 137.561 118.376 137.386C118.376 137.189 118.267 137.058 118.114 137.058C117.96 137.058 117.851 137.233 117.61 137.452C117.326 137.78 116.844 137.846 116.078 137.933C115.356 137.999 111.219 137.999 110.497 137.999C110.322 137.999 110.278 137.846 110.278 137.671V130.054C110.278 129.879 110.344 129.77 110.497 129.77C111.154 129.77 114.962 129.835 115.509 129.901C117.107 130.054 117.348 130.492 117.61 131.039C117.785 131.389 117.829 131.937 117.829 132.155C117.829 132.418 117.851 132.549 118.07 132.549C118.332 132.549 118.398 132.199 118.442 132.046C118.508 131.696 118.595 130.339 118.617 130.01C118.704 128.61 118.88 128.238 118.88 128.019C118.88 127.887 118.836 127.734 118.661 127.734C118.508 127.734 118.332 127.844 118.157 127.887C117.895 127.909 117.391 128.019 116.8 128.063C116.188 128.084 109.118 128.063 108.111 128.063C107.192 128.063 105.157 127.997 103.493 127.997C103.034 127.997 102.771 128.063 102.771 128.281C102.771 128.5 102.99 128.61 103.318 128.61C103.8 128.61 104.325 128.632 104.588 128.719C105.594 129.004 105.901 129.332 105.966 130.383C106.01 131.367 106.01 132.221 106.01 136.905L106.01 142.355ZM126.179 142.355C126.179 145.178 126.179 147.607 126.026 148.921C125.916 149.818 125.741 150.409 125.085 150.54C124.8 150.606 124.428 150.65 123.968 150.65C123.552 150.65 123.443 150.825 123.443 150.978C123.443 151.197 123.662 151.306 124.078 151.306C125.325 151.306 127.361 151.197 127.974 151.197C128.455 151.197 131.103 151.306 132.942 151.306C133.358 151.306 133.598 151.197 133.598 150.978C133.598 150.825 133.467 150.65 133.205 150.65C132.811 150.65 132.11 150.606 131.651 150.54C130.666 150.409 130.512 149.818 130.403 148.921C130.272 147.607 130.228 145.222 130.228 142.355V141.917C130.228 141.742 130.337 141.654 130.491 141.654L133.358 141.742C133.577 141.742 133.752 141.764 133.927 141.939C134.321 142.42 135.678 144.478 136.947 146.163C138.72 148.549 139.924 149.993 141.303 150.693C142.134 151.131 142.988 151.306 144.783 151.306H147.825C148.219 151.306 148.438 151.241 148.438 150.978C148.438 150.825 148.284 150.65 148.044 150.65C147.781 150.65 147.606 150.65 147.278 150.584C146.774 150.475 145.636 150.321 143.863 148.549C141.937 146.622 139.705 143.843 136.86 140.363C139.989 137.846 141.303 135.81 141.303 133.534C141.303 131.477 139.946 129.901 139.048 129.288C137.341 128.172 135.021 127.997 132.986 127.997C132.001 127.997 129.112 128.063 128.017 128.063C127.361 128.063 125.325 127.997 123.662 127.997C123.202 127.997 122.94 128.063 122.94 128.281C122.94 128.5 123.159 128.61 123.487 128.61C123.968 128.61 124.494 128.632 124.756 128.719C125.763 129.004 126.069 129.332 126.135 130.383C126.179 131.367 126.179 132.221 126.179 136.905L126.179 142.355ZM130.228 130.12C130.228 129.879 130.315 129.77 130.512 129.682C130.841 129.617 131.607 129.573 132.417 129.573C134.299 129.573 137.275 130.711 137.275 135.066C137.275 137.605 136.181 138.94 135.196 139.619C134.649 140.035 134.211 140.144 132.942 140.144C132.154 140.144 131.213 140.056 130.512 139.838C130.315 139.728 130.228 139.619 130.228 139.312V130.12ZM153.948 151.7C155.655 151.7 157.756 151.525 159.288 150.431C161.608 148.811 162.462 146.951 162.462 144.675C162.462 141.873 161.17 139.509 156.968 137.189L155.655 136.467C152.788 134.869 152.284 133.797 152.284 132.418C152.284 130.317 154.342 129.113 156.64 129.113C158.697 129.113 159.704 129.989 160.185 130.558C160.886 131.367 161.017 132.309 161.017 132.593C161.017 132.965 161.126 133.14 161.345 133.14C161.608 133.14 161.739 132.812 161.739 132.155C161.739 129.726 161.849 128.85 161.849 128.457C161.849 128.238 161.717 128.128 161.411 128.063C160.579 127.844 158.96 127.559 156.88 127.559C152.459 127.559 148.826 129.989 148.826 133.753C148.826 136.467 150.074 138.546 153.838 140.757L155.699 141.829C158.522 143.515 158.85 144.85 158.85 146.185C158.85 148.373 157.165 150.102 154.429 150.102C152.416 150.102 150.03 149.336 149.351 147.06C149.154 146.513 149.045 145.856 149.045 145.462C149.045 145.244 149.023 144.959 148.717 144.959C148.476 144.959 148.323 145.287 148.323 145.747C148.301 146.272 148.148 148.176 148.148 149.862C148.148 150.54 148.257 150.693 148.761 150.912C150.139 151.525 152.109 151.7 153.948 151.7ZM169.372 142.355C169.372 145.331 169.372 147.782 169.219 149.052C169.11 149.971 168.935 150.409 168.278 150.54C167.993 150.606 167.621 150.65 167.162 150.65C166.746 150.65 166.636 150.825 166.636 150.978C166.636 151.197 166.855 151.306 167.271 151.306C168.519 151.306 170.707 151.197 171.43 151.197C172.305 151.197 174.472 151.306 176.573 151.306C176.945 151.306 177.208 151.197 177.208 150.978C177.208 150.825 177.055 150.65 176.682 150.65C176.223 150.65 175.501 150.606 175.063 150.54C174.122 150.409 173.903 149.927 173.793 149.096C173.64 147.782 173.64 145.331 173.64 142.355V136.905C173.64 132.221 173.64 131.367 173.706 130.383C173.793 129.288 174.034 128.85 174.91 128.719C175.282 128.632 175.522 128.61 175.851 128.61C176.179 128.61 176.354 128.522 176.354 128.238C176.354 128.063 176.113 127.997 175.719 127.997C174.472 127.997 172.415 128.063 171.605 128.063C170.707 128.063 168.519 127.997 167.337 127.997C166.833 127.997 166.571 128.063 166.571 128.238C166.571 128.522 166.746 128.61 167.074 128.61C167.468 128.61 167.884 128.632 168.234 128.741C168.935 128.96 169.263 129.332 169.328 130.383C169.372 131.367 169.372 132.221 169.372 136.905L169.372 142.355ZM188.359 142.355C188.359 145.178 188.359 147.607 188.228 148.921C188.118 149.818 187.943 150.409 187.287 150.54C187.024 150.606 186.63 150.65 186.148 150.65C185.754 150.65 185.645 150.825 185.645 150.978C185.645 151.197 185.864 151.306 186.258 151.306C187.527 151.306 189.716 151.197 190.438 151.197C191.336 151.197 193.481 151.306 195.582 151.306C195.954 151.306 196.194 151.197 196.194 150.978C196.194 150.825 196.063 150.65 195.691 150.65C195.232 150.65 194.509 150.606 194.071 150.54C193.13 150.409 192.933 149.818 192.824 148.942C192.693 147.607 192.649 145.178 192.649 142.355V129.879L196.676 129.945C199.543 129.989 200.375 130.93 200.441 131.718L200.485 132.046C200.528 132.527 200.594 132.659 200.835 132.659C201.032 132.659 201.097 132.484 201.141 132.155C201.141 131.367 201.207 129.069 201.207 128.413C201.207 127.953 201.163 127.778 200.944 127.778C200.835 127.778 200.594 127.844 200.091 127.909C199.609 127.997 198.931 128.063 197.902 128.063H184.967C183.916 128.063 182.713 128.019 181.772 127.909C180.962 127.8 180.655 127.559 180.393 127.559C180.218 127.559 180.108 127.734 180.021 128.128C179.955 128.391 179.342 131.367 179.342 131.871C179.342 132.199 179.408 132.374 179.627 132.374C179.845 132.374 179.911 132.221 179.999 131.98C180.064 131.761 180.218 131.367 180.546 130.93C181.006 130.229 181.772 130.01 183.61 129.989L188.359 129.879L188.359 142.355ZM213.802 143.536C213.934 143.536 214.043 143.58 214.109 143.755L216.582 149.971C216.735 150.321 216.516 150.606 216.297 150.65C215.969 150.694 215.903 150.803 215.903 150.978C215.903 151.197 216.254 151.197 216.845 151.241C219.515 151.306 221.835 151.306 222.973 151.306C224.155 151.306 224.352 151.241 224.352 150.978C224.352 150.759 224.198 150.65 223.914 150.65C223.542 150.65 223.192 150.606 222.71 150.54C222.141 150.431 221.222 150.037 219.996 147.235C217.961 142.573 212.642 129.945 211.876 128.238C211.548 127.559 211.395 127.253 210.935 127.253C210.607 127.253 210.344 127.625 209.994 128.5L201.633 147.892C200.999 149.446 200.451 150.409 199.007 150.606C198.7 150.606 198.35 150.65 198.044 150.65C197.803 150.65 197.694 150.803 197.694 150.978C197.694 151.241 197.869 151.306 198.263 151.306C199.948 151.306 201.633 151.197 201.962 151.197C202.99 151.197 204.479 151.306 205.529 151.306C205.857 151.306 206.032 151.241 206.032 150.978C206.032 150.803 205.967 150.65 205.551 150.65H205.091C204.106 150.65 203.822 150.322 203.822 149.774C203.822 149.424 203.975 148.658 204.282 147.892L205.989 143.756C206.076 143.58 206.098 143.537 206.295 143.537L213.802 143.536ZM206.93 141.829C206.82 141.829 206.755 141.764 206.82 141.632L209.906 133.819C209.95 133.709 209.994 133.534 210.103 133.534C210.169 133.534 210.213 133.709 210.235 133.819L213.255 141.654C213.277 141.764 213.255 141.829 213.102 141.829H206.93ZM230.912 151.7C232.619 151.7 234.72 151.525 236.253 150.431C238.573 148.811 239.426 146.951 239.426 144.675C239.426 141.873 238.135 139.509 233.933 137.189L232.619 136.467C229.752 134.869 229.249 133.797 229.249 132.418C229.249 130.317 231.306 129.113 233.604 129.113C235.662 129.113 236.668 129.989 237.15 130.558C237.85 131.367 237.982 132.309 237.982 132.593C237.982 132.965 238.091 133.14 238.31 133.14C238.573 133.14 238.704 132.812 238.704 132.155C238.704 129.726 238.813 128.85 238.813 128.457C238.813 128.238 238.682 128.128 238.376 128.063C237.544 127.844 235.924 127.559 233.845 127.559C229.424 127.559 225.791 129.989 225.791 133.753C225.791 136.467 227.038 138.546 230.803 140.757L232.663 141.829C235.487 143.515 235.815 144.85 235.815 146.185C235.815 148.373 234.13 150.102 231.394 150.102C229.38 150.102 226.994 149.336 226.316 147.06C226.119 146.513 226.01 145.856 226.01 145.462C226.01 145.244 225.988 144.959 225.681 144.959C225.44 144.959 225.287 145.287 225.287 145.747C225.266 146.272 225.112 148.176 225.112 149.862C225.112 150.54 225.222 150.693 225.725 150.912C227.104 151.525 229.074 151.7 230.912 151.7Z" fill="url(#paint2_radial_3108_1440)"/>
<path d="M260.434 142.355L260.434 136.905C260.434 132.221 260.434 131.367 260.39 130.383C260.325 129.332 259.996 128.96 259.296 128.741C258.946 128.631 258.53 128.61 258.136 128.61C257.808 128.61 257.633 128.522 257.633 128.238C257.633 128.063 257.895 127.997 258.399 127.997C259.581 127.997 261.769 128.063 262.667 128.063C263.476 128.063 265.534 127.997 266.781 127.997C267.175 127.997 267.416 128.063 267.416 128.238C267.416 128.522 267.241 128.61 266.913 128.61C266.584 128.61 266.344 128.632 265.971 128.719C265.096 128.85 264.855 129.288 264.768 130.383C264.702 131.367 264.702 132.221 264.702 136.905V142.355C264.702 145.331 264.702 147.782 264.855 149.096C264.965 149.927 265.184 150.409 266.125 150.54C266.562 150.606 267.285 150.65 267.744 150.65C268.116 150.65 268.27 150.825 268.27 150.978C268.27 151.197 268.007 151.306 267.635 151.306C265.534 151.306 263.367 151.197 262.491 151.197C261.769 151.197 259.581 151.306 258.333 151.306C257.917 151.306 257.698 151.197 257.698 150.978C257.698 150.825 257.808 150.65 258.224 150.65C258.683 150.65 259.055 150.606 259.34 150.54C259.996 150.409 260.171 149.971 260.281 149.052C260.434 147.782 260.434 145.331 260.434 142.355Z" fill="url(#paint3_radial_3108_1440)"/>
<path d="M279.902 134.519H279.793L280.165 147.104C280.231 149.49 280.625 150.212 281.237 150.431C281.785 150.606 282.397 150.65 282.923 150.65C283.273 150.65 283.47 150.803 283.47 150.978C283.47 151.241 283.163 151.306 282.726 151.306C280.668 151.306 279.18 151.197 278.589 151.197C278.305 151.197 276.794 151.306 275.153 151.306C274.715 151.306 274.431 151.262 274.431 150.978C274.431 150.803 274.65 150.65 274.934 150.65C275.372 150.65 275.963 150.606 276.379 150.518C277.232 150.299 277.32 149.446 277.364 146.776L277.648 128.5C277.648 127.887 277.867 127.45 278.195 127.45C278.589 127.45 279.027 127.909 279.574 128.457C279.968 128.85 284.761 133.753 289.401 138.284C291.59 140.429 295.836 144.784 296.295 145.222H296.449L296.12 131.499C296.077 129.617 295.792 129.069 295.026 128.785C294.566 128.61 293.8 128.61 293.363 128.61C292.969 128.61 292.859 128.457 292.859 128.281C292.859 128.019 293.188 127.997 293.647 127.997C295.311 127.997 297.018 128.063 297.718 128.063C298.068 128.063 299.272 127.997 300.826 127.997C301.264 127.997 301.548 128.019 301.548 128.281C301.548 128.457 301.373 128.61 301.023 128.61C300.695 128.61 300.432 128.61 300.038 128.719C299.163 128.96 298.9 129.507 298.878 131.258L298.506 150.693C298.506 151.372 298.265 151.678 298.003 151.678C297.455 151.678 297.018 151.35 296.689 151.022C294.698 149.161 290.714 145.353 287.366 142.136C283.886 138.787 280.515 135.066 279.902 134.519Z" fill="url(#paint4_radial_3108_1440)"/>
<path d="M378.376 134.519H378.267L378.639 147.104C378.704 149.49 379.098 150.212 379.711 150.431C380.258 150.606 380.871 150.65 381.396 150.65C381.747 150.65 381.944 150.803 381.944 150.978C381.944 151.241 381.637 151.306 381.199 151.306C379.142 151.306 377.654 151.197 377.063 151.197C376.778 151.197 375.268 151.306 373.627 151.306C373.189 151.306 372.904 151.262 372.904 150.978C372.904 150.803 373.123 150.65 373.408 150.65C373.846 150.65 374.436 150.606 374.852 150.518C375.706 150.299 375.793 149.446 375.837 146.776L376.122 128.5C376.122 127.887 376.341 127.45 376.669 127.45C377.063 127.45 377.501 127.909 378.048 128.457C378.442 128.85 383.235 133.753 387.875 138.284C390.064 140.429 394.31 144.784 394.769 145.222H394.922L394.594 131.499C394.55 129.617 394.266 129.069 393.5 128.785C393.04 128.61 392.274 128.61 391.836 128.61C391.442 128.61 391.333 128.457 391.333 128.281C391.333 128.019 391.661 127.997 392.121 127.997C393.784 127.997 395.491 128.063 396.192 128.063C396.542 128.063 397.746 127.997 399.3 127.997C399.737 127.997 400.022 128.019 400.022 128.281C400.022 128.457 399.847 128.61 399.497 128.61C399.168 128.61 398.906 128.61 398.512 128.719C397.636 128.96 397.374 129.507 397.352 131.258L396.98 150.693C396.98 151.372 396.739 151.678 396.476 151.678C395.929 151.678 395.491 151.35 395.163 151.022C393.171 149.161 389.188 145.353 385.839 142.136C382.359 138.787 378.989 135.066 378.376 134.519Z" fill="url(#paint5_radial_3108_1440)"/>
<path d="M410.123 142.355L410.123 136.9C410.123 132.22 410.123 131.367 410.079 130.383C410.013 129.332 409.707 129.004 408.7 128.719C408.437 128.631 407.912 128.61 407.431 128.61C407.102 128.61 406.884 128.5 406.884 128.281C406.884 128.063 407.146 127.997 407.606 127.997C409.269 127.997 411.305 128.063 412.224 128.063C413.231 128.063 420.3 128.084 420.913 128.063C421.504 128.019 422.007 127.909 422.27 127.888C422.445 127.844 422.62 127.734 422.773 127.734C422.948 127.734 422.992 127.888 422.992 128.019C422.992 128.238 422.817 128.61 422.729 130.011L422.726 130.069C422.699 130.476 422.617 131.714 422.554 132.046C422.511 132.199 422.445 132.549 422.182 132.549C421.963 132.549 421.942 132.418 421.942 132.155C421.942 131.937 421.898 131.389 421.723 131.039C421.46 130.492 421.219 130.054 419.622 129.901C419.074 129.835 415.266 129.77 414.609 129.77C414.456 129.77 414.391 129.879 414.391 130.054V137.671C414.391 137.846 414.434 137.999 414.609 137.999C415.332 137.999 419.468 137.999 420.191 137.933C420.957 137.846 421.438 137.78 421.723 137.452C421.963 137.233 422.073 137.058 422.226 137.058C422.379 137.058 422.489 137.189 422.489 137.386C422.489 137.561 422.401 138.065 422.226 139.619C422.16 140.253 422.073 141.479 422.073 141.698C422.073 141.939 422.051 142.376 421.766 142.376C421.547 142.376 421.46 142.267 421.46 142.136C421.438 141.807 421.438 141.413 421.351 140.997C421.175 140.385 420.781 139.925 419.578 139.816C419.009 139.728 415.375 139.662 414.566 139.662C414.435 139.662 414.391 139.816 414.391 139.991V142.464C414.391 143.514 414.347 146.119 414.391 147.016C414.456 149.139 415.441 149.599 418.702 149.599C419.534 149.599 420.891 149.555 421.723 149.205C422.511 148.833 422.883 148.176 423.101 146.907C423.167 146.6 423.233 146.447 423.452 146.447C423.714 146.447 423.758 146.841 423.758 147.169C423.758 147.87 423.495 149.971 423.32 150.584C423.102 151.372 422.817 151.372 421.613 151.372C419.228 151.372 417.302 151.35 415.726 151.262C414.172 151.241 412.99 151.197 412.027 151.197C411.677 151.197 410.976 151.241 410.232 151.241C409.466 151.262 408.656 151.306 408.022 151.306C407.606 151.306 407.387 151.197 407.387 150.978C407.387 150.825 407.496 150.65 407.912 150.65C408.372 150.65 408.744 150.606 409.028 150.54C409.685 150.409 409.86 149.818 409.97 148.921C410.123 147.607 410.123 145.178 410.123 142.355Z" fill="url(#paint6_radial_3108_1440)"/>
<path d="M442.767 150.431C441.235 151.525 439.134 151.7 437.426 151.7C435.588 151.7 433.618 151.525 432.239 150.912C431.736 150.693 431.626 150.54 431.626 149.862C431.626 148.176 431.78 146.272 431.802 145.747C431.802 145.287 431.955 144.959 432.195 144.959C432.502 144.959 432.524 145.244 432.524 145.462C432.524 145.856 432.633 146.513 432.83 147.06C433.509 149.336 435.894 150.102 437.908 150.102C440.644 150.102 442.329 148.373 442.329 146.185C442.329 144.85 442.001 143.515 439.177 141.829L437.317 140.757C433.552 138.546 432.305 136.467 432.305 133.753C432.305 129.989 435.938 127.559 440.359 127.559C442.438 127.559 444.058 127.844 444.89 128.063C445.196 128.128 445.327 128.238 445.327 128.457C445.327 128.85 445.218 129.726 445.218 132.155C445.218 132.812 445.087 133.14 444.824 133.14C444.605 133.14 444.496 132.965 444.496 132.593C444.496 132.309 444.364 131.367 443.664 130.558C443.183 129.989 442.176 129.113 440.118 129.113C437.82 129.113 435.763 130.317 435.763 132.418C435.763 133.797 436.266 134.869 439.134 136.467L440.447 137.189C444.649 139.509 445.94 141.873 445.94 144.675C445.94 146.951 445.087 148.811 442.767 150.431Z" fill="url(#paint7_radial_3108_1440)"/>
<path d="M455.669 149.052C455.822 147.782 455.822 145.331 455.822 142.355L455.822 136.905C455.822 132.221 455.822 131.367 455.779 130.383C455.713 129.332 455.384 128.96 454.684 128.741C454.334 128.631 453.918 128.61 453.524 128.61C453.196 128.61 453.021 128.522 453.021 128.238C453.021 128.063 453.283 127.997 453.787 127.997C454.969 127.997 457.157 128.063 458.055 128.063C458.865 128.063 460.922 127.997 462.169 127.997C462.563 127.997 462.804 128.063 462.804 128.238C462.804 128.522 462.629 128.61 462.301 128.61C461.972 128.61 461.732 128.632 461.36 128.719C460.484 128.85 460.243 129.288 460.156 130.383C460.09 131.367 460.09 132.221 460.09 136.905V142.355C460.09 145.331 460.09 147.782 460.243 149.096C460.353 149.927 460.572 150.409 461.513 150.54C461.95 150.606 462.673 150.65 463.132 150.65C463.504 150.65 463.658 150.825 463.658 150.978C463.658 151.197 463.395 151.306 463.023 151.306C460.922 151.306 458.755 151.197 457.88 151.197C457.157 151.197 454.969 151.306 453.721 151.306C453.305 151.306 453.086 151.197 453.086 150.978C453.086 150.825 453.196 150.65 453.612 150.65C454.071 150.65 454.443 150.606 454.728 150.54C455.384 150.409 455.56 149.971 455.669 149.052Z" fill="url(#paint8_radial_3108_1440)"/>
<path fill-rule="evenodd" clip-rule="evenodd" d="M354.328 151.7C362.557 151.7 367.701 146.163 367.701 139.093C367.701 132.002 362.711 127.559 354.656 127.559C344.982 127.559 341.284 134.366 341.284 139.619C341.284 145.112 345.048 151.7 354.328 151.7ZM345.989 138.678C345.989 145.025 349.622 150.037 355.641 150.037C357.874 150.037 362.951 148.986 362.951 140.21C362.951 133.381 358.859 129.179 353.715 129.179C350.17 129.179 345.989 131.061 345.989 138.678Z" fill="url(#paint9_radial_3108_1440)"/>
<path fill-rule="evenodd" clip-rule="evenodd" d="M311.649 136.905L311.649 142.355C311.649 145.178 311.649 147.607 311.496 148.921C311.386 149.818 311.211 150.409 310.555 150.54C310.27 150.606 309.898 150.65 309.438 150.65C309.023 150.65 308.913 150.825 308.913 150.978C308.913 151.197 309.132 151.306 309.548 151.306C309.957 151.306 310.439 151.288 310.935 151.269C311.208 151.259 311.486 151.248 311.758 151.241C312.2 151.241 312.626 151.225 312.972 151.213C313.21 151.204 313.411 151.197 313.553 151.197C314.363 151.197 315.523 151.262 316.792 151.372C316.959 151.383 317.127 151.395 317.296 151.407C318.419 151.486 319.593 151.569 320.601 151.569C326.466 151.569 329.837 149.38 331.303 147.936C333.12 146.163 334.783 143.208 334.783 139.334C334.783 135.679 333.361 133.096 331.763 131.499C328.283 127.997 322.921 127.997 318.937 127.997C317.809 127.997 316.553 128.019 315.513 128.038C314.777 128.051 314.149 128.062 313.75 128.062C313.358 128.062 312.763 128.05 312.081 128.037C311.163 128.018 310.086 127.997 309.132 127.997C308.672 127.997 308.41 128.062 308.41 128.281C308.41 128.5 308.629 128.61 308.957 128.61C309.438 128.61 309.964 128.631 310.226 128.719C311.233 129.003 311.54 129.332 311.605 130.382C311.649 131.367 311.649 132.221 311.649 136.905ZM315.961 130.426C315.917 131.477 315.917 134.016 315.917 136.445L315.917 140.319C315.917 143.58 315.961 145.944 315.983 146.557C316.027 147.323 316.092 148.395 316.355 148.724C316.749 149.315 318.018 149.971 320.535 149.971C323.424 149.971 325.569 149.446 327.495 147.87C329.552 146.163 330.209 143.405 330.209 140.21C330.209 136.292 328.655 133.753 327.232 132.527C324.3 129.901 320.82 129.573 318.303 129.573C317.668 129.573 316.617 129.66 316.355 129.792C316.07 129.901 315.961 130.054 315.961 130.426Z" fill="url(#paint10_radial_3108_1440)"/>
<path fill-rule="evenodd" clip-rule="evenodd" d="M482.442 143.536C482.573 143.536 482.683 143.58 482.748 143.755L485.221 149.971C485.375 150.321 485.156 150.606 484.937 150.65C484.609 150.694 484.543 150.803 484.543 150.978C484.543 151.175 484.827 151.195 485.314 151.228C485.368 151.232 485.425 151.236 485.484 151.241C488.154 151.306 490.474 151.306 491.612 151.306C492.794 151.306 492.991 151.241 492.991 150.978C492.991 150.759 492.838 150.65 492.554 150.65C492.181 150.65 491.831 150.606 491.35 150.54C490.781 150.431 489.861 150.037 488.636 147.235C487.543 144.732 485.503 139.93 483.729 135.757C482.201 132.159 480.87 129.028 480.516 128.238C480.188 127.559 480.034 127.253 479.575 127.253C479.246 127.253 478.984 127.625 478.634 128.5L470.273 147.892C469.638 149.446 469.091 150.409 467.646 150.606C467.493 150.606 467.329 150.617 467.165 150.628C467.001 150.639 466.837 150.65 466.683 150.65C466.443 150.65 466.333 150.803 466.333 150.978C466.333 151.241 466.508 151.306 466.902 151.306C468.071 151.306 469.241 151.254 469.957 151.221C470.273 151.207 470.501 151.197 470.601 151.197C471.113 151.197 471.738 151.224 472.367 151.251C473.002 151.279 473.641 151.306 474.169 151.306C474.497 151.306 474.672 151.241 474.672 150.978C474.672 150.803 474.606 150.65 474.191 150.65H473.731C472.746 150.65 472.461 150.322 472.461 149.774C472.461 149.424 472.615 148.658 472.921 147.892L474.628 143.756C474.716 143.58 474.738 143.537 474.935 143.537L482.442 143.536ZM475.46 141.632C475.394 141.764 475.46 141.829 475.569 141.829L481.741 141.829C481.895 141.829 481.916 141.764 481.895 141.654L478.874 133.819C478.852 133.709 478.809 133.534 478.743 133.534C478.651 133.534 478.605 133.658 478.567 133.763C478.56 133.783 478.553 133.801 478.546 133.819L475.46 141.632Z" fill="url(#paint11_radial_3108_1440)"/>
</g>
<g filter="url(#filter1_din_3108_1440)">
<path d="M6.22876 160.773H492.276Z" fill="white"/>
<path d="M6.22876 160.773H492.276" stroke="white" stroke-width="1.55844" stroke-miterlimit="2.613"/>
</g>
<defs>
<filter id="filter0_din_3108_1440" x="0.78174" y="0.29387" width="497.657" height="199.447" filterUnits="userSpaceOnUse" color-interpolation-filters="sRGB">
<feFlood flood-opacity="0" result="BackgroundImageFix"/>
<feColorMatrix in="SourceAlpha" type="matrix" values="0 0 0 0 0 0 0 0 0 0 0 0 0 0 0 0 0 0 127 0" result="hardAlpha"/>
<feOffset/>
<feGaussianBlur stdDeviation="2.72354"/>
<feComposite in2="hardAlpha" operator="out"/>
<feColorMatrix type="matrix" values="0 0 0 0 0 0 0 0 0 0 0 0 0 0 0 0 0 0 0.58 0"/>
<feBlend mode="normal" in2="BackgroundImageFix" result="effect1_dropShadow_3108_1440"/>
<feBlend mode="normal" in="SourceGraphic" in2="BackgroundImageFix" result="shape"/>
<feColorMatrix in="SourceAlpha" type="matrix" values="0 0 0 0 0 0 0 0 0 0 0 0 0 0 0 0 0 0 127 0" result="hardAlpha"/>
<feOffset dy="4.19006"/>
<feGaussianBlur stdDeviation="18.0173"/>
<feComposite in2="hardAlpha" operator="arithmetic" k2="-1" k3="1"/>
<feColorMatrix type="matrix" values="0 0 0 0 0 0 0 0 0 0 0 0 0 0 0 0 0 0 0.14 0"/>
<feBlend mode="normal" in2="shape" result="effect2_innerShadow_3108_1440"/>
<feTurbulence type="fractalNoise" baseFrequency="2.3865993022918701 2.3865993022918701" stitchTiles="stitch" numOctaves="3" result="noise" seed="122" />
<feColorMatrix in="noise" type="luminanceToAlpha" result="alphaNoise" />
<feComponentTransfer in="alphaNoise" result="coloredNoise1">
<feFuncA type="discrete" tableValues="1 1 1 1 1 1 1 1 1 1 1 1 1 1 1 1 1 1 1 1 1 1 1 1 1 1 1 1 1 1 1 1 1 1 1 1 1 1 1 1 1 1 1 1 1 1 1 1 1 1 1 0 0 0 0 0 0 0 0 0 0 0 0 0 0 0 0 0 0 0 0 0 0 0 0 0 0 0 0 0 0 0 0 0 0 0 0 0 0 0 0 0 0 0 0 0 0 0 0 0 "/>
</feComponentTransfer>
<feComposite operator="in" in2="effect2_innerShadow_3108_1440" in="coloredNoise1" result="noise1Clipped" />
<feFlood flood-color="rgba(0, 0, 0, 0.11)" result="color1Flood" />
<feComposite operator="in" in2="noise1Clipped" in="color1Flood" result="color1" />
<feMerge result="effect3_noise_3108_1440">
<feMergeNode in="effect2_innerShadow_3108_1440" />
<feMergeNode in="color1" />
</feMerge>
<feBlend mode="normal" in="effect3_noise_3108_1440" in2="effect1_dropShadow_3108_1440" result="effect3_noise_3108_1440"/>
</filter>
<filter id="filter1_din_3108_1440" x="0.781679" y="154.547" width="496.941" height="12.4526" filterUnits="userSpaceOnUse" color-interpolation-filters="sRGB">
<feFlood flood-opacity="0" result="BackgroundImageFix"/>
<feColorMatrix in="SourceAlpha" type="matrix" values="0 0 0 0 0 0 0 0 0 0 0 0 0 0 0 0 0 0 127 0" result="hardAlpha"/>
<feOffset/>
<feGaussianBlur stdDeviation="2.72354"/>
<feComposite in2="hardAlpha" operator="out"/>
<feColorMatrix type="matrix" values="0 0 0 0 0 0 0 0 0 0 0 0 0 0 0 0 0 0 0.58 0"/>
<feBlend mode="normal" in2="BackgroundImageFix" result="effect1_dropShadow_3108_1440"/>
<feBlend mode="normal" in="SourceGraphic" in2="BackgroundImageFix" result="shape"/>
<feColorMatrix in="SourceAlpha" type="matrix" values="0 0 0 0 0 0 0 0 0 0 0 0 0 0 0 0 0 0 127 0" result="hardAlpha"/>
<feOffset dy="4.19006"/>
<feGaussianBlur stdDeviation="18.0173"/>
<feComposite in2="hardAlpha" operator="arithmetic" k2="-1" k3="1"/>
<feColorMatrix type="matrix" values="0 0 0 0 0 0 0 0 0 0 0 0 0 0 0 0 0 0 0.14 0"/>
<feBlend mode="normal" in2="shape" result="effect2_innerShadow_3108_1440"/>
<feTurbulence type="fractalNoise" baseFrequency="2.3865993022918701 2.3865993022918701" stitchTiles="stitch" numOctaves="3" result="noise" seed="122" />
<feColorMatrix in="noise" type="luminanceToAlpha" result="alphaNoise" />
<feComponentTransfer in="alphaNoise" result="coloredNoise1">
<feFuncA type="discrete" tableValues="1 1 1 1 1 1 1 1 1 1 1 1 1 1 1 1 1 1 1 1 1 1 1 1 1 1 1 1 1 1 1 1 1 1 1 1 1 1 1 1 1 1 1 1 1 1 1 1 1 1 1 0 0 0 0 0 0 0 0 0 0 0 0 0 0 0 0 0 0 0 0 0 0 0 0 0 0 0 0 0 0 0 0 0 0 0 0 0 0 0 0 0 0 0 0 0 0 0 0 0 "/>
</feComponentTransfer>
<feComposite operator="in" in2="effect2_innerShadow_3108_1440" in="coloredNoise1" result="noise1Clipped" />
<feFlood flood-color="rgba(0, 0, 0, 0.11)" result="color1Flood" />
<feComposite operator="in" in2="noise1Clipped" in="color1Flood" result="color1" />
<feMerge result="effect3_noise_3108_1440">
<feMergeNode in="effect2_innerShadow_3108_1440" />
<feMergeNode in="color1" />
</feMerge>
<feBlend mode="normal" in="effect3_noise_3108_1440" in2="effect1_dropShadow_3108_1440" result="effect3_noise_3108_1440"/>
</filter>
<radialGradient id="paint0_radial_3108_1440" cx="0" cy="0" r="1" gradientUnits="userSpaceOnUse" gradientTransform="translate(249.056 125.307) rotate(89.7945) scale(154.287 398.302)">
<stop stop-color="white"/>
<stop offset="1" stop-color="white"/>
</radialGradient>
<radialGradient id="paint1_radial_3108_1440" cx="0" cy="0" r="1" gradientUnits="userSpaceOnUse" gradientTransform="translate(249.056 125.307) rotate(89.7945) scale(154.287 398.302)">
<stop stop-color="white"/>
<stop offset="1" stop-color="white"/>
</radialGradient>
<radialGradient id="paint2_radial_3108_1440" cx="0" cy="0" r="1" gradientUnits="userSpaceOnUse" gradientTransform="translate(249.056 125.307) rotate(89.7945) scale(154.287 398.302)">
<stop stop-color="white"/>
<stop offset="1" stop-color="white"/>
</radialGradient>
<radialGradient id="paint3_radial_3108_1440" cx="0" cy="0" r="1" gradientUnits="userSpaceOnUse" gradientTransform="translate(249.056 125.307) rotate(89.7945) scale(154.287 398.302)">
<stop stop-color="white"/>
<stop offset="1" stop-color="white"/>
</radialGradient>
<radialGradient id="paint4_radial_3108_1440" cx="0" cy="0" r="1" gradientUnits="userSpaceOnUse" gradientTransform="translate(249.056 125.307) rotate(89.7945) scale(154.287 398.302)">
<stop stop-color="white"/>
<stop offset="1" stop-color="white"/>
</radialGradient>
<radialGradient id="paint5_radial_3108_1440" cx="0" cy="0" r="1" gradientUnits="userSpaceOnUse" gradientTransform="translate(249.056 125.307) rotate(89.7945) scale(154.287 398.302)">
<stop stop-color="white"/>
<stop offset="1" stop-color="white"/>
</radialGradient>
<radialGradient id="paint6_radial_3108_1440" cx="0" cy="0" r="1" gradientUnits="userSpaceOnUse" gradientTransform="translate(249.056 125.307) rotate(89.7945) scale(154.287 398.302)">
<stop stop-color="white"/>
<stop offset="1" stop-color="white"/>
</radialGradient>
<radialGradient id="paint7_radial_3108_1440" cx="0" cy="0" r="1" gradientUnits="userSpaceOnUse" gradientTransform="translate(249.056 125.307) rotate(89.7945) scale(154.287 398.302)">
<stop stop-color="white"/>
<stop offset="1" stop-color="white"/>
</radialGradient>
<radialGradient id="paint8_radial_3108_1440" cx="0" cy="0" r="1" gradientUnits="userSpaceOnUse" gradientTransform="translate(249.056 125.307) rotate(89.7945) scale(154.287 398.302)">
<stop stop-color="white"/>
<stop offset="1" stop-color="white"/>
</radialGradient>
<radialGradient id="paint9_radial_3108_1440" cx="0" cy="0" r="1" gradientUnits="userSpaceOnUse" gradientTransform="translate(249.056 125.307) rotate(89.7945) scale(154.287 398.302)">
<stop stop-color="white"/>
<stop offset="1" stop-color="white"/>
</radialGradient>
<radialGradient id="paint10_radial_3108_1440" cx="0" cy="0" r="1" gradientUnits="userSpaceOnUse" gradientTransform="translate(249.056 125.307) rotate(89.7945) scale(154.287 398.302)">
<stop stop-color="white"/>
<stop offset="1" stop-color="white"/>
</radialGradient>
<radialGradient id="paint11_radial_3108_1440" cx="0" cy="0" r="1" gradientUnits="userSpaceOnUse" gradientTransform="translate(249.056 125.307) rotate(89.7945) scale(154.287 398.302)">
<stop stop-color="white"/>
<stop offset="1" stop-color="white"/>
</radialGradient>
</defs>
</svg>
