<svg width="235" height="74" viewBox="0 0 235 74" fill="none" xmlns="http://www.w3.org/2000/svg">
<path fill-rule="evenodd" clip-rule="evenodd" d="M34.1396 69.3151C34.2127 69.3199 34.2858 69.3235 34.3601 69.3247C37.0829 69.3726 39.3599 66.7313 37.8523 63.5399C37.6869 66.0098 36.5999 67.3449 34.299 67.3449C34.245 67.3449 34.1923 67.3449 34.1396 67.3437C34.0869 67.3449 34.0341 67.3449 33.9802 67.3449C31.6792 67.3449 30.5923 66.0098 30.4257 63.5399C28.9181 66.7313 31.1963 69.3726 33.9191 69.3247C33.9934 69.3235 34.0665 69.3199 34.1396 69.3151ZM34.1396 65.3867C34.1971 65.3915 34.2558 65.395 34.317 65.395C36.3387 65.4478 36.7665 63.3997 36.2668 62.1641C35.9456 63.3997 35.0108 64.0277 34.1396 63.8299C33.2683 64.0277 32.3324 63.3997 32.0124 62.1641C31.5127 63.3997 31.9405 65.4478 33.9622 65.395C34.0233 65.395 34.0821 65.3915 34.1396 65.3867ZM34.1396 59.2759C34.3613 59.2675 34.5734 59.2663 34.77 59.2747C41.1347 59.554 49.2432 61.7387 52.5868 60.442C54.8842 59.5516 58.5933 56.7676 60.3238 59.2136C60.8487 59.9554 58.7395 61.7986 58.6964 59.6175C57.8431 57.8618 56.0179 60.4863 57.3433 61.8801C52.5137 66.657 39.3839 61.2102 38.1291 60.8566C37.7708 60.7548 37.5719 61.1371 37.8559 61.644C38.3137 62.4613 39.7194 63.6561 40.0598 64.9145C40.7465 67.4503 38.7056 71.5178 34.6369 71.6316C34.468 71.6364 34.3014 71.6328 34.1396 71.6244C33.9778 71.6328 33.8112 71.6364 33.641 71.6316C29.5736 71.5178 27.5327 67.4503 28.2194 64.9145C28.5598 63.6561 29.9655 62.4613 30.4233 61.644C30.7073 61.1371 30.5084 60.7548 30.1501 60.8566C28.8953 61.2102 15.7654 66.657 10.9358 61.8801C12.2613 60.4863 10.4361 57.8618 9.58281 59.6175C9.53967 61.7986 7.43045 59.9554 7.95416 59.2136C9.68587 56.7676 13.395 59.5516 15.6923 60.442C19.0359 61.7387 27.1444 59.554 33.5092 59.2747C33.7058 59.2663 33.9179 59.2675 34.1396 59.2759ZM34.1396 51.7331C33.7825 51.6816 33.3762 51.8338 33.3474 52.1813C32.9364 55.6435 33.3043 55.1342 32.1071 56.5867C30.4089 58.6468 28.7479 58.4658 26.0766 58.6144C23.5528 58.7546 21.5466 58.9248 21.1176 57.8378C20.8911 57.2626 22.3028 52.9639 26.2085 52.1741C27.5974 51.8925 30.162 52.584 30.1608 51.7594C30.1572 50.3573 26.3103 50.7755 25.1011 51.0859C20.8659 52.1777 17.2922 53.9046 13.9978 58.6791C20.2296 61.9196 26.9251 58.7402 33.973 58.3747C34.0281 58.3795 34.0833 58.3855 34.1396 58.3915C34.1947 58.3855 34.251 58.3795 34.3062 58.3747C41.3541 58.7402 48.0496 61.9196 54.2814 58.6791C50.9869 53.9046 47.4133 52.1777 43.1781 51.0859C41.9676 50.7755 38.1219 50.3573 38.1183 51.7594C38.1171 52.584 40.6817 51.8925 42.0695 52.1741C45.9764 52.9639 47.3881 57.2626 47.1616 57.8378C46.7326 58.9248 44.7264 58.7546 42.2025 58.6144C39.5313 58.4658 37.8691 58.6468 36.1721 56.5867C34.9749 55.1342 35.3428 55.6435 34.9305 52.1813C34.903 51.8338 34.4967 51.6816 34.1396 51.7331ZM34.1396 31.0364C33.955 30.9309 33.7908 30.5594 33.7789 29.9602C33.7189 27.1248 32.9795 24.1084 33.2647 20.8043C33.381 19.6395 33.7453 18.9899 34.1396 18.8377C34.5327 18.9899 34.8982 19.6395 35.0144 20.8043C35.2997 24.1084 34.5602 27.1248 34.5003 29.9602C34.4871 30.5594 34.3241 30.9309 34.1396 31.0364ZM34.1396 1.63683C29.8972 4.82342 23.1753 5.5209 23.2915 13.7373C23.2256 16.9946 24.738 18.8173 30.4137 18.7634C32.1119 18.7466 32.1155 24.5674 32.0651 27.1224C31.0021 25.308 30.0014 24.0736 28.0876 22.6259C23.7169 18.8078 21.6449 17.9976 21.6449 13.3298C21.6449 9.78008 22.5221 8.65117 24.3821 6.27231C17.8423 7.3365 8.43113 12.9439 15.3508 19.7162C18.4163 22.6954 23.3299 20.289 26.6902 23.1029C28.6089 24.4954 32.2437 28.6959 32.2437 31.5805L32.3396 33.281L32.0436 40.9018C32.0136 41.3488 31.4455 41.2589 31.4384 40.8574C31.4384 32.6243 27.0485 26.788 19.3751 26.788C16.5396 26.788 14.911 27.3776 11.9233 27.259C9.10224 27.295 5.77903 25.0455 5.66758 22.6667C2.53012 25.6819 2.9975 33.021 8.76788 32.417C12.4794 31.6332 12.8904 28.0512 18.2294 28.0512C21.585 28.0296 24.3114 28.1099 26.9563 30.8722C28.1151 32.0814 29.1086 33.2247 29.7558 37.4036C29.8169 38.3611 29.4214 38.3192 29.1913 37.7967C27.2103 33.3074 25.1503 32.2145 21.4999 32.0599C15.63 32.0251 10.5739 40.6453 6.30993 40.6453C4.3625 40.6453 3.23479 39.8759 2.10708 38.3456C2.20894 41.9192 2.7003 45.2437 6.55321 45.2772C8.91649 45.3132 10.8364 42.407 12.1127 40.3158C14.3285 36.6858 18.5637 32.4469 23.198 33.4081C27.2655 34.4747 29.6227 38.7518 29.6227 45.0639C29.6227 46.3234 29.111 48.5453 27.5926 48.5453C26.1389 48.5453 25.6176 48.1954 25.6176 46.7752C25.6176 44.1627 26.5248 37.9824 23.5516 37.9824C21.9313 37.9189 21.223 38.8705 21.1667 40.1072C21.1715 41.477 23.8847 42.6347 23.3934 40.4979C23.2412 39.84 24.3126 39.5739 24.3737 40.5686C24.3197 42.7126 22.4382 42.4633 22.6324 47.082C22.6324 50.6341 25.4523 49.9007 29.1386 49.9211C32.1646 50.2842 31.092 53.5259 28.9684 53.5367C27.9198 53.5786 27.5794 52.9459 26.882 52.8476C26.2995 52.7673 25.7267 52.9315 25.5961 53.3509C25.2713 55.103 27.7796 55.5908 29.769 55.5908C31.1867 55.6651 29.2213 56.7976 28.247 56.8264C27.5735 56.8479 27.6022 57.5322 28.2122 57.5478C31.6768 57.4495 31.9105 55.0743 32.59 51.8793C32.6523 51.0524 33.1785 50.6929 34.1396 50.6437C35.1007 50.6929 35.6268 51.0524 35.6891 51.8793C36.3674 55.0743 36.6023 57.4495 40.067 57.5478C40.677 57.5322 40.7057 56.8479 40.0322 56.8264C39.0579 56.7976 37.0925 55.6651 38.5102 55.5908C40.4996 55.5908 43.0079 55.103 42.6831 53.3509C42.5525 52.9315 41.9796 52.7673 41.3972 52.8476C40.6997 52.9459 40.3594 53.5786 39.3108 53.5367C37.1872 53.5259 36.1146 50.2842 39.1406 49.9211C42.8269 49.9007 45.6468 50.6341 45.6468 47.082C45.8409 42.4633 43.9582 42.7126 43.9055 40.5686C43.9666 39.5739 45.038 39.84 44.8858 40.4979C44.3944 42.6347 47.1077 41.477 47.1125 40.1072C47.0561 38.8705 46.3467 37.9189 44.7264 37.9824C41.7543 37.9824 42.6615 44.1627 42.6615 46.7752C42.6615 48.1954 42.139 48.5453 40.6865 48.5453C39.1669 48.5453 38.6564 46.3234 38.6564 45.0639C38.6564 38.7518 41.0137 34.4747 45.0811 33.4081C49.7154 32.4469 53.9506 36.6858 56.1665 40.3158C57.4428 42.407 59.3627 45.3132 61.726 45.2772C65.5789 45.2437 66.0702 41.9192 66.1721 38.3456C65.0444 39.8759 63.9155 40.6453 61.9692 40.6453C57.7053 40.6453 52.6491 32.0251 46.7781 32.0599C43.1277 32.2145 41.0688 33.3074 39.0879 37.7967C38.8578 38.3192 38.4623 38.3611 38.5234 37.4036C39.1705 33.2247 40.164 32.0814 41.3217 30.8722C43.9678 28.1099 46.693 28.0296 50.0498 28.0512C55.3887 28.0512 55.7998 31.6332 59.5113 32.417C65.2817 33.021 65.749 25.6819 62.6104 22.6667C62.5001 25.0455 59.1769 27.295 56.3558 27.259C53.3682 27.3776 51.7395 26.788 48.9041 26.788C41.2306 26.788 36.8408 32.6243 36.8408 40.8574C36.8336 41.2589 36.2656 41.3488 36.2356 40.9018L35.9396 33.281L36.0355 31.5805C36.0355 28.6959 39.6703 24.4954 41.5889 23.1029C44.9493 20.289 49.8628 22.6954 52.9284 19.7162C59.8468 12.9439 50.4369 7.3365 43.8971 6.27231C45.757 8.65117 46.6331 9.78008 46.6331 13.3298C46.6331 17.9976 44.5622 18.8078 40.1916 22.6259C38.2777 24.0736 37.277 25.308 36.214 27.1224C36.1637 24.5674 36.1673 18.7466 37.8655 18.7634C43.5412 18.8173 45.0536 16.9946 44.9877 13.7373C45.1039 5.5209 38.382 4.82342 34.1396 1.63683ZM31.6085 6.79242C30.0734 7.21906 29.2692 9.70218 29.3927 12.2848C29.3927 13.6522 30.5467 15.4666 31.3593 16.0322C30.8044 14.5354 29.9763 10.9881 31.6085 6.79242ZM33.2863 41.7467C33.2863 40.9401 32.457 40.8263 32.4258 42.0391C32.5421 45.7254 30.8547 45.5864 30.7517 47.0113C30.7517 48.0647 30.9566 48.8125 32.312 48.6699C33.5104 48.6699 33.3043 46.4001 33.3043 45.3491L33.2863 41.7467ZM18.9353 22.7649C17.9502 24.3696 14.8175 25.7969 12.8078 25.7969C5.48422 25.7969 5.77064 17.867 11.4224 14.1267C11.275 19.5292 14.0122 22.7506 18.9353 22.7649ZM11.0257 33.3506C10.1353 36.8727 8.678 39.0718 5.68196 39.0718C1.68284 38.6799 1.88897 32.9047 2.74464 30.6829C4.74839 34.2961 8.03445 34.5334 11.0257 33.3506ZM27.5747 45.9843C28.3057 45.9124 28.5837 46.6842 28.3105 47.2162C28.0372 47.7483 27.2774 47.6848 26.9503 47.1659C26.6998 46.7704 26.8544 46.0058 27.5747 45.9843ZM7.83432 50.4208C6.17211 50.4208 4.13001 47.7807 3.89751 46.1305C4.92336 46.5787 6.18649 47.0652 7.44723 46.8687C8.88293 46.5835 8.95963 46.4421 9.71463 45.415C11.0545 47.5374 10.7429 50.4208 7.83432 50.4208ZM10.7261 54.0113C8.53779 54.6812 6.92352 51.9836 6.51486 51.1806C7.94936 52.0638 10.7225 52.0207 11.2858 50.4448C11.8466 51.9476 12.1558 53.3378 10.7261 54.0113ZM11.5087 56.8048C10.5775 56.6442 10.0106 56.2188 9.83208 55.5249C10.9754 55.7046 12.1774 55.3667 12.6208 54.408C13.2128 55.4446 13.0606 57.0732 11.5087 56.8048ZM22.1302 53.8075C21.1415 54.7651 20.19 56.5591 19.4158 57.7036C18.9161 58.4442 18.1347 58.1854 18.3396 57.7551C18.9616 56.4525 20.7425 54.2354 22.1302 53.8075ZM21.3417 53.1844C20.3794 54.1575 19.2121 55.3008 18.964 55.5956C17.3953 57.4627 16.6187 58.5533 16.1777 57.4639C16.0878 57.2446 16.9531 55.9491 18.2318 55.0096C19.2373 54.2725 20.0989 53.5451 21.3417 53.1844ZM28.0864 70.3481C26.6111 71.1331 22.8637 70.2343 22.31 68.4103C24.4875 67.3449 25.5577 66.5096 27.1924 65.2201C27.1324 67.6493 27.3853 68.4354 28.0864 70.3481ZM16.1322 65.2728C17.2263 65.1218 19.7634 65.286 21.3728 64.7719C23.9914 63.9366 25.4271 63.7233 27.8719 62.6962C26.9287 64.4627 24.2514 66.0542 23.3778 66.6486C21.1176 68.59 16.5816 68.439 16.1322 65.2728ZM36.6694 6.79242C38.2058 7.21906 39.0088 9.70218 38.8865 12.2848C38.8865 13.6522 37.7324 15.4666 36.9199 16.0322C37.4748 14.5354 38.3029 10.9881 36.6694 6.79242ZM34.9929 41.7467C34.9929 40.9401 35.821 40.8263 35.8533 42.0391C35.7371 45.7254 37.4244 45.5864 37.5275 47.0113C37.5275 48.0647 37.3226 48.8125 35.9672 48.6699C34.7688 48.6699 34.9749 46.4001 34.9749 45.3491L34.9929 41.7467ZM49.3439 22.7649C50.329 24.3696 53.4617 25.7969 55.4702 25.7969C62.7949 25.7969 62.5085 17.867 56.8568 14.1267C57.003 19.5292 54.267 22.7506 49.3439 22.7649ZM57.2535 33.3506C58.1439 36.8727 59.6012 39.0718 62.5972 39.0718C66.5963 38.6799 66.3902 32.9047 65.5345 30.6829C63.5308 34.2961 60.2447 34.5334 57.2535 33.3506ZM40.7045 45.9843C39.9735 45.9124 39.6954 46.6842 39.9687 47.2162C40.2419 47.7483 41.0005 47.6848 41.3289 47.1659C41.5794 46.7704 41.4248 46.0058 40.7045 45.9843ZM60.4437 50.4208C62.1071 50.4208 64.1492 47.7807 64.3817 46.1305C63.3546 46.5787 62.0927 47.0652 60.8319 46.8687C59.3962 46.5835 59.3195 46.4421 58.5645 45.415C57.2247 47.5374 57.5363 50.4208 60.4437 50.4208ZM57.5531 54.0113C59.7414 54.6812 61.3556 51.9836 61.7643 51.1806C60.3286 52.0638 57.5567 52.0207 56.9934 50.4448C56.4325 51.9476 56.1222 53.3378 57.5531 54.0113ZM56.7705 56.8048C57.7005 56.6442 58.2685 56.2188 58.4471 55.5249C57.3038 55.7046 56.1018 55.3667 55.6584 54.408C55.0652 55.4446 55.2186 57.0732 56.7705 56.8048ZM46.1489 53.8075C47.1376 54.7651 48.0892 56.5591 48.8633 57.7036C49.3631 58.4442 50.1445 58.1854 49.9395 57.7551C49.3175 56.4525 47.5367 54.2354 46.1489 53.8075ZM46.9375 53.1844C47.8998 54.1575 49.0671 55.3008 49.3151 55.5956C50.8839 57.4627 51.6593 58.5533 52.1015 57.4639C52.1901 57.2446 51.3261 55.9491 50.0474 55.0096C49.0407 54.2725 48.1802 53.5451 46.9375 53.1844ZM40.1928 70.3481C41.668 71.1331 45.4155 70.2343 45.9692 68.4103C43.7916 67.3449 42.7215 66.5096 41.0856 65.2201C41.1467 67.6493 40.8927 68.4354 40.1928 70.3481ZM52.147 65.2728C51.0529 65.1218 48.5158 65.286 46.9063 64.7719C44.2878 63.9366 42.8521 63.7233 40.4073 62.6962C41.3505 64.4627 44.0277 66.0542 44.9014 66.6486C47.1616 68.59 51.6976 68.439 52.147 65.2728Z" fill="#FFD900"/>
<path d="M79.1755 20.9754C79.1755 23.8404 79.9901 25.3009 81.0293 26.2138C82.518 27.5199 84.6386 27.562 85.706 27.562C87.0402 27.562 88.599 27.3513 90.0315 26.1436C91.7589 24.7251 91.9977 22.3938 91.9977 20.1889V18.0683C91.9977 15.0629 92.0116 14.5152 92.0398 13.8832C92.0819 13.181 92.2224 12.9001 92.7841 12.8158C93.0369 12.7597 93.1493 12.7456 93.388 12.7456C93.6268 12.7456 93.7391 12.6754 93.7391 12.535C93.7391 12.3945 93.5987 12.3524 93.3178 12.3524C92.5313 12.3524 91.155 12.3945 90.9163 12.3945C90.9024 12.3945 89.5259 12.3524 88.4726 12.3524C88.2058 12.3524 88.0654 12.3945 88.0654 12.535C88.0654 12.6754 88.1777 12.7456 88.4024 12.7456C88.6412 12.7456 88.9923 12.7597 89.1468 12.8158C89.8068 12.9984 89.9613 13.2091 90.0175 13.8832C90.0314 14.5152 90.0596 15.0629 90.0596 18.0683V20.5541C90.0596 22.5904 90.0175 24.3038 88.8799 25.3711C88.0654 26.1716 87.0121 26.4244 86.1273 26.4244C85.4251 26.4244 84.4561 26.3542 83.5432 25.638C82.5461 24.8375 81.9843 23.728 81.9843 20.8349V18.0683C81.9843 15.0629 81.9843 14.5152 82.0265 13.8832C82.0826 13.181 82.2371 12.9001 82.7708 12.8158C83.0376 12.7597 83.15 12.7456 83.3887 12.7456C83.5853 12.7456 83.7117 12.6754 83.7117 12.535C83.7117 12.3945 83.5713 12.3524 83.2623 12.3524C82.518 12.3524 81.1417 12.3945 80.6361 12.3945C80.0322 12.3945 78.6559 12.3524 77.5605 12.3524C77.2655 12.3524 77.1251 12.3945 77.1251 12.535C77.1251 12.6754 77.2374 12.7456 77.4762 12.7456C77.7571 12.7456 78.0941 12.7597 78.2627 12.8158C78.9087 12.9984 79.1053 13.181 79.1474 13.8832C79.1896 14.5152 79.1756 15.0629 79.1756 18.0683L79.1755 20.9754ZM98.321 16.5375H98.3912C98.7844 16.8886 100.947 19.2761 103.18 21.4248C105.329 23.4893 107.885 25.9329 109.163 27.1266C109.374 27.3373 109.654 27.548 110.006 27.548C110.174 27.548 110.329 27.3513 110.329 26.916L110.567 14.4449C110.581 13.3214 110.75 12.9703 111.312 12.8158C111.564 12.7456 111.733 12.7456 111.944 12.7456C112.168 12.7456 112.281 12.6473 112.281 12.535C112.281 12.3664 112.098 12.3524 111.817 12.3524C110.82 12.3524 110.048 12.3945 109.823 12.3945C109.374 12.3945 108.278 12.3524 107.211 12.3524C106.916 12.3524 106.705 12.3664 106.705 12.535C106.705 12.6473 106.775 12.7456 107.028 12.7456C107.309 12.7456 107.801 12.7456 108.096 12.858C108.587 13.0406 108.77 13.3917 108.798 14.5994L109.008 23.405H108.91C108.615 23.1241 105.891 20.3294 104.486 18.9531C101.509 16.046 98.4333 12.9001 98.1805 12.6473C97.8294 12.2962 97.5486 12.0013 97.2958 12.0013C97.0851 12.0013 96.9447 12.2822 96.9447 12.6754L96.7621 24.4021C96.7339 26.1155 96.6779 26.6632 96.1301 26.8036C95.8633 26.8598 95.4841 26.8879 95.2032 26.8879C95.0207 26.8879 94.8802 26.9862 94.8802 27.0986C94.8802 27.2811 95.0628 27.3092 95.3437 27.3092C96.397 27.3092 97.366 27.239 97.5486 27.239C97.9278 27.239 98.8827 27.3092 100.203 27.3092C100.484 27.3092 100.68 27.2671 100.68 27.0986C100.68 26.9862 100.554 26.8879 100.329 26.8879C99.9922 26.8879 99.599 26.8597 99.2479 26.7475C98.8546 26.607 98.6018 26.1436 98.5597 24.6128L98.321 16.5375ZM116.855 21.5652C116.855 23.4752 116.855 25.0481 116.757 25.8627C116.687 26.4525 116.575 26.7334 116.153 26.8177C115.971 26.8598 115.732 26.8879 115.437 26.8879C115.17 26.8879 115.1 27.0002 115.1 27.0985C115.1 27.239 115.24 27.3092 115.507 27.3092C116.308 27.3092 117.712 27.239 118.176 27.239C118.737 27.239 120.128 27.3092 121.476 27.3092C121.715 27.3092 121.883 27.239 121.883 27.0985C121.883 27.0002 121.785 26.8879 121.546 26.8879C121.251 26.8879 120.788 26.8597 120.507 26.8177C119.903 26.7334 119.763 26.4244 119.692 25.8908C119.594 25.0481 119.594 23.4752 119.594 21.5652V18.0683C119.594 15.0629 119.594 14.5152 119.636 13.8832C119.692 13.181 119.847 12.9001 120.409 12.8158C120.647 12.7597 120.802 12.7456 121.012 12.7456C121.223 12.7456 121.336 12.6895 121.336 12.5069C121.336 12.3945 121.181 12.3524 120.928 12.3524C120.128 12.3524 118.808 12.3945 118.288 12.3945C117.712 12.3945 116.308 12.3524 115.549 12.3524C115.226 12.3524 115.058 12.3945 115.058 12.5069C115.058 12.6895 115.17 12.7456 115.381 12.7456C115.634 12.7456 115.901 12.7597 116.125 12.8299C116.575 12.9703 116.785 13.2091 116.827 13.8832C116.856 14.5152 116.856 15.0629 116.856 18.0683L116.855 21.5652ZM129.558 26.3823C129.951 27.3092 130.12 27.562 130.401 27.562C130.668 27.562 130.864 27.2671 131.37 26.1155C131.833 25.1184 132.788 22.9556 134.094 20.0766C135.218 17.647 135.752 16.5796 136.566 14.7258C137.1 13.4619 137.381 13.1669 137.634 12.9703C137.985 12.7175 138.42 12.7456 138.631 12.7456C138.841 12.7456 138.954 12.6754 138.954 12.535C138.954 12.3945 138.799 12.3524 138.546 12.3524C137.914 12.3524 136.959 12.3945 136.608 12.3945C136.356 12.3945 135.443 12.3524 134.417 12.3524C134.024 12.3524 133.842 12.3945 133.842 12.535C133.842 12.6754 133.996 12.7456 134.193 12.7456C134.446 12.7456 134.769 12.7597 135.007 12.8299C135.19 12.9001 135.288 12.9703 135.288 13.181C135.288 13.3495 135.19 13.6444 135.092 13.9113C134.6 15.2033 131.974 21.5793 131.089 23.6297H131.019L127.578 14.768C127.297 14.0658 127.115 13.5321 127.115 13.2793C127.115 13.0967 127.185 12.9703 127.325 12.8861C127.48 12.7597 127.789 12.7456 128.112 12.7456C128.294 12.7456 128.435 12.6754 128.435 12.535C128.435 12.3945 128.21 12.3524 127.957 12.3524C126.932 12.3524 125.851 12.3945 125.345 12.3945C124.629 12.3945 123.463 12.3524 122.368 12.3524C122.059 12.3524 121.848 12.3664 121.848 12.535C121.848 12.6473 121.904 12.7456 122.087 12.7456C122.255 12.7456 122.578 12.7456 122.873 12.8158C123.618 12.9984 123.927 13.181 124.39 14.2764L129.558 26.3823ZM141.152 21.5652C141.152 23.3769 141.152 24.9358 141.053 25.7784C140.983 26.3542 140.871 26.7334 140.449 26.8177C140.267 26.8598 140.028 26.8879 139.733 26.8879C139.466 26.8879 139.396 27.0002 139.396 27.0985C139.396 27.239 139.536 27.3092 139.803 27.3092C140.211 27.3092 140.73 27.281 141.222 27.2671C141.699 27.2671 142.149 27.2389 142.373 27.2389C142.991 27.2389 143.75 27.2671 144.747 27.281C145.758 27.3372 146.994 27.3512 148.525 27.3512C149.297 27.3512 149.48 27.3512 149.62 26.8456C149.732 26.4524 149.901 25.1042 149.901 24.6548C149.901 24.4441 149.873 24.1913 149.704 24.1913C149.564 24.1913 149.522 24.2896 149.48 24.4862C149.339 25.3008 149.1 25.7221 148.595 25.9609C148.061 26.1856 147.19 26.2136 146.657 26.2136C144.564 26.2136 143.932 25.9187 143.89 24.5565C143.862 23.9807 143.89 22.3094 143.89 21.6353V20.0483C143.89 19.936 143.918 19.8377 144.002 19.8377C144.522 19.8377 146.853 19.8798 147.218 19.936C147.991 20.0062 148.244 20.3011 148.356 20.6944C148.412 20.9612 148.412 21.214 148.426 21.4247C148.426 21.5089 148.482 21.5791 148.623 21.5791C148.805 21.5791 148.819 21.2983 148.819 21.1438C148.819 21.0033 148.876 20.2169 148.918 19.8096C149.03 18.8125 149.086 18.4895 149.086 18.3771C149.086 18.2507 149.016 18.1665 148.918 18.1665C148.819 18.1665 148.749 18.2788 148.595 18.4192C148.412 18.6299 148.103 18.672 147.612 18.7282C147.148 18.7703 144.494 18.7703 144.03 18.7703C143.918 18.7703 143.89 18.672 143.89 18.5597V13.6725C143.89 13.5602 143.932 13.49 144.03 13.49C144.452 13.49 146.895 13.5321 147.247 13.5742C148.272 13.6725 148.426 13.9534 148.595 14.3045C148.707 14.5292 148.735 14.8803 148.735 15.0207C148.735 15.1893 148.749 15.2735 148.89 15.2735C149.058 15.2735 149.1 15.0488 149.128 14.9505C149.171 14.7258 149.227 13.8551 149.241 13.6444C149.297 12.7456 149.409 12.5069 149.409 12.3664C149.409 12.2822 149.381 12.1839 149.269 12.1839C149.171 12.1839 149.058 12.2541 148.946 12.2822C148.777 12.2962 148.454 12.3664 148.075 12.3945C147.682 12.4086 143.146 12.3945 142.5 12.3945C141.91 12.3945 140.604 12.3524 139.536 12.3524C139.241 12.3524 139.073 12.3945 139.073 12.535C139.073 12.6754 139.213 12.7456 139.424 12.7456C139.733 12.7456 140.07 12.7596 140.239 12.8158C140.885 12.9984 141.081 13.2091 141.123 13.8832C141.152 14.5152 141.152 15.0629 141.152 18.0683L141.152 21.5652ZM154.093 21.5652C154.093 23.3769 154.093 24.9358 153.995 25.7784C153.925 26.3542 153.812 26.7334 153.391 26.8177C153.208 26.8598 152.97 26.8879 152.675 26.8879C152.408 26.8879 152.338 27.0002 152.338 27.0985C152.338 27.239 152.478 27.3092 152.745 27.3092C153.545 27.3092 154.851 27.239 155.245 27.239C155.554 27.239 157.253 27.3092 158.433 27.3092C158.699 27.3092 158.854 27.239 158.854 27.0985C158.854 27.0002 158.77 26.8879 158.601 26.8879C158.348 26.8879 157.899 26.8597 157.604 26.8177C156.972 26.7334 156.874 26.3542 156.804 25.7784C156.719 24.9358 156.691 23.405 156.691 21.5652V21.2844C156.691 21.172 156.761 21.1158 156.86 21.1158L158.699 21.172C158.84 21.172 158.952 21.186 159.065 21.2984C159.317 21.6074 160.188 22.9275 161.003 24.0089C162.14 25.5397 162.913 26.4666 163.797 26.916C164.331 27.1968 164.879 27.3092 166.03 27.3092H167.983C168.235 27.3092 168.376 27.2671 168.376 27.0986C168.376 27.0002 168.277 26.8879 168.123 26.8879C167.954 26.8879 167.842 26.8879 167.631 26.8458C167.308 26.7756 166.578 26.6772 165.441 25.5397C164.205 24.3038 162.772 22.5202 160.946 20.2872C162.955 18.6722 163.797 17.3661 163.797 15.9055C163.797 14.5854 162.927 13.5742 162.351 13.181C161.255 12.4647 159.767 12.3524 158.461 12.3524C157.829 12.3524 155.975 12.3945 155.273 12.3945C154.851 12.3945 153.545 12.3524 152.478 12.3524C152.183 12.3524 152.015 12.3945 152.015 12.535C152.015 12.6754 152.155 12.7456 152.366 12.7456C152.675 12.7456 153.012 12.7597 153.18 12.8158C153.826 12.9984 154.023 13.2091 154.065 13.8832C154.093 14.5152 154.093 15.0629 154.093 18.0683L154.093 21.5652ZM156.691 13.7147C156.691 13.5602 156.747 13.49 156.874 13.4338C157.084 13.3916 157.576 13.3636 158.096 13.3636C159.303 13.3636 161.213 14.0939 161.213 16.8886C161.213 18.5177 160.511 19.3744 159.879 19.8097C159.528 20.0766 159.247 20.1468 158.433 20.1468C157.927 20.1468 157.323 20.0906 156.874 19.9502C156.747 19.88 156.691 19.8097 156.691 19.6131V13.7147ZM171.911 27.562C173.007 27.562 174.355 27.4497 175.338 26.7474C176.827 25.7082 177.374 24.5145 177.374 23.0539C177.374 21.2563 176.546 19.7395 173.849 18.2509L173.007 17.7874C171.167 16.7622 170.844 16.074 170.844 15.1893C170.844 13.8411 172.164 13.0686 173.639 13.0686C174.959 13.0686 175.605 13.6304 175.914 13.9955C176.363 14.5152 176.448 15.1191 176.448 15.3016C176.448 15.5404 176.518 15.6527 176.658 15.6527C176.827 15.6527 176.911 15.4421 176.911 15.0207C176.911 13.4619 176.981 12.9001 176.981 12.6473C176.981 12.5069 176.897 12.4367 176.7 12.3945C176.167 12.2541 175.127 12.0715 173.793 12.0715C170.956 12.0715 168.625 13.6304 168.625 16.046C168.625 17.7874 169.426 19.1216 171.841 20.54L173.035 21.2282C174.847 22.3096 175.057 23.1662 175.057 24.0229C175.057 25.4273 173.976 26.5368 172.22 26.5368C170.928 26.5368 169.397 26.0453 168.962 24.5847C168.836 24.2336 168.765 23.8123 168.765 23.5595C168.765 23.419 168.752 23.2365 168.555 23.2365C168.4 23.2365 168.302 23.4471 168.302 23.742C168.288 24.0791 168.19 25.3009 168.19 26.3823C168.19 26.8177 168.26 26.916 168.583 27.0564C169.468 27.4496 170.732 27.562 171.911 27.562ZM181.809 21.5652C181.809 23.4752 181.809 25.0481 181.71 25.8627C181.64 26.4525 181.528 26.7334 181.107 26.8177C180.924 26.8598 180.685 26.8879 180.39 26.8879C180.123 26.8879 180.053 27.0002 180.053 27.0985C180.053 27.239 180.194 27.3092 180.461 27.3092C181.261 27.3092 182.665 27.239 183.129 27.239C183.691 27.239 185.081 27.3092 186.429 27.3092C186.668 27.3092 186.837 27.239 186.837 27.0985C186.837 27.0002 186.738 26.8879 186.499 26.8879C186.205 26.8879 185.741 26.8597 185.46 26.8177C184.856 26.7334 184.716 26.4244 184.646 25.8908C184.547 25.0481 184.547 23.4752 184.547 21.5652V18.0683C184.547 15.0629 184.547 14.5152 184.589 13.8832C184.646 13.181 184.8 12.9001 185.362 12.8158C185.601 12.7597 185.755 12.7456 185.966 12.7456C186.176 12.7456 186.289 12.6895 186.289 12.5069C186.289 12.3945 186.134 12.3524 185.882 12.3524C185.081 12.3524 183.761 12.3945 183.241 12.3945C182.665 12.3945 181.261 12.3524 180.503 12.3524C180.18 12.3524 180.011 12.3945 180.011 12.5069C180.011 12.6895 180.123 12.7456 180.334 12.7456C180.587 12.7456 180.854 12.7597 181.078 12.8299C181.528 12.9703 181.739 13.2091 181.781 13.8832C181.809 14.5152 181.809 15.0629 181.809 18.0683L181.809 21.5652ZM193.992 21.5652C193.992 23.3769 193.992 24.9358 193.908 25.7784C193.837 26.3542 193.725 26.7334 193.304 26.8177C193.135 26.8598 192.882 26.8879 192.573 26.8879C192.321 26.8879 192.251 27.0002 192.251 27.0985C192.251 27.239 192.391 27.3092 192.644 27.3092C193.458 27.3092 194.863 27.239 195.326 27.239C195.902 27.239 197.278 27.3092 198.626 27.3092C198.865 27.3092 199.02 27.239 199.02 27.0985C199.02 27.0002 198.935 26.8879 198.697 26.8879C198.402 26.8879 197.938 26.8597 197.657 26.8177C197.054 26.7334 196.927 26.3542 196.857 25.7925C196.773 24.9358 196.745 23.3769 196.745 21.5652V13.5602L199.329 13.6023C201.168 13.6304 201.702 14.2343 201.744 14.7399L201.772 14.9505C201.801 15.2595 201.843 15.3438 201.997 15.3438C202.124 15.3438 202.166 15.2314 202.194 15.0208C202.194 14.5152 202.236 13.0406 202.236 12.6192C202.236 12.3243 202.208 12.212 202.067 12.212C201.997 12.212 201.843 12.2541 201.52 12.2962C201.211 12.3524 200.775 12.3945 200.115 12.3945H191.815C191.141 12.3945 190.369 12.3664 189.765 12.2962C189.245 12.226 189.049 12.0715 188.88 12.0715C188.768 12.0715 188.698 12.1839 188.641 12.4367C188.599 12.6052 188.206 14.5152 188.206 14.8382C188.206 15.0488 188.248 15.1612 188.389 15.1612C188.529 15.1612 188.571 15.0629 188.627 14.9084C188.67 14.768 188.768 14.5152 188.979 14.2343C189.273 13.7849 189.765 13.6444 190.945 13.6304L193.992 13.5602L193.992 21.5652ZM210.318 22.3236C210.402 22.3236 210.472 22.3517 210.515 22.464L212.102 26.4525C212.2 26.6772 212.059 26.8598 211.919 26.8879C211.708 26.9161 211.666 26.9862 211.666 27.0985C211.666 27.239 211.891 27.239 212.27 27.2671C213.983 27.3092 215.472 27.3092 216.202 27.3092C216.961 27.3092 217.087 27.2671 217.087 27.0985C217.087 26.9581 216.989 26.8879 216.806 26.8879C216.568 26.8879 216.343 26.8597 216.034 26.8177C215.669 26.7475 215.079 26.4947 214.292 24.697C212.986 21.7057 209.574 13.6023 209.082 12.5069C208.872 12.0715 208.773 11.8749 208.478 11.8749C208.268 11.8749 208.099 12.1137 207.874 12.6754L202.51 25.1184C202.102 26.1155 201.751 26.7334 200.824 26.8598C200.628 26.8598 200.403 26.888 200.206 26.888C200.052 26.888 199.982 26.9863 199.982 27.0987C199.982 27.2672 200.094 27.3093 200.347 27.3093C201.428 27.3093 202.51 27.2391 202.72 27.2391C203.38 27.2391 204.335 27.3093 205.009 27.3093C205.22 27.3093 205.332 27.2672 205.332 27.0987C205.332 26.9863 205.29 26.888 205.023 26.888H204.728C204.097 26.888 203.914 26.6773 203.914 26.3262C203.914 26.1015 204.012 25.61 204.209 25.1185L205.304 22.4642C205.361 22.3518 205.375 22.3237 205.501 22.3237L210.318 22.3236ZM205.908 21.2282C205.838 21.2282 205.796 21.186 205.838 21.1018L207.818 16.0881C207.846 16.0179 207.874 15.9055 207.945 15.9055C207.987 15.9055 208.015 16.0179 208.029 16.0881L209.967 21.1158C209.981 21.186 209.967 21.2282 209.869 21.2282H205.908ZM221.297 27.562C222.392 27.562 223.741 27.4497 224.724 26.7474C226.212 25.7082 226.76 24.5145 226.76 23.0539C226.76 21.2563 225.931 19.7395 223.235 18.2509L222.392 17.7874C220.553 16.7622 220.23 16.074 220.23 15.1893C220.23 13.8411 221.55 13.0686 223.024 13.0686C224.344 13.0686 224.99 13.6304 225.299 13.9955C225.749 14.5152 225.833 15.1191 225.833 15.3016C225.833 15.5404 225.903 15.6527 226.044 15.6527C226.212 15.6527 226.297 15.4421 226.297 15.0207C226.297 13.4619 226.367 12.9001 226.367 12.6473C226.367 12.5069 226.282 12.4367 226.086 12.3945C225.552 12.2541 224.513 12.0715 223.179 12.0715C220.342 12.0715 218.011 13.6304 218.011 16.046C218.011 17.7874 218.811 19.1216 221.227 20.54L222.42 21.2282C224.232 22.3096 224.443 23.1662 224.443 24.0229C224.443 25.4273 223.361 26.5368 221.606 26.5368C220.314 26.5368 218.783 26.0453 218.348 24.5847C218.221 24.2336 218.151 23.8123 218.151 23.5595C218.151 23.419 218.137 23.2365 217.94 23.2365C217.786 23.2365 217.688 23.4471 217.688 23.742C217.674 24.0791 217.575 25.3009 217.575 26.3823C217.575 26.8177 217.646 26.916 217.969 27.0564C218.853 27.4496 220.117 27.562 221.297 27.562ZM80.8959 43.3509C80.8959 45.2609 80.8959 46.8338 80.7976 47.6484C80.7274 48.2382 80.6151 48.5191 80.1937 48.6034C80.0112 48.6455 79.7724 48.6736 79.4775 48.6736C79.2106 48.6736 79.1404 48.7859 79.1404 48.8842C79.1404 49.0247 79.2809 49.0949 79.5477 49.0949C80.3482 49.0949 81.7526 49.0247 82.2161 49.0247C82.7778 49.0247 84.1682 49.0949 85.5164 49.0949C85.7551 49.0949 85.9237 49.0247 85.9237 48.8842C85.9237 48.7859 85.8253 48.6736 85.5866 48.6736C85.2917 48.6736 84.8282 48.6454 84.5473 48.6034C83.9435 48.5191 83.803 48.2101 83.7328 47.6765C83.6345 46.8338 83.6345 45.2609 83.6345 43.3509V39.854C83.6345 36.8486 83.6345 36.3009 83.6766 35.6689C83.7328 34.9667 83.8873 34.6858 84.449 34.6015C84.6878 34.5453 84.8423 34.5313 85.0529 34.5313C85.2636 34.5313 85.3759 34.4751 85.3759 34.2926C85.3759 34.1802 85.2214 34.1381 84.9686 34.1381C84.1681 34.1381 82.848 34.1802 82.3284 34.1802C81.7526 34.1802 80.3482 34.1381 79.5898 34.1381C79.2668 34.1381 79.0983 34.1802 79.0983 34.2926C79.0983 34.4751 79.2106 34.5313 79.4213 34.5313C79.6741 34.5313 79.9409 34.5452 80.1656 34.6156C80.615 34.756 80.8257 34.9947 80.8678 35.6689C80.896 36.3008 80.896 36.8486 80.896 39.854L80.8959 43.3509ZM93.3178 38.3232H93.388C93.7813 38.6743 95.944 41.0618 98.177 43.2105C100.326 45.2749 102.882 47.7186 104.16 48.9123C104.37 49.123 104.651 49.3336 105.002 49.3336C105.171 49.3336 105.325 49.137 105.325 48.7017L105.564 36.2306C105.578 35.1071 105.747 34.756 106.308 34.6015C106.561 34.5313 106.73 34.5313 106.94 34.5313C107.165 34.5313 107.277 34.433 107.277 34.3207C107.277 34.1521 107.095 34.1381 106.814 34.1381C105.817 34.1381 105.044 34.1802 104.82 34.1802C104.37 34.1802 103.275 34.1381 102.208 34.1381C101.913 34.1381 101.702 34.152 101.702 34.3207C101.702 34.433 101.772 34.5313 102.025 34.5313C102.306 34.5313 102.797 34.5313 103.092 34.6437C103.584 34.8262 103.766 35.1773 103.795 36.3851L104.005 45.1907H103.907C103.612 44.9098 100.887 42.115 99.4831 40.7387C96.5058 37.8316 93.4302 34.6858 93.1774 34.433C92.8263 34.0819 92.5454 33.787 92.2926 33.787C92.0819 33.787 91.9415 34.0678 91.9415 34.4611L91.7589 46.1878C91.7307 47.9012 91.6747 48.4489 91.127 48.5893C90.8601 48.6455 90.4809 48.6736 90.2001 48.6736C90.0175 48.6736 89.877 48.7719 89.877 48.8842C89.877 49.0668 90.0596 49.0949 90.3405 49.0949C91.3938 49.0949 92.3628 49.0246 92.5454 49.0246C92.9246 49.0246 93.8796 49.0949 95.1997 49.0949C95.4806 49.0949 95.6772 49.0527 95.6772 48.8842C95.6772 48.7719 95.5508 48.6736 95.3261 48.6736C94.989 48.6736 94.5958 48.6454 94.2447 48.5331C93.8515 48.3927 93.5987 47.9292 93.5565 46.3984L93.3178 38.3232ZM113.759 43.3509C113.759 45.1626 113.759 46.7215 113.66 47.5641C113.59 48.1399 113.478 48.5191 113.057 48.6034C112.874 48.6455 112.635 48.6736 112.34 48.6736C112.074 48.6736 112.003 48.7859 112.003 48.8842C112.003 49.0247 112.144 49.0949 112.411 49.0949C112.818 49.0949 113.337 49.0667 113.829 49.0528C114.306 49.0528 114.756 49.0246 114.981 49.0246C115.5 49.0246 116.245 49.0667 117.059 49.1369C117.874 49.1931 118.758 49.2633 119.503 49.2633C123.267 49.2633 125.429 47.8589 126.37 46.932C127.536 45.7945 128.603 43.8985 128.603 41.4127C128.603 39.0674 127.69 37.4102 126.665 36.385C124.432 34.138 120.991 34.138 118.435 34.138C117.2 34.138 115.725 34.1801 115.107 34.1801C114.517 34.1801 113.211 34.138 112.144 34.138C111.849 34.138 111.68 34.1801 111.68 34.3205C111.68 34.461 111.821 34.5312 112.031 34.5312C112.34 34.5312 112.677 34.5451 112.846 34.6014C113.492 34.784 113.689 34.9946 113.731 35.6687C113.759 36.3007 113.759 36.8484 113.759 39.8538L113.759 43.3509ZM116.497 39.559C116.497 38.0002 116.497 36.3711 116.526 35.697C116.526 35.4582 116.596 35.3599 116.778 35.2897C116.947 35.2054 117.621 35.1492 118.028 35.1492C119.643 35.1492 121.876 35.3599 123.758 37.0452C124.671 37.8316 125.668 39.4607 125.668 41.9746C125.668 44.025 125.247 45.7946 123.927 46.89C122.691 47.9012 121.315 48.2382 119.461 48.2382C117.846 48.2382 117.031 47.8169 116.778 47.4377C116.61 47.2271 116.568 46.5389 116.54 46.0474C116.526 45.6541 116.497 44.1374 116.497 42.0448L116.497 39.559ZM141.145 49.3477C146.425 49.3477 149.725 45.7946 149.725 41.2584C149.725 36.7081 146.523 33.8572 141.355 33.8572C135.148 33.8572 132.774 38.2249 132.774 41.5954C132.774 45.1205 135.19 49.3477 141.145 49.3477ZM141.987 48.2803C138.125 48.2803 135.794 45.0643 135.794 40.9915C135.794 36.1042 138.476 34.8965 140.751 34.8965C144.052 34.8965 146.678 37.5929 146.678 41.9746C146.678 47.6062 143.42 48.2803 141.987 48.2803ZM156.505 38.3232H156.575C156.969 38.6743 159.131 41.0618 161.364 43.2105C163.513 45.2749 166.069 47.7186 167.347 48.9123C167.558 49.123 167.839 49.3336 168.19 49.3336C168.358 49.3336 168.513 49.137 168.513 48.7017L168.751 36.2306C168.765 35.1071 168.934 34.756 169.496 34.6015C169.748 34.5313 169.917 34.5313 170.128 34.5313C170.352 34.5313 170.465 34.433 170.465 34.3207C170.465 34.1521 170.282 34.1381 170.001 34.1381C169.004 34.1381 168.232 34.1802 168.007 34.1802C167.558 34.1802 166.462 34.1381 165.395 34.1381C165.1 34.1381 164.889 34.152 164.889 34.3207C164.889 34.433 164.96 34.5313 165.212 34.5313C165.493 34.5313 165.985 34.5313 166.28 34.6437C166.771 34.8262 166.954 35.1773 166.982 36.3851L167.193 45.1907H167.094C166.799 44.9098 164.075 42.115 162.67 40.7387C159.693 37.8316 156.617 34.6858 156.365 34.433C156.014 34.0819 155.733 33.787 155.48 33.787C155.269 33.787 155.129 34.0678 155.129 34.4611L154.946 46.1878C154.918 47.9012 154.862 48.4489 154.314 48.5893C154.047 48.6455 153.668 48.6736 153.387 48.6736C153.205 48.6736 153.064 48.7719 153.064 48.8842C153.064 49.0668 153.247 49.0949 153.528 49.0949C154.581 49.0949 155.55 49.0246 155.733 49.0246C156.112 49.0246 157.067 49.0949 158.387 49.0949C158.668 49.0949 158.864 49.0527 158.864 48.8842C158.864 48.7719 158.738 48.6736 158.513 48.6736C158.176 48.6736 157.783 48.6454 157.432 48.5331C157.039 48.3927 156.786 47.9292 156.744 46.3984L156.505 38.3232ZM176.946 43.3509C176.946 45.1626 176.946 46.7215 176.848 47.5641C176.778 48.1399 176.665 48.5191 176.244 48.6034C176.061 48.6455 175.823 48.6736 175.528 48.6736C175.261 48.6736 175.191 48.7859 175.191 48.8842C175.191 49.0247 175.331 49.0949 175.598 49.0949C176.005 49.0949 176.525 49.0667 177.016 49.0528C177.494 49.0528 177.943 49.0246 178.168 49.0246C178.786 49.0246 179.544 49.0528 180.541 49.0667C181.552 49.1228 182.788 49.1369 184.319 49.1369C185.092 49.1369 185.274 49.1369 185.415 48.6313C185.527 48.2381 185.695 46.8899 185.695 46.4405C185.695 46.2298 185.667 45.977 185.499 45.977C185.358 45.977 185.316 46.0753 185.274 46.2719C185.134 47.0865 184.895 47.5078 184.389 47.7466C183.856 47.9713 182.985 47.9993 182.451 47.9993C180.359 47.9993 179.727 47.7044 179.685 46.3422C179.656 45.7663 179.685 44.0951 179.685 43.421V41.834C179.685 41.7217 179.713 41.6234 179.797 41.6234C180.317 41.6234 182.648 41.6655 183.013 41.7217C183.785 41.7919 184.038 42.0868 184.151 42.4801C184.207 42.7469 184.207 42.9997 184.221 43.2104C184.221 43.2946 184.277 43.3649 184.417 43.3649C184.6 43.3649 184.614 43.084 184.614 42.9295C184.614 42.7891 184.67 42.0026 184.712 41.5953C184.825 40.5982 184.881 40.2752 184.881 40.1628C184.881 40.0364 184.811 39.9522 184.712 39.9522C184.614 39.9522 184.544 40.0645 184.389 40.205C184.207 40.4156 183.898 40.4577 183.406 40.5139C182.943 40.556 180.289 40.5561 179.825 40.5561C179.713 40.5561 179.685 40.4577 179.685 40.3454V35.4582C179.685 35.3459 179.727 35.2757 179.825 35.2757C180.246 35.2757 182.69 35.3178 183.041 35.3599C184.066 35.4582 184.221 35.7391 184.389 36.0902C184.502 36.3149 184.53 36.666 184.53 36.8065C184.53 36.975 184.544 37.0592 184.684 37.0592C184.853 37.0592 184.895 36.8345 184.923 36.7362C184.965 36.5115 185.021 35.6408 185.035 35.4302C185.092 34.5313 185.204 34.2926 185.204 34.1522C185.204 34.0679 185.176 33.9696 185.063 33.9696C184.965 33.9696 184.853 34.0398 184.74 34.0679C184.572 34.0818 184.249 34.1522 183.87 34.1803C183.477 34.1942 178.94 34.1803 178.294 34.1803C177.704 34.1803 176.398 34.1381 175.331 34.1381C175.036 34.1381 174.868 34.1803 174.868 34.3207C174.868 34.4611 175.008 34.5313 175.219 34.5313C175.528 34.5313 175.865 34.5453 176.033 34.6016C176.679 34.7841 176.876 34.9948 176.918 35.6689C176.946 36.3009 176.946 36.8486 176.946 39.854L176.946 43.3509ZM194.466 49.3477C195.561 49.3477 196.91 49.2353 197.893 48.5331C199.381 47.4939 199.929 46.3001 199.929 44.8396C199.929 43.042 199.1 41.5252 196.404 40.0365L195.561 39.5731C193.722 38.5479 193.399 37.8597 193.399 36.975C193.399 35.6267 194.719 34.8543 196.193 34.8543C197.513 34.8543 198.159 35.4161 198.468 35.7812C198.918 36.3009 199.002 36.9047 199.002 37.0873C199.002 37.3261 199.072 37.4384 199.213 37.4384C199.381 37.4384 199.466 37.2278 199.466 36.8064C199.466 35.2476 199.536 34.6858 199.536 34.433C199.536 34.2926 199.452 34.2224 199.255 34.1802C198.721 34.0398 197.682 33.8572 196.348 33.8572C193.511 33.8572 191.18 35.4161 191.18 37.8316C191.18 39.5731 191.98 40.9073 194.396 42.3257L195.589 43.0139C197.401 44.0952 197.612 44.9519 197.612 45.8086C197.612 47.213 196.53 48.3225 194.775 48.3225C193.483 48.3225 191.952 47.8309 191.517 46.3704C191.39 46.0193 191.32 45.5979 191.32 45.3452C191.32 45.2047 191.306 45.0222 191.109 45.0222C190.955 45.0222 190.857 45.2328 190.857 45.5277C190.843 45.8648 190.744 47.0866 190.744 48.168C190.744 48.6034 190.815 48.7017 191.138 48.8421C192.022 49.2353 193.286 49.3477 194.466 49.3477ZM206.27 43.3509C206.27 45.2609 206.27 46.8338 206.172 47.6484C206.101 48.2382 205.989 48.5191 205.568 48.6034C205.385 48.6455 205.146 48.6736 204.851 48.6736C204.585 48.6736 204.514 48.7859 204.514 48.8842C204.514 49.0247 204.655 49.0949 204.922 49.0949C205.722 49.0949 207.127 49.0247 207.59 49.0247C208.152 49.0247 209.542 49.0949 210.89 49.0949C211.129 49.0949 211.298 49.0247 211.298 48.8842C211.298 48.7859 211.199 48.6736 210.961 48.6736C210.666 48.6736 210.202 48.6454 209.921 48.6034C209.317 48.5191 209.177 48.2101 209.107 47.6765C209.008 46.8338 209.008 45.2609 209.008 43.3509V39.854C209.008 36.8486 209.008 36.3009 209.051 35.6689C209.107 34.9667 209.261 34.6858 209.823 34.6015C210.062 34.5453 210.216 34.5313 210.427 34.5313C210.638 34.5313 210.75 34.4751 210.75 34.2926C210.75 34.1802 210.595 34.1381 210.343 34.1381C209.542 34.1381 208.222 34.1802 207.702 34.1802C207.127 34.1802 205.722 34.1381 204.964 34.1381C204.641 34.1381 204.472 34.1802 204.472 34.2926C204.472 34.4751 204.585 34.5313 204.795 34.5313C205.048 34.5313 205.315 34.5452 205.54 34.6156C205.989 34.756 206.2 34.9947 206.242 35.6689C206.27 36.3008 206.27 36.8486 206.27 39.854L206.27 43.3509ZM223.351 44.1093C223.435 44.1093 223.505 44.1375 223.547 44.2497L225.134 48.2382C225.233 48.4629 225.092 48.6455 224.952 48.6736C224.741 48.7018 224.699 48.7719 224.699 48.8842C224.699 49.0247 224.924 49.0247 225.303 49.0528C227.016 49.0949 228.505 49.0949 229.235 49.0949C229.994 49.0949 230.12 49.0528 230.12 48.8842C230.12 48.7438 230.022 48.6736 229.839 48.6736C229.6 48.6736 229.376 48.6454 229.067 48.6034C228.702 48.5331 228.112 48.2804 227.325 46.4827C226.019 43.4914 222.606 35.388 222.115 34.2926C221.904 33.8572 221.806 33.6606 221.511 33.6606C221.3 33.6606 221.132 33.8993 220.907 34.4611L215.542 46.904C215.135 47.9012 214.784 48.5191 213.857 48.6455C213.66 48.6455 213.436 48.6737 213.239 48.6737C213.085 48.6737 213.014 48.772 213.014 48.8844C213.014 49.0529 213.127 49.095 213.38 49.095C214.461 49.095 215.542 49.0248 215.753 49.0248C216.413 49.0248 217.368 49.095 218.042 49.095C218.253 49.095 218.365 49.0529 218.365 48.8844C218.365 48.772 218.323 48.6737 218.056 48.6737H217.761C217.129 48.6737 216.947 48.463 216.947 48.1119C216.947 47.8872 217.045 47.3957 217.242 46.9042L218.337 44.2498C218.393 44.1375 218.407 44.1094 218.534 44.1094L223.351 44.1093ZM218.941 43.0139C218.871 43.0139 218.829 42.9717 218.871 42.8875L220.851 37.8738C220.879 37.8035 220.907 37.6912 220.977 37.6912C221.02 37.6912 221.048 37.8035 221.062 37.8738L223 42.9015C223.014 42.9717 223 43.0139 222.901 43.0139L218.941 43.0139Z" fill="white"/>
<path d="M74.3862 55.0879H232.643Z" fill="white"/>
<path d="M74.3862 55.0879H232.643" stroke="white" stroke-width="0.599209" stroke-miterlimit="2.613"/>
<path d="M88.2866 60.7724C88.3428 60.8567 88.3709 60.9269 88.3709 60.9831C88.3709 61.0673 88.1883 61.2324 87.8231 61.4746C87.307 62.0855 86.6083 63.1178 85.7306 64.5783C84.7932 66.1442 84.1436 67.3836 83.7785 68.3C83.7961 68.3948 83.8067 68.465 83.8067 68.5106C83.8067 68.6511 83.6733 68.7845 83.4134 68.9039C83.3011 68.9495 83.2063 68.9741 83.1326 68.9741C83.0272 68.9741 82.8868 68.8793 82.7113 68.6932C82.6445 68.609 82.6129 68.5247 82.6129 68.4404C82.6129 68.3211 82.6726 68.2087 82.7955 68.1034C82.7673 66.7095 82.5778 65.3192 82.2337 63.9323C81.9248 62.707 81.5877 61.8328 81.2226 61.3061C81.0997 61.12 80.9312 61.0252 80.717 61.0252C80.4923 61.0252 80.1693 61.1867 79.748 61.5027C79.6988 61.5309 79.6426 61.5449 79.5794 61.5449C79.4566 61.5449 79.3969 61.5027 79.3969 61.4185C79.3969 61.3728 79.4285 61.3131 79.4952 61.2359C79.8498 60.8813 80.2992 60.5548 80.8434 60.2528C81.0295 60.1405 81.1805 60.0843 81.2928 60.0843C81.4894 60.0843 81.679 60.2247 81.8686 60.5056C82.7288 61.7696 83.3222 64.0131 83.6522 67.2327C83.9401 66.6428 84.4983 65.6281 85.3234 64.1851C86.0713 62.8474 86.4961 62.1066 86.6014 61.9662C86.5172 61.9767 86.4329 61.896 86.3487 61.7274C86.2644 61.5519 86.2222 61.3833 86.2222 61.2218C86.2222 61.0814 86.2573 61.0112 86.3346 61.0112C86.4259 61.0217 86.5242 61.0251 86.6295 61.0251C86.7419 60.9969 86.8858 60.9057 87.0649 60.7442C87.1843 60.6319 87.3036 60.5266 87.416 60.4212C87.5354 60.337 87.6301 60.2948 87.6969 60.2948C87.8654 60.2948 88.0619 60.4564 88.2866 60.7724ZM92.2645 67.008C91.2428 68.3105 90.5266 68.9601 90.1158 68.9601C89.9192 68.9601 89.6699 68.8231 89.3715 68.5528C89.052 68.4053 88.894 68.2087 88.894 67.9629C88.894 67.9173 88.8974 67.8646 88.9079 67.8085C88.9816 67.2397 89.1361 66.6077 89.3713 65.9125C89.2098 65.8283 89.1326 65.7545 89.1326 65.6878C89.1326 65.6246 89.1747 65.5895 89.259 65.5895C89.3327 65.5895 89.4029 65.6106 89.4697 65.6457C89.8418 64.8136 90.1789 64.2202 90.4808 63.8621C90.6669 63.6304 90.839 63.511 91.0005 63.511C91.0742 63.511 91.2462 63.5742 91.5201 63.6936C91.499 63.5742 91.5377 63.504 91.6324 63.4829C91.6396 63.4829 91.7378 63.4829 91.9274 63.4829C92.1029 63.4829 92.1942 63.5111 92.1942 63.5672C92.1942 63.5883 92.1871 63.6234 92.1803 63.6795C92.1697 63.7357 92.1663 63.7919 92.1663 63.8481C92.1663 63.999 92.1663 64.1851 92.1663 64.4098C92.1735 64.6275 92.1803 64.7715 92.1803 64.8452C92.1803 65.3718 92.0328 65.73 91.7449 65.9266C91.4816 66.1232 91.1902 66.2215 90.8742 66.2215C90.6951 66.2215 90.4107 66.1759 90.0175 66.0811C89.9403 66.2145 89.863 66.4673 89.7787 66.8395C89.6559 67.317 89.5997 67.7383 89.6102 68.1034C89.6174 68.3281 89.6875 68.4405 89.8209 68.4405C89.8665 68.4405 89.9332 68.4265 90.0175 68.3984C90.502 68.2228 91.1761 67.6962 92.0398 66.8254C92.096 66.7692 92.1522 66.7412 92.2084 66.7412C92.2821 66.7412 92.3207 66.7798 92.3207 66.8535C92.3207 66.9027 92.2996 66.9518 92.2645 67.008ZM91.5202 64.2273C91.5202 64.0587 91.4851 63.9745 91.4219 63.9745C91.3727 63.9745 91.3095 64.0131 91.2253 64.0868C90.811 64.4168 90.4528 64.9926 90.1439 65.8142C90.2282 65.8353 90.3721 65.8493 90.5792 65.8563C90.9163 65.8669 91.1691 65.7932 91.3376 65.6316C91.457 65.5017 91.5272 65.2911 91.5483 64.9997C91.5272 65.2173 91.5202 64.9575 91.5202 64.2273ZM98.7423 64.0728C98.7423 64.617 98.6721 65.1366 98.5316 65.6317C98.4825 65.7932 98.4193 65.8704 98.335 65.8704C98.2789 65.8704 98.1525 65.7862 97.9558 65.6176C97.8505 65.5334 97.8224 65.414 97.8716 65.2525C97.991 64.8698 98.0541 64.5643 98.0541 64.3396C98.0541 64.2554 98.0331 64.2132 97.998 64.2132C97.9488 64.2132 97.8716 64.2905 97.7592 64.438C96.8885 65.5825 96.2355 66.8535 95.8071 68.2579C95.6667 68.7073 95.5473 68.932 95.456 68.932C95.4174 68.932 95.2489 68.8618 94.9504 68.7214C94.81 68.6476 94.7609 68.5072 94.81 68.3C95.1365 66.85 95.4911 65.6282 95.8774 64.6346C95.5684 64.9646 95.3718 65.1893 95.2875 65.3087C95.2489 65.3578 95.2033 65.3789 95.1471 65.3789C95.0804 65.3789 95.0488 65.3473 95.0488 65.2806C95.0488 65.2455 95.0627 65.2033 95.0909 65.1542C95.2945 64.9119 95.5719 64.5362 95.9195 64.0307C96.0213 63.8446 96.1231 63.7498 96.2285 63.7498C96.3022 63.7498 96.4567 63.813 96.6919 63.9323C96.8218 63.9991 96.8394 64.0868 96.7481 64.1992C96.6533 64.3221 96.4812 64.7539 96.2284 65.4912C95.9826 66.204 95.8141 66.7657 95.7228 67.1765C96.2916 65.9055 96.9447 64.782 97.675 63.806C97.8049 63.6304 97.9137 63.5391 97.9979 63.5391C98.0717 63.5391 98.1735 63.5883 98.3069 63.6796C98.4825 63.7077 98.5948 63.7357 98.644 63.7638C98.7072 63.82 98.7423 63.9253 98.7423 64.0728ZM103.5 61.7696C103.563 61.8187 103.598 61.8749 103.598 61.9381C103.598 62.061 103.419 62.2471 103.064 62.4999C102.819 62.6684 102.587 62.7316 102.362 62.6824C102.239 62.6542 102.13 62.6087 102.039 62.542C102.011 62.5138 101.986 62.4858 101.969 62.4577C101.958 62.4295 101.958 62.4121 101.969 62.4016C101.976 62.3839 102.001 62.3805 102.039 62.3876C102.422 62.0506 102.675 61.8083 102.798 61.6573C102.899 61.5555 102.97 61.5029 103.008 61.5029C103.082 61.5029 103.247 61.594 103.5 61.7696ZM102.615 64.5222C102.51 65.084 102.25 66.0249 101.828 67.345C101.948 67.2327 102.116 67.0326 102.334 66.7411C102.362 66.706 102.39 66.6849 102.418 66.6849C102.481 66.6849 102.492 66.7481 102.446 66.8675C102.425 66.9167 102.25 67.2011 101.913 67.7242C101.66 68.128 101.477 68.4826 101.365 68.7915C101.326 68.8828 101.256 68.932 101.154 68.932C101.049 68.932 100.916 68.8828 100.747 68.7915C100.635 68.7353 100.579 68.6932 100.579 68.6651C100.579 68.6369 100.6 68.5809 100.649 68.4966C100.881 68.0963 101.133 67.4293 101.407 66.5024C101.667 65.5965 101.818 64.9224 101.857 64.48C101.864 64.2939 101.846 64.1992 101.8 64.1992C101.762 64.1992 101.692 64.2483 101.59 64.3396L101.211 64.7047C101.07 64.8276 101 64.8311 101 64.7187C101 64.6905 101.018 64.6484 101.056 64.5923C101.253 64.3219 101.463 64.0586 101.688 63.8058C101.751 63.7426 101.818 63.7075 101.885 63.7075C101.948 63.7075 102.046 63.7566 102.18 63.8479C102.366 63.8971 102.468 63.9252 102.489 63.9322C102.59 63.9989 102.643 64.1113 102.643 64.2693C102.643 64.3465 102.633 64.4309 102.615 64.5222ZM108.861 60.7725C108.973 60.8392 109.029 60.9094 109.029 60.9831C109.029 61.0393 108.991 61.0674 108.917 61.0674C108.896 61.0674 108.868 61.0674 108.833 61.0674C108.805 61.0602 108.78 61.0534 108.763 61.0534C108.601 61.0534 108.412 61.229 108.187 61.5731C107.98 61.882 107.699 62.5561 107.344 63.5954C107.316 63.6902 107.302 63.7464 107.302 63.7639C107.32 63.7921 107.376 63.806 107.471 63.806C107.713 63.8342 108.046 63.8305 108.468 63.7921C108.608 63.7744 108.678 63.8307 108.678 63.9606C108.678 64.0555 108.622 64.1151 108.51 64.1432C108.426 64.1537 107.962 64.1924 107.12 64.2555C106.621 65.7266 106.319 66.966 106.207 67.9772C106.207 68.0334 106.207 68.086 106.207 68.1317C106.207 68.2721 106.238 68.3423 106.305 68.3423C106.417 68.3423 106.758 68.0685 107.33 67.5137C107.393 67.4505 107.46 67.4154 107.527 67.4154C107.583 67.4154 107.615 67.4399 107.625 67.4856C107.643 67.5348 107.625 67.591 107.569 67.6541C107.232 68.1036 106.898 68.4898 106.572 68.8058C106.431 68.9357 106.319 69.0024 106.235 69.0024C106.14 69.0024 105.996 68.9251 105.799 68.7777C105.564 68.7145 105.448 68.5881 105.448 68.3985C105.448 68.3703 105.452 68.3388 105.462 68.3002C105.61 67.2258 105.912 65.8951 106.361 64.3117C106.143 64.2835 105.943 64.2555 105.757 64.2274C105.68 64.2098 105.645 64.1572 105.645 64.073C105.645 63.9817 105.687 63.9255 105.771 63.9044C105.856 63.8762 106.01 63.8307 106.235 63.764C106.375 63.7183 106.509 63.6517 106.642 63.5674C107.081 62.184 107.432 61.2852 107.695 60.8709C107.836 60.6392 107.99 60.5198 108.159 60.5198C108.317 60.5198 108.552 60.6039 108.861 60.7725ZM114.71 64.6065C114.317 65.6738 114.05 66.5726 113.91 67.3029C113.966 67.2397 114.043 67.1449 114.149 67.022C114.25 66.9026 114.317 66.8324 114.345 66.8114C114.401 66.7377 114.461 66.699 114.528 66.699C114.591 66.699 114.626 66.7342 114.626 66.7973C114.626 66.836 114.612 66.8781 114.584 66.9237C114.191 67.5066 113.927 68.0964 113.797 68.6933C113.759 68.8618 113.703 68.9461 113.629 68.9461C113.552 68.9461 113.418 68.8758 113.222 68.7354C113.109 68.6617 113.046 68.602 113.039 68.5528C113.011 68.5072 113.011 68.4124 113.039 68.272C113.208 67.2152 113.425 66.3339 113.699 65.6317C113.334 66.2216 112.835 66.8746 112.21 67.5838C111.656 68.2123 111.259 68.609 111.017 68.7776C110.838 68.8969 110.701 68.9601 110.609 68.9601C110.532 68.9601 110.42 68.8969 110.272 68.7776C110.048 68.6477 109.935 68.4651 109.935 68.2298C109.935 68.1842 109.942 68.1315 109.949 68.0753C110.027 67.4504 110.293 66.7271 110.764 65.9126C111.231 65.091 111.768 64.3923 112.379 63.82C112.575 63.6445 112.751 63.5532 112.913 63.5532C113.06 63.5637 113.348 63.7603 113.769 64.143C113.804 64.1817 113.825 64.2203 113.825 64.2554C113.825 64.3221 113.783 64.3537 113.699 64.3537C113.66 64.3537 113.629 64.3503 113.601 64.3398C113.299 64.2099 113.06 64.2134 112.884 64.3537C112.491 64.6451 112.056 65.1507 111.578 65.8704C111.024 66.7131 110.694 67.4679 110.581 68.1315C110.571 68.1701 110.567 68.1982 110.567 68.2158C110.567 68.3211 110.609 68.3703 110.694 68.3703C110.834 68.3703 111.003 68.2719 111.199 68.0753C111.666 67.6259 112.172 67.0571 112.716 66.362C113.257 65.6422 113.608 65.105 113.769 64.7469C113.882 64.4766 113.955 64.2835 113.994 64.1711C114.04 63.985 114.096 63.8902 114.163 63.8902C114.226 63.8902 114.373 63.9745 114.598 64.143C114.7 64.2203 114.756 64.2834 114.766 64.3396C114.766 64.3958 114.745 64.4871 114.71 64.6065ZM120.331 63.7638C120.331 63.9534 120.279 64.2518 120.177 64.6626C120.138 64.8031 120.096 64.8979 120.05 64.9435C120.029 64.9646 119.959 64.9962 119.84 65.0418C119.678 65.098 119.58 65.1261 119.545 65.1261C119.489 65.1261 119.461 65.0839 119.461 64.9997C119.461 64.954 119.464 64.8943 119.475 64.8171C119.576 64.4063 119.615 64.1219 119.587 63.9604C119.566 63.7919 119.619 63.6901 119.741 63.6515C119.945 63.5496 120.078 63.497 120.135 63.497C120.265 63.497 120.331 63.5883 120.331 63.7638ZM119.32 67.3591C119.338 67.8647 119.06 68.2122 118.492 68.3983C118.414 68.5774 118.344 68.7003 118.281 68.7635C118.186 68.8547 118.046 68.9109 117.86 68.932C117.737 68.9391 117.607 68.9354 117.466 68.9181C117.221 68.8794 116.919 68.8338 116.554 68.7776C116.462 68.76 116.399 68.7004 116.371 68.5951C116.392 68.4827 116.511 68.4195 116.736 68.3984C117.028 68.3808 117.459 68.3282 118.042 68.244C118.267 68.1878 118.425 68.0614 118.52 67.8648C118.565 67.7735 118.59 67.6506 118.59 67.4997C118.59 67.2398 118.457 66.7764 118.197 66.1093C117.933 65.4563 117.81 65.0209 117.832 64.8032C117.867 64.2801 118.355 63.9149 119.292 63.7078C119.376 63.6901 119.419 63.7217 119.419 63.8061C119.419 63.8623 119.383 63.9044 119.32 63.9325C118.871 64.1291 118.646 64.3749 118.646 64.6628C118.646 64.7751 118.664 64.9156 118.702 65.0841C118.748 65.2526 118.874 65.6599 119.081 66.3059C119.239 66.7764 119.32 67.1274 119.32 67.3591ZM123.776 67.3591C123.811 67.4153 123.769 67.5557 123.649 67.7804C123.302 68.4369 123.017 69.104 122.793 69.7887C122.884 69.8238 122.852 69.894 122.694 69.9993C122.533 70.1011 122.385 70.1398 122.245 70.1117C122.182 70.1011 122.147 70.0485 122.147 69.9572C122.147 69.8343 122.213 69.5359 122.343 69.0584C122.529 68.3843 122.712 67.9349 122.891 67.7102C122.965 67.6189 123.059 67.5487 123.172 67.4995C123.554 67.3696 123.755 67.3239 123.776 67.3591ZM137.16 62.3594C137.047 62.8088 136.759 63.3846 136.303 64.0868C135.843 64.789 135.446 65.263 135.109 65.5053C134.874 65.6738 134.639 65.758 134.407 65.758C134.274 65.758 133.95 65.6562 133.438 65.4491C133.333 65.414 133.283 65.3648 133.283 65.3086C133.283 65.2244 133.399 65.1822 133.635 65.1822C134.017 65.1822 134.309 65.105 134.505 64.9435C134.905 64.6451 135.285 64.2273 135.643 63.6936C136.11 63.0195 136.387 62.3559 136.471 61.6993C136.517 61.3447 136.394 61.1341 136.106 61.0674C135.973 61.0392 135.839 61.0358 135.699 61.0534C135.053 61.0921 134.424 61.236 133.817 61.4888C133.122 64.0167 132.483 66.0355 131.893 67.5417C131.928 67.5346 132.051 67.4645 132.258 67.3311C132.378 67.2574 132.476 67.2257 132.553 67.2328C132.673 67.2538 132.792 67.3732 132.904 67.5979C133.006 67.777 133.059 67.9139 133.059 68.0052C133.059 68.1175 132.981 68.1667 132.834 68.1456C132.729 68.1385 132.557 68.1983 132.314 68.3282C132.051 68.4686 131.826 68.6336 131.64 68.8197C131.545 68.911 131.447 68.9602 131.345 68.9602C131.205 68.9602 131.036 68.8653 130.84 68.6793C130.706 68.5599 130.65 68.4546 130.671 68.3703C130.689 68.2966 130.759 68.2439 130.882 68.2159C131.9 65.8565 132.658 63.7042 133.157 61.7556C131.584 62.4684 130.798 63.1284 130.798 63.7358C130.798 63.8201 130.812 63.9044 130.84 63.9886C130.847 64.0272 130.885 64.1361 130.952 64.3116C130.97 64.3608 130.98 64.4029 130.98 64.438C130.98 64.5504 130.931 64.6066 130.84 64.6066C130.706 64.6066 130.461 64.2414 130.095 63.5111C130.039 63.4199 130.011 63.3216 130.011 63.2162C130.011 62.9634 130.166 62.6966 130.475 62.4157C130.689 62.2191 131.093 61.9487 131.682 61.6012C132.318 61.2465 132.883 60.9762 133.382 60.7866C133.438 60.583 133.466 60.4144 133.466 60.281C133.466 60.123 133.508 60.0423 133.592 60.0423C133.705 60.0423 133.901 60.1932 134.182 60.4917C134.874 60.2951 135.341 60.1967 135.587 60.1967C136.054 60.2073 136.387 60.4495 136.584 60.927C136.837 61.1166 136.998 61.2606 137.075 61.3624C137.188 61.4958 137.244 61.6503 137.244 61.8258C137.244 61.9592 137.216 62.1347 137.16 62.3594ZM142.686 64.0728C142.686 64.617 142.616 65.1366 142.475 65.6317C142.426 65.7932 142.363 65.8704 142.279 65.8704C142.222 65.8704 142.096 65.7862 141.899 65.6176C141.794 65.5334 141.766 65.414 141.815 65.2525C141.934 64.8698 141.998 64.5643 141.998 64.3396C141.998 64.2554 141.977 64.2132 141.942 64.2132C141.892 64.2132 141.815 64.2905 141.703 64.438C140.832 65.5825 140.179 66.8535 139.751 68.2579C139.61 68.7073 139.491 68.932 139.4 68.932C139.361 68.932 139.192 68.8618 138.894 68.7214C138.754 68.6476 138.704 68.5072 138.754 68.3C139.08 66.85 139.435 65.6282 139.821 64.6346C139.512 64.9646 139.315 65.1893 139.231 65.3087C139.192 65.3578 139.147 65.3789 139.091 65.3789C139.024 65.3789 138.992 65.3473 138.992 65.2806C138.992 65.2455 139.006 65.2033 139.034 65.1542C139.238 64.9119 139.515 64.5362 139.863 64.0307C139.965 63.8446 140.067 63.7498 140.172 63.7498C140.246 63.7498 140.4 63.813 140.635 63.9323C140.765 63.9991 140.783 64.0868 140.692 64.1992C140.597 64.3221 140.425 64.7539 140.172 65.4912C139.926 66.204 139.758 66.7657 139.666 67.1765C140.235 65.9055 140.888 64.782 141.619 63.806C141.748 63.6304 141.857 63.5391 141.942 63.5391C142.015 63.5391 142.117 63.5883 142.251 63.6796C142.426 63.7077 142.538 63.7357 142.588 63.7638C142.651 63.82 142.686 63.9253 142.686 64.0728ZM148.816 64.8171C148.805 65.1928 148.718 65.6843 148.549 66.2917C148.275 67.2678 147.889 68.0191 147.384 68.5528C147.12 68.8407 146.829 68.9882 146.513 68.9882C146.379 68.9882 146.218 68.96 146.021 68.9039C145.628 68.8757 145.309 68.7564 145.066 68.5387C144.792 68.2965 144.666 67.984 144.687 67.5978C144.705 67.1589 144.859 66.541 145.151 65.744C145.467 64.8733 145.797 64.2483 146.134 63.8621C146.302 63.6865 146.436 63.5953 146.541 63.5953C146.681 63.5953 146.91 63.7427 147.229 64.0306C147.32 63.985 147.503 63.9042 147.777 63.7919C147.907 63.7568 148.008 63.7357 148.086 63.7357C148.244 63.7357 148.426 63.8867 148.633 64.1851C148.763 64.3747 148.823 64.5854 148.816 64.8171ZM148.086 64.9997C148.121 64.7188 148.142 64.5433 148.142 64.466C148.142 64.2904 148.086 64.1992 147.973 64.1992C147.935 64.1992 147.879 64.2097 147.805 64.2274L146.836 64.6206C146.723 64.6697 146.657 64.6908 146.639 64.6908C146.611 64.6908 146.576 64.6487 146.541 64.5644C146.295 64.8663 146.07 65.2947 145.867 65.8564C145.698 66.2988 145.586 66.6921 145.53 67.0361C145.481 67.2714 145.46 67.4855 145.46 67.6822C145.46 68.3282 145.656 68.6442 146.049 68.6231C146.207 68.616 146.379 68.5529 146.569 68.4405C146.913 68.1983 147.243 67.7208 147.552 67.0081C147.84 66.334 148.019 65.6668 148.086 64.9997ZM156.312 59.045C156.358 59.0837 156.382 59.1258 156.382 59.1714C156.382 59.2557 156.33 59.2978 156.228 59.2978C156.189 59.2978 156.15 59.2839 156.115 59.2557C155.919 59.1539 155.771 59.1012 155.68 59.1012C155.417 59.1012 155.125 59.361 154.809 59.8736C153.675 61.7099 152.857 64.1114 152.352 67.0782C152.79 66.3479 153.117 65.8283 153.335 65.5193C153.763 64.8944 154.212 64.3677 154.683 63.9464C154.908 63.7427 155.111 63.6374 155.301 63.6374C155.385 63.6374 155.526 63.6936 155.722 63.806C156.094 63.985 156.27 64.2519 156.242 64.6065C156.165 65.421 155.961 66.2215 155.624 67.008C155.294 67.7664 154.911 68.3667 154.472 68.8056C154.339 68.925 154.209 68.9882 154.079 68.9882C153.805 68.9882 153.426 68.6792 152.941 68.0613C152.885 67.9875 152.857 67.9279 152.857 67.8787C152.857 67.8155 152.892 67.7804 152.97 67.7804C153.043 67.7804 153.113 67.8086 153.18 67.8647C153.422 68.0824 153.633 68.1877 153.812 68.1877C153.981 68.1877 154.142 68.0859 154.304 67.8787C154.592 67.5136 154.855 67.015 155.09 66.376C155.361 65.6668 155.497 65.0278 155.497 64.466C155.497 64.2519 155.42 64.143 155.273 64.143C155.189 64.143 155.094 64.1851 154.992 64.2694C154.476 64.7188 153.953 65.3508 153.419 66.1653C152.857 67.0466 152.45 67.8927 152.197 68.7073C152.148 68.8548 152.092 68.932 152.029 68.932C151.99 68.932 151.944 68.9109 151.888 68.8758C151.671 68.7354 151.551 68.6511 151.523 68.623C151.439 68.5388 151.397 68.4334 151.397 68.3C151.397 68.2369 151.411 68.1561 151.439 68.0613C151.923 65.3929 152.552 63.1178 153.321 61.2359C153.889 59.8315 154.409 58.9152 154.88 58.4833C154.999 58.371 155.118 58.3148 155.231 58.3148C155.343 58.3148 155.487 58.385 155.666 58.5254C155.88 58.7045 156.094 58.8765 156.312 59.045ZM161.35 61.7696C161.413 61.8187 161.449 61.8749 161.449 61.9381C161.449 62.061 161.27 62.2471 160.915 62.4999C160.669 62.6684 160.437 62.7316 160.213 62.6824C160.09 62.6542 159.981 62.6087 159.89 62.542C159.861 62.5138 159.837 62.4858 159.819 62.4577C159.809 62.4295 159.809 62.4121 159.819 62.4015C159.827 62.3839 159.851 62.3805 159.89 62.3876C160.272 62.0506 160.525 61.8083 160.648 61.6573C160.75 61.5555 160.82 61.5029 160.859 61.5029C160.932 61.5029 161.097 61.594 161.35 61.7696ZM160.465 64.5222C160.36 65.0839 160.1 66.0249 159.679 67.345C159.798 67.2327 159.967 67.0326 160.185 66.7411C160.213 66.706 160.241 66.6849 160.269 66.6849C160.332 66.6849 160.343 66.7481 160.297 66.8675C160.276 66.9167 160.1 67.2011 159.763 67.7242C159.511 68.1279 159.328 68.4826 159.216 68.7915C159.177 68.8828 159.107 68.932 159.005 68.932C158.9 68.932 158.766 68.8828 158.598 68.7915C158.485 68.7353 158.429 68.6932 158.429 68.6651C158.429 68.6369 158.45 68.5809 158.499 68.4966C158.731 68.0963 158.984 67.4292 159.258 66.5023C159.518 65.5965 159.669 64.9224 159.707 64.48C159.714 64.2939 159.697 64.1991 159.651 64.1991C159.612 64.1991 159.542 64.2483 159.44 64.3396L159.061 64.7047C158.921 64.8276 158.851 64.8311 158.851 64.7186C158.851 64.6905 158.868 64.6484 158.907 64.5922C159.103 64.3219 159.314 64.0586 159.539 63.8058C159.602 63.7426 159.669 63.7075 159.735 63.7075C159.799 63.7075 159.897 63.7566 160.03 63.8479C160.216 63.8971 160.318 63.9252 160.339 63.9322C160.441 63.9989 160.494 64.1112 160.494 64.2692C160.494 64.3465 160.483 64.4309 160.465 64.5222ZM166.715 60.7724C166.827 60.8392 166.884 60.9094 166.884 60.9831C166.884 61.0393 166.845 61.0673 166.771 61.0673C166.75 61.0673 166.722 61.0673 166.687 61.0673C166.659 61.0602 166.634 61.0534 166.617 61.0534C166.455 61.0534 166.266 61.229 166.041 61.573C165.834 61.882 165.553 62.5561 165.198 63.5954C165.17 63.6902 165.156 63.7463 165.156 63.7639C165.174 63.7921 165.23 63.806 165.325 63.806C165.567 63.8342 165.901 63.8305 166.322 63.7921C166.462 63.7744 166.533 63.8307 166.533 63.9606C166.533 64.0554 166.476 64.1151 166.364 64.1432C166.28 64.1537 165.816 64.1923 164.974 64.2555C164.475 65.7266 164.173 66.966 164.061 67.9772C164.061 68.0334 164.061 68.086 164.061 68.1316C164.061 68.2721 164.092 68.3423 164.159 68.3423C164.271 68.3423 164.612 68.0685 165.184 67.5137C165.247 67.4505 165.314 67.4154 165.381 67.4154C165.437 67.4154 165.469 67.4399 165.479 67.4856C165.497 67.5348 165.479 67.591 165.423 67.6541C165.086 68.1035 164.752 68.4898 164.426 68.8057C164.286 68.9356 164.173 69.0024 164.089 69.0024C163.994 69.0024 163.85 68.9251 163.654 68.7776C163.418 68.7145 163.302 68.5881 163.302 68.3985C163.302 68.3703 163.306 68.3388 163.316 68.3001C163.464 67.2258 163.766 65.8951 164.215 64.3117C163.997 64.2835 163.797 64.2555 163.611 64.2274C163.534 64.2098 163.499 64.1572 163.499 64.073C163.499 63.9817 163.541 63.9255 163.625 63.9044C163.71 63.8762 163.864 63.8307 164.089 63.764C164.229 63.7183 164.363 63.6516 164.496 63.5674C164.935 62.184 165.286 61.2852 165.549 60.8709C165.69 60.6392 165.844 60.5198 166.013 60.5198C166.171 60.5198 166.406 60.6039 166.715 60.7724ZM172.561 64.6064C172.168 65.6738 171.901 66.5726 171.76 67.3029C171.816 67.2397 171.894 67.1449 171.999 67.022C172.101 66.9026 172.168 66.8324 172.196 66.8114C172.252 66.7376 172.312 66.699 172.378 66.699C172.441 66.699 172.477 66.7341 172.477 66.7973C172.477 66.836 172.463 66.8781 172.434 66.9237C172.041 67.5066 171.778 68.0964 171.648 68.6933C171.609 68.8618 171.553 68.9461 171.479 68.9461C171.402 68.9461 171.269 68.8758 171.072 68.7354C170.96 68.6617 170.897 68.602 170.89 68.5528C170.861 68.5072 170.861 68.4124 170.89 68.272C171.058 67.2152 171.276 66.3339 171.55 65.6317C171.185 66.2215 170.686 66.8746 170.061 67.5838C169.506 68.2123 169.11 68.609 168.867 68.7775C168.688 68.8969 168.551 68.9601 168.46 68.9601C168.383 68.9601 168.27 68.8969 168.123 68.7775C167.898 68.6476 167.786 68.4651 167.786 68.2298C167.786 68.1842 167.793 68.1315 167.8 68.0753C167.877 67.4504 168.144 66.7271 168.614 65.9126C169.081 65.091 169.619 64.3923 170.229 63.82C170.426 63.6445 170.602 63.5532 170.763 63.5532C170.911 63.5637 171.198 63.7603 171.62 64.143C171.655 64.1816 171.676 64.2203 171.676 64.2554C171.676 64.3221 171.634 64.3537 171.55 64.3537C171.511 64.3537 171.479 64.3503 171.451 64.3397C171.149 64.2098 170.911 64.2133 170.735 64.3537C170.342 64.6451 169.906 65.1507 169.429 65.8704C168.874 66.7131 168.544 67.4679 168.432 68.1315C168.421 68.1701 168.418 68.1982 168.418 68.2157C168.418 68.3211 168.46 68.3702 168.544 68.3702C168.685 68.3702 168.853 68.2719 169.05 68.0753C169.517 67.6259 170.022 67.0571 170.567 66.3619C171.107 65.6422 171.458 65.105 171.62 64.7469C171.732 64.4766 171.806 64.2834 171.845 64.1711C171.89 63.985 171.946 63.8902 172.013 63.8902C172.076 63.8902 172.224 63.9745 172.448 64.143C172.55 64.2202 172.606 64.2834 172.617 64.3396C172.617 64.3958 172.596 64.4871 172.561 64.6064ZM178.182 63.7638C178.182 63.9534 178.129 64.2518 178.027 64.6626C177.989 64.8031 177.947 64.8979 177.901 64.9435C177.88 64.9646 177.81 64.9961 177.69 65.0418C177.529 65.098 177.431 65.1261 177.395 65.1261C177.339 65.1261 177.311 65.0839 177.311 64.9996C177.311 64.954 177.315 64.8943 177.325 64.8171C177.427 64.4063 177.466 64.1219 177.437 63.9604C177.416 63.7919 177.469 63.6901 177.592 63.6514C177.796 63.5496 177.929 63.497 177.985 63.497C178.115 63.497 178.182 63.5882 178.182 63.7638ZM177.171 67.3591C177.188 67.8646 176.911 68.2122 176.342 68.3983C176.265 68.5774 176.195 68.7002 176.132 68.7635C176.037 68.8547 175.896 68.9109 175.71 68.932C175.587 68.9391 175.457 68.9354 175.317 68.9181C175.071 68.8794 174.769 68.8338 174.404 68.7776C174.313 68.76 174.25 68.7004 174.222 68.5951C174.243 68.4827 174.362 68.4195 174.587 68.3984C174.878 68.3808 175.31 68.3282 175.893 68.244C176.118 68.1878 176.275 68.0614 176.37 67.8648C176.416 67.7735 176.441 67.6506 176.441 67.4996C176.441 67.2398 176.307 66.7764 176.047 66.1093C175.784 65.4562 175.661 65.0209 175.682 64.8032C175.717 64.2801 176.205 63.9149 177.143 63.7078C177.227 63.6901 177.269 63.7217 177.269 63.8061C177.269 63.8623 177.234 63.9044 177.171 63.9325C176.721 64.1291 176.497 64.3749 176.497 64.6628C176.497 64.7751 176.514 64.9156 176.553 65.0841C176.598 65.2526 176.725 65.6599 176.932 66.3059C177.09 66.7764 177.171 67.1273 177.171 67.3591ZM181.63 67.3591C181.665 67.4152 181.623 67.5557 181.503 67.7804C181.156 68.4369 180.871 69.104 180.647 69.7887C180.738 69.8238 180.706 69.894 180.548 69.9993C180.387 70.1011 180.239 70.1398 180.099 70.1117C180.036 70.1011 180.001 70.0485 180.001 69.9572C180.001 69.8343 180.067 69.5359 180.197 69.0584C180.383 68.3843 180.566 67.9349 180.745 67.7102C180.819 67.6189 180.913 67.5487 181.026 67.4995C181.409 67.3696 181.609 67.3239 181.63 67.3591ZM192.514 62.3594C192.373 63.5777 191.987 64.9365 191.362 66.4322C190.632 68.1947 189.919 69.0759 189.227 69.0865C188.813 69.0865 188.315 68.8653 187.725 68.4264C187.676 68.3913 187.655 68.3386 187.655 68.2719C187.655 68.1315 187.718 68.0613 187.851 68.0613C187.886 68.0613 187.921 68.0684 187.95 68.0752C188.315 68.2648 188.624 68.3631 188.876 68.3701C189.428 68.3807 190.042 67.5521 190.716 65.8844C191.352 64.2763 191.692 62.8298 191.741 61.5448C191.759 61.134 191.552 60.9268 191.123 60.9268C191.057 60.9268 190.987 60.934 190.913 60.9408C190.583 60.9899 190.214 61.2497 189.803 61.7272C189.333 62.2539 189.006 62.8508 188.82 63.5249C188.799 63.6197 188.792 63.7039 188.792 63.7777C188.792 63.9392 188.841 64.0796 188.947 64.199C189.038 64.3043 189.133 64.4026 189.227 64.4939C189.273 64.5431 189.298 64.5852 189.298 64.6203C189.298 64.7046 189.234 64.7467 189.115 64.7467C189.059 64.7467 189.017 64.7396 188.989 64.7185C188.623 64.5044 188.374 64.3323 188.244 64.1989C188.083 64.0304 188.006 63.8443 188.006 63.6372C188.006 63.4405 188.079 63.1702 188.23 62.8226C188.444 62.317 188.771 61.822 189.213 61.334C189.614 60.867 189.979 60.5686 190.309 60.4351C190.456 60.3719 190.765 60.4069 191.236 60.5475C191.271 60.5124 191.32 60.4913 191.376 60.4913C191.534 60.4913 191.854 60.6458 192.331 60.9547C192.545 61.0952 192.605 61.5659 192.514 62.3594ZM199.409 64.2413C198.855 65.2735 198.44 66.4848 198.159 67.8787C198.279 67.6751 198.419 67.4117 198.581 67.0922C198.609 67.036 198.644 67.008 198.693 67.008C198.749 67.008 198.777 67.0466 198.777 67.1203C198.777 67.1485 198.77 67.1765 198.763 67.2046C198.49 67.8225 198.314 68.2965 198.23 68.623C198.181 68.8267 198.117 68.932 198.033 68.932C197.949 68.932 197.784 68.8512 197.542 68.6932C197.408 68.6019 197.366 68.4369 197.415 68.2017C197.591 67.2853 197.801 66.4883 198.047 65.8142C197.24 67.1343 196.562 68.1104 196.011 68.7354C195.888 68.8653 195.758 68.932 195.618 68.932C195.495 68.932 195.354 68.8828 195.196 68.7915C194.915 68.7459 194.775 68.5949 194.775 68.3421C194.775 68.2965 194.775 68.2438 194.775 68.1876C194.887 66.9904 195.105 65.9968 195.435 65.2103C195.358 65.277 195.252 65.3754 195.112 65.5053C195.056 65.5544 195.014 65.5614 194.986 65.5335C194.957 65.5158 194.965 65.4703 195.014 65.393C195.239 65.0665 195.368 64.8523 195.407 64.747C195.537 64.4205 195.674 64.1642 195.814 63.9746C195.888 63.8903 195.969 63.8482 196.053 63.8482C196.165 63.8482 196.334 63.9149 196.559 64.0448C196.615 64.0834 196.643 64.122 196.643 64.1571C196.643 64.1571 196.594 64.2274 196.502 64.3678C196.295 64.6873 196.074 65.2491 195.842 66.0531C195.579 66.9238 195.449 67.633 195.449 68.1737C195.449 68.3528 195.484 68.4406 195.562 68.4406C195.625 68.4406 195.734 68.3668 195.885 68.2158C196.211 67.8718 196.678 67.2187 197.289 66.2637C197.83 65.4211 198.16 64.8734 198.272 64.6206C198.458 64.1922 198.609 63.9395 198.721 63.8622C198.795 63.8166 198.865 63.792 198.932 63.792C198.988 63.792 199.101 63.8411 199.269 63.9324C199.438 64.0167 199.522 64.0799 199.522 64.115C199.522 64.136 199.501 64.1536 199.466 64.1712C199.438 64.1922 199.416 64.2132 199.409 64.2413ZM204.729 63.7638C204.729 63.9534 204.676 64.2518 204.574 64.6626C204.535 64.8031 204.493 64.8979 204.448 64.9435C204.427 64.9646 204.356 64.9961 204.237 65.0418C204.076 65.098 203.977 65.1261 203.942 65.1261C203.886 65.1261 203.858 65.0839 203.858 64.9996C203.858 64.954 203.862 64.8943 203.872 64.8171C203.974 64.4063 204.012 64.1219 203.984 63.9604C203.963 63.7919 204.016 63.6901 204.139 63.6514C204.342 63.5496 204.476 63.497 204.532 63.497C204.662 63.497 204.729 63.5882 204.729 63.7638ZM203.717 67.3591C203.735 67.8646 203.458 68.2122 202.889 68.3983C202.811 68.5774 202.741 68.7002 202.678 68.7635C202.583 68.8547 202.443 68.9109 202.257 68.932C202.134 68.9391 202.004 68.9354 201.864 68.9181C201.618 68.8794 201.316 68.8338 200.951 68.7776C200.859 68.76 200.796 68.7004 200.768 68.5951C200.789 68.4827 200.909 68.4195 201.133 68.3984C201.425 68.3808 201.857 68.3282 202.439 68.244C202.664 68.1878 202.822 68.0614 202.917 67.8648C202.963 67.7735 202.987 67.6506 202.987 67.4996C202.987 67.2398 202.854 66.7764 202.594 66.1093C202.331 65.4562 202.208 65.0209 202.229 64.8032C202.264 64.2801 202.752 63.9149 203.689 63.7078C203.774 63.6901 203.816 63.7217 203.816 63.8061C203.816 63.8623 203.781 63.9044 203.717 63.9325C203.268 64.1291 203.043 64.3749 203.043 64.6628C203.043 64.7751 203.061 64.9156 203.099 65.0841C203.145 65.2526 203.272 65.6599 203.479 66.3059C203.637 66.7764 203.717 67.1273 203.717 67.3591ZM210.462 60.7724C210.574 60.8392 210.63 60.9094 210.63 60.9831C210.63 61.0393 210.592 61.0673 210.518 61.0673C210.497 61.0673 210.469 61.0673 210.434 61.0673C210.406 61.0602 210.381 61.0534 210.364 61.0534C210.202 61.0534 210.013 61.229 209.788 61.573C209.581 61.882 209.3 62.5561 208.945 63.5954C208.917 63.6902 208.903 63.7463 208.903 63.7639C208.921 63.7921 208.977 63.806 209.072 63.806C209.314 63.8342 209.647 63.8305 210.069 63.7921C210.209 63.7744 210.279 63.8307 210.279 63.9606C210.279 64.0554 210.223 64.1151 210.111 64.1432C210.027 64.1537 209.563 64.1923 208.721 64.2555C208.222 65.7266 207.92 66.966 207.808 67.9772C207.808 68.0334 207.808 68.086 207.808 68.1316C207.808 68.2721 207.839 68.3423 207.906 68.3423C208.018 68.3423 208.359 68.0685 208.931 67.5137C208.994 67.4505 209.061 67.4154 209.128 67.4154C209.184 67.4154 209.215 67.4399 209.226 67.4856C209.244 67.5348 209.226 67.591 209.17 67.6541C208.833 68.1035 208.499 68.4898 208.173 68.8057C208.032 68.9356 207.92 69.0024 207.836 69.0024C207.741 69.0024 207.597 68.9251 207.4 68.7776C207.165 68.7145 207.049 68.5881 207.049 68.3985C207.049 68.3703 207.053 68.3388 207.063 68.3001C207.211 67.2258 207.513 65.8951 207.962 64.3117C207.744 64.2835 207.544 64.2555 207.358 64.2274C207.281 64.2098 207.246 64.1572 207.246 64.073C207.246 63.9817 207.288 63.9255 207.372 63.9044C207.456 63.8762 207.611 63.8307 207.836 63.764C207.976 63.7183 208.109 63.6516 208.243 63.5674C208.682 62.184 209.033 61.2852 209.296 60.8709C209.437 60.6392 209.591 60.5198 209.76 60.5198C209.918 60.5198 210.153 60.6039 210.462 60.7724ZM214.584 61.7696C214.647 61.8187 214.682 61.8749 214.682 61.9381C214.682 62.061 214.503 62.2471 214.148 62.4999C213.903 62.6684 213.671 62.7316 213.446 62.6824C213.323 62.6542 213.215 62.6087 213.123 62.542C213.095 62.5138 213.071 62.4858 213.053 62.4577C213.042 62.4295 213.042 62.4121 213.053 62.4015C213.06 62.3839 213.085 62.3805 213.123 62.3876C213.506 62.0506 213.759 61.8083 213.882 61.6573C213.984 61.5555 214.054 61.5029 214.092 61.5029C214.166 61.5029 214.331 61.594 214.584 61.7696ZM213.699 64.5222C213.594 65.0839 213.334 66.0249 212.913 67.345C213.032 67.2327 213.201 67.0326 213.418 66.7411C213.446 66.706 213.474 66.6849 213.502 66.6849C213.566 66.6849 213.576 66.7481 213.531 66.8675C213.51 66.9167 213.334 67.2011 212.997 67.7242C212.744 68.1279 212.562 68.4826 212.449 68.7915C212.411 68.8828 212.34 68.932 212.239 68.932C212.133 68.932 212 68.8828 211.831 68.7915C211.719 68.7353 211.663 68.6932 211.663 68.6651C211.663 68.6369 211.684 68.5809 211.733 68.4966C211.965 68.0963 212.218 67.4292 212.491 66.5023C212.751 65.5965 212.902 64.9224 212.941 64.48C212.948 64.2939 212.93 64.1991 212.885 64.1991C212.846 64.1991 212.776 64.2483 212.674 64.3396L212.295 64.7047C212.154 64.8276 212.084 64.8311 212.084 64.7186C212.084 64.6905 212.102 64.6484 212.14 64.5922C212.337 64.3219 212.548 64.0586 212.772 63.8058C212.835 63.7426 212.902 63.7075 212.969 63.7075C213.032 63.7075 213.13 63.7566 213.264 63.8479C213.45 63.8971 213.552 63.9252 213.573 63.9322C213.675 63.9989 213.727 64.1112 213.727 64.2692C213.727 64.3465 213.716 64.4309 213.699 64.5222ZM219.945 60.7724C220.057 60.8392 220.114 60.9094 220.114 60.9831C220.114 61.0393 220.075 61.0673 220.001 61.0673C219.98 61.0673 219.952 61.0673 219.917 61.0673C219.889 61.0602 219.865 61.0534 219.847 61.0534C219.685 61.0534 219.496 61.229 219.271 61.573C219.064 61.882 218.783 62.5561 218.428 63.5954C218.4 63.6902 218.386 63.7463 218.386 63.7639C218.404 63.7921 218.46 63.806 218.555 63.806C218.797 63.8342 219.131 63.8305 219.552 63.7921C219.692 63.7744 219.763 63.8307 219.763 63.9606C219.763 64.0554 219.706 64.1151 219.594 64.1432C219.51 64.1537 219.046 64.1923 218.204 64.2555C217.705 65.7266 217.403 66.966 217.291 67.9772C217.291 68.0334 217.291 68.086 217.291 68.1316C217.291 68.2721 217.322 68.3423 217.389 68.3423C217.501 68.3423 217.842 68.0685 218.414 67.5137C218.478 67.4505 218.544 67.4154 218.611 67.4154C218.667 67.4154 218.699 67.4399 218.709 67.4856C218.727 67.5348 218.709 67.591 218.653 67.6541C218.316 68.1035 217.982 68.4898 217.656 68.8057C217.516 68.9356 217.403 69.0024 217.319 69.0024C217.224 69.0024 217.08 68.9251 216.884 68.7776C216.648 68.7145 216.532 68.5881 216.532 68.3985C216.532 68.3703 216.536 68.3388 216.546 68.3001C216.694 67.2258 216.996 65.8951 217.445 64.3117C217.227 64.2835 217.027 64.2555 216.841 64.2274C216.764 64.2098 216.729 64.1572 216.729 64.073C216.729 63.9817 216.771 63.9255 216.855 63.9044C216.94 63.8762 217.094 63.8307 217.319 63.764C217.459 63.7183 217.593 63.6516 217.726 63.5674C218.165 62.184 218.516 61.2852 218.779 60.8709C218.92 60.6392 219.074 60.5198 219.243 60.5198C219.401 60.5198 219.636 60.6039 219.945 60.7724ZM224.067 61.7696C224.13 61.8187 224.165 61.8749 224.165 61.9381C224.165 62.061 223.986 62.2471 223.632 62.4999C223.386 62.6684 223.154 62.7316 222.929 62.6824C222.807 62.6542 222.698 62.6087 222.606 62.542C222.578 62.5138 222.554 62.4858 222.536 62.4577C222.525 62.4295 222.525 62.4121 222.536 62.4015C222.543 62.3839 222.568 62.3805 222.606 62.3876C222.989 62.0506 223.242 61.8083 223.365 61.6573C223.467 61.5555 223.537 61.5029 223.575 61.5029C223.649 61.5029 223.814 61.594 224.067 61.7696ZM223.182 64.5222C223.077 65.0839 222.817 66.0249 222.396 67.345C222.515 67.2327 222.684 67.0326 222.901 66.7411C222.93 66.706 222.958 66.6849 222.986 66.6849C223.049 66.6849 223.059 66.7481 223.014 66.8675C222.993 66.9167 222.817 67.2011 222.48 67.7242C222.227 68.1279 222.045 68.4826 221.932 68.7915C221.894 68.8828 221.824 68.932 221.722 68.932C221.616 68.932 221.483 68.8828 221.315 68.7915C221.202 68.7353 221.146 68.6932 221.146 68.6651C221.146 68.6369 221.167 68.5809 221.216 68.4966C221.448 68.0963 221.701 67.4292 221.975 66.5023C222.234 65.5965 222.385 64.9224 222.424 64.48C222.431 64.2939 222.413 64.1991 222.368 64.1991C222.329 64.1991 222.259 64.2483 222.157 64.3396L221.778 64.7047C221.638 64.8276 221.567 64.8311 221.567 64.7186C221.567 64.6905 221.585 64.6484 221.623 64.5922C221.82 64.3219 222.031 64.0586 222.255 63.8058C222.319 63.7426 222.385 63.7075 222.452 63.7075C222.515 63.7075 222.614 63.7566 222.747 63.8479C222.933 63.8971 223.035 63.9252 223.056 63.9322C223.158 63.9989 223.211 64.1112 223.211 64.2692C223.211 64.3465 223.2 64.4309 223.182 64.5222ZM230.257 64.6065C229.864 65.6738 229.597 66.5726 229.456 67.3029C229.513 67.2397 229.59 67.1449 229.695 67.022C229.797 66.9027 229.864 66.8324 229.892 66.8114C229.948 66.7377 230.008 66.699 230.074 66.699C230.138 66.699 230.173 66.7342 230.173 66.7973C230.173 66.836 230.159 66.8781 230.13 66.9238C229.737 67.5066 229.474 68.0964 229.344 68.6933C229.305 68.8618 229.249 68.9461 229.175 68.9461C229.098 68.9461 228.965 68.8758 228.768 68.7354C228.656 68.6617 228.593 68.602 228.586 68.5529C228.557 68.5072 228.557 68.4124 228.586 68.272C228.754 67.2152 228.972 66.3339 229.246 65.6317C228.881 66.2216 228.382 66.8746 227.757 67.5838C227.202 68.2123 226.806 68.609 226.563 68.7776C226.384 68.8969 226.247 68.9601 226.156 68.9601C226.079 68.9601 225.966 68.8969 225.819 68.7776C225.594 68.6477 225.482 68.4651 225.482 68.2298C225.482 68.1842 225.489 68.1315 225.496 68.0754C225.573 67.4504 225.84 66.7272 226.31 65.9126C226.777 65.091 227.315 64.3924 227.925 63.8201C228.122 63.6445 228.298 63.5532 228.459 63.5532C228.607 63.5638 228.894 63.7604 229.316 64.1431C229.351 64.1817 229.372 64.2203 229.372 64.2554C229.372 64.3221 229.33 64.3537 229.246 64.3537C229.207 64.3537 229.175 64.3503 229.147 64.3398C228.845 64.2099 228.607 64.2134 228.431 64.3537C228.038 64.6451 227.603 65.1507 227.125 65.8705C226.57 66.7131 226.24 67.468 226.128 68.1315C226.117 68.1702 226.114 68.1983 226.114 68.2158C226.114 68.3211 226.156 68.3703 226.24 68.3703C226.381 68.3703 226.549 68.2719 226.746 68.0753C227.213 67.6259 227.718 67.0571 228.263 66.362C228.803 65.6422 229.154 65.105 229.316 64.7469C229.428 64.4766 229.502 64.2835 229.541 64.1711C229.586 63.985 229.643 63.8902 229.709 63.8902C229.772 63.8902 229.92 63.9745 230.145 64.143C230.246 64.2203 230.303 64.2834 230.313 64.3396C230.313 64.3958 230.292 64.4871 230.257 64.6065Z" fill="white"/>
</svg>
